G75*
%MOIN*%
%OFA0B0*%
%FSLAX24Y24*%
%IPPOS*%
%LPD*%
%AMOC8*
5,1,8,0,0,1.08239X$1,22.5*
%
%ADD10R,0.0356X0.0434*%
%ADD11R,0.0444X0.0371*%
%ADD12R,0.0371X0.0444*%
%ADD13R,0.0980X0.2080*%
%ADD14R,0.2080X0.0980*%
%ADD15C,0.0680*%
%ADD16OC8,0.0680*%
%ADD17C,0.0634*%
%ADD18C,0.0867*%
%ADD19C,0.0556*%
%ADD20OC8,0.0595*%
%ADD21OC8,0.0640*%
D10*
X038420Y026193D03*
X038931Y026193D03*
X043920Y023393D03*
X044431Y023393D03*
D11*
X038912Y026793D03*
X038439Y026793D03*
X008012Y020643D03*
X007539Y020643D03*
D12*
X037926Y025757D03*
X037926Y026230D03*
D13*
X039366Y034883D03*
X035886Y034883D03*
D14*
X049116Y030233D03*
X049116Y026753D03*
D15*
X041426Y019393D02*
X040826Y019393D01*
X043126Y018693D02*
X043126Y018093D01*
X041126Y015693D02*
X041126Y015093D01*
X032726Y033743D02*
X032126Y033743D01*
X032126Y034743D02*
X032726Y034743D01*
X012226Y034093D02*
X012226Y033493D01*
X011226Y033493D02*
X011226Y034093D01*
X010226Y034093D02*
X010226Y033493D01*
X003276Y015743D02*
X003276Y015143D01*
X002276Y015143D02*
X002276Y015743D01*
D16*
X006076Y027943D03*
X007076Y027943D03*
X008076Y027943D03*
X008076Y028943D03*
X007076Y028943D03*
X006076Y028943D03*
D17*
X008126Y018293D03*
X009126Y018293D03*
X022126Y018293D03*
X023126Y018293D03*
X032126Y018293D03*
X033126Y018293D03*
D18*
X034126Y016293D03*
X030126Y016293D03*
X024126Y016293D03*
X020126Y016293D03*
X010126Y016293D03*
X006126Y016293D03*
D19*
X002313Y021793D02*
X001838Y021793D01*
X001838Y022793D02*
X002313Y022793D01*
X002313Y023793D02*
X001838Y023793D01*
X001838Y025793D02*
X002313Y025793D01*
X002313Y026793D02*
X001838Y026793D01*
X001838Y027793D02*
X002313Y027793D01*
D20*
X015626Y014693D03*
X014626Y016693D03*
X015626Y019693D03*
D21*
X025526Y033443D03*
X026526Y033443D03*
X027526Y033443D03*
X028526Y033443D03*
X028526Y034443D03*
X027526Y034443D03*
X026526Y034443D03*
X025526Y034443D03*
M02*
