G75*
%MOIN*%
%OFA0B0*%
%FSLAX24Y24*%
%IPPOS*%
%LPD*%
%AMOC8*
5,1,8,0,0,1.08239X$1,22.5*
%
%ADD10C,0.0000*%
%ADD11C,0.0020*%
%ADD12C,0.0030*%
%ADD13C,0.0120*%
%ADD14C,0.0160*%
%ADD15C,0.0080*%
%ADD16C,0.0060*%
%ADD17R,0.0118X0.0236*%
%ADD18R,0.0236X0.0118*%
%ADD19C,0.0040*%
%ADD20R,0.0108X0.0197*%
%ADD21R,0.0433X0.0193*%
%ADD22R,0.0197X0.0108*%
%ADD23C,0.0050*%
%ADD24R,0.0394X0.1604*%
%ADD25R,0.1604X0.0394*%
%ADD26R,0.0256X0.0197*%
%ADD27R,0.0200X0.0200*%
%ADD28C,0.0000*%
%ADD29R,0.0354X0.0374*%
%ADD30R,0.0571X0.0295*%
%ADD31R,0.0295X0.0571*%
%ADD32R,0.0400X0.0140*%
%ADD33C,0.0992*%
%ADD34R,0.0598X0.0193*%
%ADD35R,0.0380X0.0850*%
%ADD36R,0.0380X0.0660*%
%ADD37C,0.0079*%
%ADD38R,0.0180X0.0330*%
%ADD39R,0.0220X0.0330*%
%ADD40R,0.0138X0.0315*%
%ADD41R,0.0315X0.0138*%
%ADD42R,0.0134X0.0083*%
%ADD43R,0.0315X0.0114*%
%ADD44C,0.0070*%
D10*
X000126Y013393D02*
X000126Y035893D01*
X050126Y035893D01*
X050126Y013393D01*
X000126Y013393D01*
X005732Y016293D02*
X005734Y016332D01*
X005740Y016371D01*
X005750Y016409D01*
X005763Y016446D01*
X005780Y016481D01*
X005800Y016515D01*
X005824Y016546D01*
X005851Y016575D01*
X005880Y016601D01*
X005912Y016624D01*
X005946Y016644D01*
X005982Y016660D01*
X006019Y016672D01*
X006058Y016681D01*
X006097Y016686D01*
X006136Y016687D01*
X006175Y016684D01*
X006214Y016677D01*
X006251Y016666D01*
X006288Y016652D01*
X006323Y016634D01*
X006356Y016613D01*
X006387Y016588D01*
X006415Y016561D01*
X006440Y016531D01*
X006462Y016498D01*
X006481Y016464D01*
X006496Y016428D01*
X006508Y016390D01*
X006516Y016352D01*
X006520Y016313D01*
X006520Y016273D01*
X006516Y016234D01*
X006508Y016196D01*
X006496Y016158D01*
X006481Y016122D01*
X006462Y016088D01*
X006440Y016055D01*
X006415Y016025D01*
X006387Y015998D01*
X006356Y015973D01*
X006323Y015952D01*
X006288Y015934D01*
X006251Y015920D01*
X006214Y015909D01*
X006175Y015902D01*
X006136Y015899D01*
X006097Y015900D01*
X006058Y015905D01*
X006019Y015914D01*
X005982Y015926D01*
X005946Y015942D01*
X005912Y015962D01*
X005880Y015985D01*
X005851Y016011D01*
X005824Y016040D01*
X005800Y016071D01*
X005780Y016105D01*
X005763Y016140D01*
X005750Y016177D01*
X005740Y016215D01*
X005734Y016254D01*
X005732Y016293D01*
X009732Y016293D02*
X009734Y016332D01*
X009740Y016371D01*
X009750Y016409D01*
X009763Y016446D01*
X009780Y016481D01*
X009800Y016515D01*
X009824Y016546D01*
X009851Y016575D01*
X009880Y016601D01*
X009912Y016624D01*
X009946Y016644D01*
X009982Y016660D01*
X010019Y016672D01*
X010058Y016681D01*
X010097Y016686D01*
X010136Y016687D01*
X010175Y016684D01*
X010214Y016677D01*
X010251Y016666D01*
X010288Y016652D01*
X010323Y016634D01*
X010356Y016613D01*
X010387Y016588D01*
X010415Y016561D01*
X010440Y016531D01*
X010462Y016498D01*
X010481Y016464D01*
X010496Y016428D01*
X010508Y016390D01*
X010516Y016352D01*
X010520Y016313D01*
X010520Y016273D01*
X010516Y016234D01*
X010508Y016196D01*
X010496Y016158D01*
X010481Y016122D01*
X010462Y016088D01*
X010440Y016055D01*
X010415Y016025D01*
X010387Y015998D01*
X010356Y015973D01*
X010323Y015952D01*
X010288Y015934D01*
X010251Y015920D01*
X010214Y015909D01*
X010175Y015902D01*
X010136Y015899D01*
X010097Y015900D01*
X010058Y015905D01*
X010019Y015914D01*
X009982Y015926D01*
X009946Y015942D01*
X009912Y015962D01*
X009880Y015985D01*
X009851Y016011D01*
X009824Y016040D01*
X009800Y016071D01*
X009780Y016105D01*
X009763Y016140D01*
X009750Y016177D01*
X009740Y016215D01*
X009734Y016254D01*
X009732Y016293D01*
X019732Y016293D02*
X019734Y016332D01*
X019740Y016371D01*
X019750Y016409D01*
X019763Y016446D01*
X019780Y016481D01*
X019800Y016515D01*
X019824Y016546D01*
X019851Y016575D01*
X019880Y016601D01*
X019912Y016624D01*
X019946Y016644D01*
X019982Y016660D01*
X020019Y016672D01*
X020058Y016681D01*
X020097Y016686D01*
X020136Y016687D01*
X020175Y016684D01*
X020214Y016677D01*
X020251Y016666D01*
X020288Y016652D01*
X020323Y016634D01*
X020356Y016613D01*
X020387Y016588D01*
X020415Y016561D01*
X020440Y016531D01*
X020462Y016498D01*
X020481Y016464D01*
X020496Y016428D01*
X020508Y016390D01*
X020516Y016352D01*
X020520Y016313D01*
X020520Y016273D01*
X020516Y016234D01*
X020508Y016196D01*
X020496Y016158D01*
X020481Y016122D01*
X020462Y016088D01*
X020440Y016055D01*
X020415Y016025D01*
X020387Y015998D01*
X020356Y015973D01*
X020323Y015952D01*
X020288Y015934D01*
X020251Y015920D01*
X020214Y015909D01*
X020175Y015902D01*
X020136Y015899D01*
X020097Y015900D01*
X020058Y015905D01*
X020019Y015914D01*
X019982Y015926D01*
X019946Y015942D01*
X019912Y015962D01*
X019880Y015985D01*
X019851Y016011D01*
X019824Y016040D01*
X019800Y016071D01*
X019780Y016105D01*
X019763Y016140D01*
X019750Y016177D01*
X019740Y016215D01*
X019734Y016254D01*
X019732Y016293D01*
X023732Y016293D02*
X023734Y016332D01*
X023740Y016371D01*
X023750Y016409D01*
X023763Y016446D01*
X023780Y016481D01*
X023800Y016515D01*
X023824Y016546D01*
X023851Y016575D01*
X023880Y016601D01*
X023912Y016624D01*
X023946Y016644D01*
X023982Y016660D01*
X024019Y016672D01*
X024058Y016681D01*
X024097Y016686D01*
X024136Y016687D01*
X024175Y016684D01*
X024214Y016677D01*
X024251Y016666D01*
X024288Y016652D01*
X024323Y016634D01*
X024356Y016613D01*
X024387Y016588D01*
X024415Y016561D01*
X024440Y016531D01*
X024462Y016498D01*
X024481Y016464D01*
X024496Y016428D01*
X024508Y016390D01*
X024516Y016352D01*
X024520Y016313D01*
X024520Y016273D01*
X024516Y016234D01*
X024508Y016196D01*
X024496Y016158D01*
X024481Y016122D01*
X024462Y016088D01*
X024440Y016055D01*
X024415Y016025D01*
X024387Y015998D01*
X024356Y015973D01*
X024323Y015952D01*
X024288Y015934D01*
X024251Y015920D01*
X024214Y015909D01*
X024175Y015902D01*
X024136Y015899D01*
X024097Y015900D01*
X024058Y015905D01*
X024019Y015914D01*
X023982Y015926D01*
X023946Y015942D01*
X023912Y015962D01*
X023880Y015985D01*
X023851Y016011D01*
X023824Y016040D01*
X023800Y016071D01*
X023780Y016105D01*
X023763Y016140D01*
X023750Y016177D01*
X023740Y016215D01*
X023734Y016254D01*
X023732Y016293D01*
X029732Y016293D02*
X029734Y016332D01*
X029740Y016371D01*
X029750Y016409D01*
X029763Y016446D01*
X029780Y016481D01*
X029800Y016515D01*
X029824Y016546D01*
X029851Y016575D01*
X029880Y016601D01*
X029912Y016624D01*
X029946Y016644D01*
X029982Y016660D01*
X030019Y016672D01*
X030058Y016681D01*
X030097Y016686D01*
X030136Y016687D01*
X030175Y016684D01*
X030214Y016677D01*
X030251Y016666D01*
X030288Y016652D01*
X030323Y016634D01*
X030356Y016613D01*
X030387Y016588D01*
X030415Y016561D01*
X030440Y016531D01*
X030462Y016498D01*
X030481Y016464D01*
X030496Y016428D01*
X030508Y016390D01*
X030516Y016352D01*
X030520Y016313D01*
X030520Y016273D01*
X030516Y016234D01*
X030508Y016196D01*
X030496Y016158D01*
X030481Y016122D01*
X030462Y016088D01*
X030440Y016055D01*
X030415Y016025D01*
X030387Y015998D01*
X030356Y015973D01*
X030323Y015952D01*
X030288Y015934D01*
X030251Y015920D01*
X030214Y015909D01*
X030175Y015902D01*
X030136Y015899D01*
X030097Y015900D01*
X030058Y015905D01*
X030019Y015914D01*
X029982Y015926D01*
X029946Y015942D01*
X029912Y015962D01*
X029880Y015985D01*
X029851Y016011D01*
X029824Y016040D01*
X029800Y016071D01*
X029780Y016105D01*
X029763Y016140D01*
X029750Y016177D01*
X029740Y016215D01*
X029734Y016254D01*
X029732Y016293D01*
X033732Y016293D02*
X033734Y016332D01*
X033740Y016371D01*
X033750Y016409D01*
X033763Y016446D01*
X033780Y016481D01*
X033800Y016515D01*
X033824Y016546D01*
X033851Y016575D01*
X033880Y016601D01*
X033912Y016624D01*
X033946Y016644D01*
X033982Y016660D01*
X034019Y016672D01*
X034058Y016681D01*
X034097Y016686D01*
X034136Y016687D01*
X034175Y016684D01*
X034214Y016677D01*
X034251Y016666D01*
X034288Y016652D01*
X034323Y016634D01*
X034356Y016613D01*
X034387Y016588D01*
X034415Y016561D01*
X034440Y016531D01*
X034462Y016498D01*
X034481Y016464D01*
X034496Y016428D01*
X034508Y016390D01*
X034516Y016352D01*
X034520Y016313D01*
X034520Y016273D01*
X034516Y016234D01*
X034508Y016196D01*
X034496Y016158D01*
X034481Y016122D01*
X034462Y016088D01*
X034440Y016055D01*
X034415Y016025D01*
X034387Y015998D01*
X034356Y015973D01*
X034323Y015952D01*
X034288Y015934D01*
X034251Y015920D01*
X034214Y015909D01*
X034175Y015902D01*
X034136Y015899D01*
X034097Y015900D01*
X034058Y015905D01*
X034019Y015914D01*
X033982Y015926D01*
X033946Y015942D01*
X033912Y015962D01*
X033880Y015985D01*
X033851Y016011D01*
X033824Y016040D01*
X033800Y016071D01*
X033780Y016105D01*
X033763Y016140D01*
X033750Y016177D01*
X033740Y016215D01*
X033734Y016254D01*
X033732Y016293D01*
X050126Y026293D02*
X050126Y030693D01*
X039826Y035893D02*
X035426Y035893D01*
D11*
X030126Y035293D02*
X030126Y032593D01*
X028326Y032593D01*
X027826Y032593D02*
X029726Y032593D01*
X030126Y035293D02*
X023926Y035293D01*
X023926Y032593D01*
X025326Y032593D01*
X026226Y032593D01*
X037083Y029734D02*
X037083Y029500D01*
X037130Y029453D01*
X037223Y029453D01*
X037270Y029500D01*
X037270Y029734D01*
X037359Y029640D02*
X037453Y029734D01*
X037453Y029453D01*
X037546Y029453D02*
X037359Y029453D01*
X041286Y029334D02*
X041286Y029100D01*
X041332Y029053D01*
X041426Y029053D01*
X041472Y029100D01*
X041472Y029334D01*
X041562Y029287D02*
X041609Y029334D01*
X041702Y029334D01*
X041749Y029287D01*
X041749Y029240D01*
X041562Y029053D01*
X041749Y029053D01*
X040246Y026803D02*
X040248Y026826D01*
X040254Y026848D01*
X040263Y026870D01*
X040276Y026889D01*
X040291Y026906D01*
X040309Y026920D01*
X040330Y026931D01*
X040352Y026939D01*
X040374Y026943D01*
X040398Y026943D01*
X040420Y026939D01*
X040442Y026931D01*
X040463Y026920D01*
X040481Y026906D01*
X040496Y026889D01*
X040509Y026870D01*
X040518Y026848D01*
X040524Y026826D01*
X040526Y026803D01*
X040524Y026780D01*
X040518Y026758D01*
X040509Y026736D01*
X040496Y026717D01*
X040481Y026700D01*
X040463Y026686D01*
X040442Y026675D01*
X040420Y026667D01*
X040398Y026663D01*
X040374Y026663D01*
X040352Y026667D01*
X040330Y026675D01*
X040309Y026686D01*
X040291Y026700D01*
X040276Y026717D01*
X040263Y026736D01*
X040254Y026758D01*
X040248Y026780D01*
X040246Y026803D01*
X035826Y019583D02*
X035828Y019606D01*
X035834Y019628D01*
X035843Y019650D01*
X035856Y019669D01*
X035871Y019686D01*
X035889Y019700D01*
X035910Y019711D01*
X035932Y019719D01*
X035954Y019723D01*
X035978Y019723D01*
X036000Y019719D01*
X036022Y019711D01*
X036043Y019700D01*
X036061Y019686D01*
X036076Y019669D01*
X036089Y019650D01*
X036098Y019628D01*
X036104Y019606D01*
X036106Y019583D01*
X036104Y019560D01*
X036098Y019538D01*
X036089Y019516D01*
X036076Y019497D01*
X036061Y019480D01*
X036043Y019466D01*
X036022Y019455D01*
X036000Y019447D01*
X035978Y019443D01*
X035954Y019443D01*
X035932Y019447D01*
X035910Y019455D01*
X035889Y019466D01*
X035871Y019480D01*
X035856Y019497D01*
X035843Y019516D01*
X035834Y019538D01*
X035828Y019560D01*
X035826Y019583D01*
X045736Y018584D02*
X045876Y018584D01*
X045922Y018537D01*
X045922Y018443D01*
X045876Y018397D01*
X045736Y018397D01*
X045736Y018303D02*
X045736Y018584D01*
X046012Y018584D02*
X046012Y018303D01*
X045966Y018180D02*
X045966Y018134D01*
X045966Y018040D02*
X045966Y017853D01*
X045920Y017853D02*
X046013Y017853D01*
X046104Y017853D02*
X046197Y017853D01*
X046151Y017853D02*
X046151Y018134D01*
X046104Y018134D01*
X045966Y018040D02*
X045920Y018040D01*
X045829Y017993D02*
X045736Y017993D01*
X045782Y018087D02*
X045829Y018134D01*
X045782Y018087D02*
X045782Y017853D01*
X046288Y018040D02*
X046381Y018040D01*
X046335Y018087D02*
X046335Y017900D01*
X046381Y017853D01*
X046472Y017900D02*
X046472Y017993D01*
X046519Y018040D01*
X046612Y018040D01*
X046659Y017993D01*
X046659Y017947D01*
X046472Y017947D01*
X046472Y017900D02*
X046519Y017853D01*
X046612Y017853D01*
X046748Y017853D02*
X046748Y018040D01*
X046748Y017947D02*
X046842Y018040D01*
X046889Y018040D01*
X046887Y018303D02*
X046841Y018350D01*
X046841Y018443D01*
X046887Y018490D01*
X046981Y018490D01*
X047027Y018443D01*
X047027Y018397D01*
X046841Y018397D01*
X046751Y018350D02*
X046704Y018397D01*
X046611Y018397D01*
X046564Y018443D01*
X046611Y018490D01*
X046751Y018490D01*
X046751Y018350D02*
X046704Y018303D01*
X046564Y018303D01*
X046475Y018303D02*
X046335Y018303D01*
X046288Y018350D01*
X046335Y018397D01*
X046475Y018397D01*
X046475Y018443D02*
X046475Y018303D01*
X046475Y018443D02*
X046428Y018490D01*
X046335Y018490D01*
X046199Y018443D02*
X046199Y018303D01*
X046199Y018443D02*
X046152Y018490D01*
X046059Y018490D01*
X046012Y018443D01*
X046887Y018303D02*
X046981Y018303D01*
X047393Y018350D02*
X047440Y018397D01*
X047580Y018397D01*
X047580Y018443D02*
X047580Y018303D01*
X047440Y018303D01*
X047393Y018350D01*
X047440Y018490D02*
X047533Y018490D01*
X047580Y018443D01*
X047669Y018443D02*
X047716Y018490D01*
X047856Y018490D01*
X047945Y018490D02*
X048039Y018303D01*
X048132Y018490D01*
X048268Y018490D02*
X048362Y018490D01*
X048409Y018443D01*
X048409Y018303D01*
X048268Y018303D01*
X048222Y018350D01*
X048268Y018397D01*
X048409Y018397D01*
X048498Y018490D02*
X048638Y018490D01*
X048685Y018443D01*
X048685Y018303D01*
X048774Y018350D02*
X048821Y018303D01*
X048961Y018303D01*
X049050Y018350D02*
X049050Y018443D01*
X049097Y018490D01*
X049191Y018490D01*
X049237Y018443D01*
X049237Y018397D01*
X049050Y018397D01*
X049050Y018350D02*
X049097Y018303D01*
X049191Y018303D01*
X048961Y018490D02*
X048821Y018490D01*
X048774Y018443D01*
X048774Y018350D01*
X048498Y018303D02*
X048498Y018490D01*
X047856Y018584D02*
X047856Y018303D01*
X047716Y018303D01*
X047669Y018350D01*
X047669Y018443D01*
X046656Y034003D02*
X046469Y034003D01*
X046656Y034190D01*
X046656Y034237D01*
X046609Y034284D01*
X046516Y034284D01*
X046469Y034237D01*
X046517Y034360D02*
X046563Y034360D01*
X046610Y034407D01*
X046610Y034640D01*
X046470Y034640D01*
X046423Y034593D01*
X046423Y034500D01*
X046470Y034453D01*
X046610Y034453D01*
X046699Y034453D02*
X046793Y034453D01*
X046746Y034453D02*
X046746Y034640D01*
X046699Y034640D01*
X046746Y034734D02*
X046746Y034780D01*
X046700Y034903D02*
X046653Y034950D01*
X046700Y034997D01*
X046840Y034997D01*
X046840Y035043D02*
X046840Y034903D01*
X046700Y034903D01*
X046563Y034903D02*
X046516Y034950D01*
X046516Y035137D01*
X046469Y035090D02*
X046563Y035090D01*
X046700Y035090D02*
X046794Y035090D01*
X046840Y035043D01*
X046930Y035090D02*
X047023Y035090D01*
X046976Y035137D02*
X046976Y034950D01*
X047023Y034903D01*
X047114Y034903D02*
X047207Y034903D01*
X047160Y034903D02*
X047160Y035090D01*
X047114Y035090D01*
X047160Y035184D02*
X047160Y035230D01*
X047345Y035090D02*
X047298Y035043D01*
X047298Y034950D01*
X047345Y034903D01*
X047438Y034903D01*
X047485Y034950D01*
X047485Y035043D01*
X047438Y035090D01*
X047345Y035090D01*
X047574Y035090D02*
X047574Y034903D01*
X047761Y034903D02*
X047761Y035043D01*
X047714Y035090D01*
X047574Y035090D01*
X047850Y035090D02*
X047850Y035043D01*
X047897Y035043D01*
X047897Y035090D01*
X047850Y035090D01*
X047850Y034950D02*
X047850Y034903D01*
X047897Y034903D01*
X047897Y034950D01*
X047850Y034950D01*
X047853Y034734D02*
X047666Y034453D01*
X047577Y034500D02*
X047577Y034593D01*
X047530Y034640D01*
X047437Y034640D01*
X047390Y034593D01*
X047390Y034500D01*
X047437Y034453D01*
X047530Y034453D01*
X047577Y034500D01*
X047299Y034453D02*
X047206Y034453D01*
X047253Y034453D02*
X047253Y034640D01*
X047206Y034640D01*
X047253Y034734D02*
X047253Y034780D01*
X046977Y034640D02*
X046884Y034640D01*
X046930Y034687D02*
X046930Y034500D01*
X046977Y034453D01*
X047068Y034453D02*
X047114Y034453D01*
X047114Y034500D01*
X047068Y034500D01*
X047068Y034453D01*
X047942Y034640D02*
X048036Y034453D01*
X048129Y034640D01*
X048265Y034640D02*
X048359Y034640D01*
X048406Y034593D01*
X048406Y034453D01*
X048265Y034453D01*
X048219Y034500D01*
X048265Y034547D01*
X048406Y034547D01*
X048495Y034500D02*
X048542Y034453D01*
X048635Y034453D01*
X048682Y034500D01*
X048682Y034734D01*
X048771Y034734D02*
X048865Y034640D01*
X048958Y034734D01*
X048958Y034453D01*
X049047Y034453D02*
X049188Y034453D01*
X049234Y034500D01*
X049234Y034593D01*
X049188Y034640D01*
X049047Y034640D01*
X049047Y034734D02*
X049047Y034453D01*
X048771Y034453D02*
X048771Y034734D01*
X048495Y034734D02*
X048495Y034500D01*
X046380Y034903D02*
X046380Y035043D01*
X046333Y035090D01*
X046193Y035090D01*
X046193Y034903D01*
X046104Y034997D02*
X045917Y034997D01*
X045917Y035043D02*
X045963Y035090D01*
X046057Y035090D01*
X046104Y035043D01*
X046104Y034997D01*
X046057Y034903D02*
X045963Y034903D01*
X045917Y034950D01*
X045917Y035043D01*
X045827Y035043D02*
X045827Y034903D01*
X045734Y034903D02*
X045734Y035043D01*
X045781Y035090D01*
X045827Y035043D01*
X045734Y035043D02*
X045687Y035090D01*
X045641Y035090D01*
X045641Y034903D01*
X045551Y034903D02*
X045551Y035090D01*
X045551Y034903D02*
X045411Y034903D01*
X045364Y034950D01*
X045364Y035090D01*
X045275Y035090D02*
X045135Y035090D01*
X045088Y035043D01*
X045088Y034950D01*
X045135Y034903D01*
X045275Y034903D01*
X045320Y034640D02*
X045367Y034593D01*
X045367Y034500D01*
X045320Y034453D01*
X045180Y034453D01*
X045089Y034453D02*
X045043Y034500D01*
X045043Y034687D01*
X045089Y034640D02*
X044996Y034640D01*
X044905Y034640D02*
X044812Y034640D01*
X044859Y034687D02*
X044859Y034500D01*
X044905Y034453D01*
X044722Y034453D02*
X044722Y034593D01*
X044676Y034640D01*
X044582Y034640D01*
X044536Y034593D01*
X044536Y034453D02*
X044536Y034734D01*
X044536Y034903D02*
X044676Y034903D01*
X044722Y034950D01*
X044722Y035137D01*
X044676Y035184D01*
X044536Y035184D01*
X044536Y034903D01*
X044812Y034950D02*
X044812Y035043D01*
X044859Y035090D01*
X044952Y035090D01*
X044999Y035043D01*
X044999Y034950D01*
X044952Y034903D01*
X044859Y034903D01*
X044812Y034950D01*
X045180Y034640D02*
X045320Y034640D01*
X045180Y034640D02*
X045180Y034360D01*
X045135Y034190D02*
X045088Y034143D01*
X045088Y034050D01*
X045135Y034003D01*
X045275Y034003D01*
X045275Y033957D02*
X045275Y034190D01*
X045135Y034190D01*
X044999Y034143D02*
X044952Y034190D01*
X044859Y034190D01*
X044859Y034097D02*
X044999Y034097D01*
X044999Y034143D02*
X044999Y034003D01*
X044859Y034003D01*
X044812Y034050D01*
X044859Y034097D01*
X044722Y034284D02*
X044536Y034284D01*
X044629Y034284D02*
X044629Y034003D01*
X045181Y033910D02*
X045228Y033910D01*
X045275Y033957D01*
X045364Y034003D02*
X045364Y034050D01*
X045411Y034050D01*
X045411Y034003D01*
X045364Y034003D01*
X045364Y034143D02*
X045364Y034190D01*
X045411Y034190D01*
X045411Y034143D01*
X045364Y034143D01*
X045456Y034453D02*
X045596Y034453D01*
X045643Y034500D01*
X045596Y034547D01*
X045503Y034547D01*
X045456Y034593D01*
X045503Y034640D01*
X045643Y034640D01*
X045733Y034640D02*
X045733Y034593D01*
X045779Y034593D01*
X045779Y034640D01*
X045733Y034640D01*
X045733Y034500D02*
X045733Y034453D01*
X045779Y034453D01*
X045779Y034500D01*
X045733Y034500D01*
X045871Y034453D02*
X046058Y034734D01*
X046334Y034734D02*
X046147Y034453D01*
X046148Y034284D02*
X046148Y034003D01*
X046055Y034003D02*
X046242Y034003D01*
X046331Y034003D02*
X046378Y034003D01*
X046378Y034050D01*
X046331Y034050D01*
X046331Y034003D01*
X046055Y034190D02*
X046148Y034284D01*
X045965Y034190D02*
X045872Y034003D01*
X045779Y034190D01*
X022376Y021383D02*
X022378Y021406D01*
X022384Y021428D01*
X022393Y021450D01*
X022406Y021469D01*
X022421Y021486D01*
X022439Y021500D01*
X022460Y021511D01*
X022482Y021519D01*
X022504Y021523D01*
X022528Y021523D01*
X022550Y021519D01*
X022572Y021511D01*
X022593Y021500D01*
X022611Y021486D01*
X022626Y021469D01*
X022639Y021450D01*
X022648Y021428D01*
X022654Y021406D01*
X022656Y021383D01*
X022654Y021360D01*
X022648Y021338D01*
X022639Y021316D01*
X022626Y021297D01*
X022611Y021280D01*
X022593Y021266D01*
X022572Y021255D01*
X022550Y021247D01*
X022528Y021243D01*
X022504Y021243D01*
X022482Y021247D01*
X022460Y021255D01*
X022439Y021266D01*
X022421Y021280D01*
X022406Y021297D01*
X022393Y021316D01*
X022384Y021338D01*
X022378Y021360D01*
X022376Y021383D01*
X002096Y019853D02*
X002098Y019876D01*
X002104Y019898D01*
X002113Y019920D01*
X002126Y019939D01*
X002141Y019956D01*
X002159Y019970D01*
X002180Y019981D01*
X002202Y019989D01*
X002224Y019993D01*
X002248Y019993D01*
X002270Y019989D01*
X002292Y019981D01*
X002313Y019970D01*
X002331Y019956D01*
X002346Y019939D01*
X002359Y019920D01*
X002368Y019898D01*
X002374Y019876D01*
X002376Y019853D01*
X002374Y019830D01*
X002368Y019808D01*
X002359Y019786D01*
X002346Y019767D01*
X002331Y019750D01*
X002313Y019736D01*
X002292Y019725D01*
X002270Y019717D01*
X002248Y019713D01*
X002224Y019713D01*
X002202Y019717D01*
X002180Y019725D01*
X002159Y019736D01*
X002141Y019750D01*
X002126Y019767D01*
X002113Y019786D01*
X002104Y019808D01*
X002098Y019830D01*
X002096Y019853D01*
D12*
X004490Y017900D02*
X004544Y017793D01*
X004650Y017686D01*
X004650Y017846D01*
X004704Y017900D01*
X004757Y017900D01*
X004811Y017846D01*
X004811Y017739D01*
X004757Y017686D01*
X004650Y017686D01*
X004811Y017577D02*
X004811Y017364D01*
X004811Y017471D02*
X004490Y017471D01*
X004597Y017364D01*
X004544Y017255D02*
X004650Y017255D01*
X004704Y017202D01*
X004704Y017041D01*
X004811Y017041D02*
X004490Y017041D01*
X004490Y017202D01*
X004544Y017255D01*
X004544Y016933D02*
X004650Y016933D01*
X004704Y016879D01*
X004704Y016719D01*
X004811Y016719D02*
X004490Y016719D01*
X004490Y016879D01*
X004544Y016933D01*
X004704Y016826D02*
X004811Y016933D01*
X003632Y016958D02*
X003418Y016958D01*
X003632Y017172D01*
X003632Y017225D01*
X003578Y017279D01*
X003472Y017279D01*
X003418Y017225D01*
X003310Y017225D02*
X003256Y017279D01*
X003149Y017279D01*
X003096Y017225D01*
X002987Y017225D02*
X002987Y017118D01*
X002934Y017065D01*
X002774Y017065D01*
X002774Y016958D02*
X002774Y017279D01*
X002934Y017279D01*
X002987Y017225D01*
X003096Y016958D02*
X003310Y017172D01*
X003310Y017225D01*
X003310Y016958D02*
X003096Y016958D01*
X002665Y016958D02*
X002558Y017065D01*
X002612Y017065D02*
X002451Y017065D01*
X002451Y016958D02*
X002451Y017279D01*
X002612Y017279D01*
X002665Y017225D01*
X002665Y017118D01*
X002612Y017065D01*
X001578Y016133D02*
X001525Y016133D01*
X001311Y016346D01*
X001258Y016346D01*
X001258Y016133D01*
X001311Y016024D02*
X001364Y016024D01*
X001418Y015971D01*
X001471Y016024D01*
X001525Y016024D01*
X001578Y015971D01*
X001578Y015864D01*
X001525Y015811D01*
X001525Y015702D02*
X001578Y015648D01*
X001578Y015542D01*
X001525Y015488D01*
X001311Y015488D01*
X001258Y015542D01*
X001258Y015648D01*
X001311Y015702D01*
X001311Y015811D02*
X001258Y015864D01*
X001258Y015971D01*
X001311Y016024D01*
X001418Y015971D02*
X001418Y015917D01*
X001078Y015921D02*
X001078Y015814D01*
X001025Y015761D01*
X001025Y015652D02*
X001078Y015598D01*
X001078Y015492D01*
X001025Y015438D01*
X000811Y015438D01*
X000758Y015492D01*
X000758Y015598D01*
X000811Y015652D01*
X000811Y015761D02*
X000758Y015814D01*
X000758Y015921D01*
X000811Y015974D01*
X000864Y015974D01*
X000918Y015921D01*
X000971Y015974D01*
X001025Y015974D01*
X001078Y015921D01*
X000918Y015921D02*
X000918Y015867D01*
X000918Y016083D02*
X000918Y016243D01*
X000971Y016296D01*
X001025Y016296D01*
X001078Y016243D01*
X001078Y016136D01*
X001025Y016083D01*
X000918Y016083D01*
X000811Y016190D01*
X000758Y016296D01*
X001091Y014579D02*
X001197Y014579D01*
X001144Y014579D02*
X001144Y014258D01*
X001091Y014258D02*
X001197Y014258D01*
X001305Y014258D02*
X001305Y014472D01*
X001466Y014472D01*
X001519Y014418D01*
X001519Y014258D01*
X001681Y014312D02*
X001734Y014258D01*
X001681Y014312D02*
X001681Y014525D01*
X001628Y014472D02*
X001734Y014472D01*
X001843Y014418D02*
X001896Y014472D01*
X002003Y014472D01*
X002056Y014418D01*
X002056Y014365D01*
X001843Y014365D01*
X001843Y014312D02*
X001843Y014418D01*
X001843Y014312D02*
X001896Y014258D01*
X002003Y014258D01*
X002165Y014312D02*
X002218Y014258D01*
X002378Y014258D01*
X002378Y014205D02*
X002378Y014472D01*
X002218Y014472D01*
X002165Y014418D01*
X002165Y014312D01*
X002272Y014152D02*
X002325Y014152D01*
X002378Y014205D01*
X002487Y014258D02*
X002487Y014472D01*
X002594Y014472D02*
X002647Y014472D01*
X002594Y014472D02*
X002487Y014365D01*
X002756Y014312D02*
X002809Y014258D01*
X002969Y014258D01*
X002969Y014418D01*
X002916Y014472D01*
X002809Y014472D01*
X002809Y014365D02*
X002969Y014365D01*
X003078Y014472D02*
X003185Y014472D01*
X003131Y014525D02*
X003131Y014312D01*
X003185Y014258D01*
X003293Y014312D02*
X003346Y014258D01*
X003453Y014258D01*
X003506Y014312D01*
X003506Y014418D01*
X003453Y014472D01*
X003346Y014472D01*
X003293Y014418D01*
X003293Y014312D01*
X003615Y014365D02*
X003722Y014472D01*
X003775Y014472D01*
X003615Y014472D02*
X003615Y014258D01*
X004206Y014258D02*
X004206Y014579D01*
X004366Y014579D01*
X004419Y014525D01*
X004419Y014418D01*
X004366Y014365D01*
X004206Y014365D01*
X004313Y014365D02*
X004419Y014258D01*
X004528Y014312D02*
X004582Y014258D01*
X004688Y014258D01*
X004742Y014365D02*
X004528Y014365D01*
X004528Y014312D02*
X004528Y014418D01*
X004582Y014472D01*
X004688Y014472D01*
X004742Y014418D01*
X004742Y014365D01*
X004850Y014418D02*
X004904Y014472D01*
X005064Y014472D01*
X005011Y014365D02*
X004904Y014365D01*
X004850Y014418D01*
X004850Y014258D02*
X005011Y014258D01*
X005064Y014312D01*
X005011Y014365D01*
X005173Y014365D02*
X005386Y014365D01*
X005386Y014418D01*
X005333Y014472D01*
X005226Y014472D01*
X005173Y014418D01*
X005173Y014312D01*
X005226Y014258D01*
X005333Y014258D01*
X005548Y014312D02*
X005602Y014258D01*
X005548Y014312D02*
X005548Y014525D01*
X005495Y014472D02*
X005602Y014472D01*
X002809Y014365D02*
X002756Y014312D01*
X009609Y019308D02*
X009609Y019629D01*
X009769Y019629D01*
X009822Y019575D01*
X009822Y019468D01*
X009769Y019415D01*
X009609Y019415D01*
X009931Y019308D02*
X010038Y019308D01*
X009985Y019308D02*
X009985Y019629D01*
X010038Y019629D02*
X009931Y019629D01*
X010146Y019629D02*
X010146Y019308D01*
X010360Y019308D01*
X010468Y019308D02*
X010682Y019308D01*
X010468Y019308D02*
X010468Y019362D01*
X010682Y019575D01*
X010682Y019629D01*
X010468Y019629D01*
X010360Y019629D02*
X010146Y019629D01*
X010146Y019468D02*
X010253Y019468D01*
X006652Y020079D02*
X006598Y020026D01*
X006492Y020026D01*
X006438Y020079D01*
X006438Y020186D02*
X006545Y020239D01*
X006598Y020239D01*
X006652Y020186D01*
X006652Y020079D01*
X006438Y020186D02*
X006438Y020346D01*
X006652Y020346D01*
X006330Y020293D02*
X006330Y020239D01*
X006276Y020186D01*
X006330Y020132D01*
X006330Y020079D01*
X006276Y020026D01*
X006169Y020026D01*
X006116Y020079D01*
X006007Y020079D02*
X005954Y020026D01*
X005847Y020026D01*
X005794Y020079D01*
X005794Y020293D01*
X005847Y020346D01*
X005954Y020346D01*
X006007Y020293D01*
X006116Y020293D02*
X006169Y020346D01*
X006276Y020346D01*
X006330Y020293D01*
X006276Y020186D02*
X006223Y020186D01*
X006176Y019896D02*
X006230Y019843D01*
X006230Y019789D01*
X006176Y019736D01*
X006230Y019682D01*
X006230Y019629D01*
X006176Y019576D01*
X006069Y019576D01*
X006016Y019629D01*
X005907Y019629D02*
X005854Y019576D01*
X005747Y019576D01*
X005694Y019629D01*
X005694Y019843D01*
X005747Y019896D01*
X005854Y019896D01*
X005907Y019843D01*
X006016Y019843D02*
X006069Y019896D01*
X006176Y019896D01*
X006176Y019736D02*
X006123Y019736D01*
X006338Y019736D02*
X006552Y019736D01*
X006498Y019576D02*
X006498Y019896D01*
X006338Y019736D01*
X003829Y022491D02*
X003615Y022491D01*
X003829Y022704D01*
X003829Y022758D01*
X003775Y022811D01*
X003669Y022811D01*
X003615Y022758D01*
X003506Y022758D02*
X003453Y022811D01*
X003346Y022811D01*
X003293Y022758D01*
X003184Y022758D02*
X003131Y022811D01*
X003024Y022811D01*
X002971Y022758D01*
X002971Y022544D01*
X003024Y022491D01*
X003131Y022491D01*
X003184Y022544D01*
X003293Y022491D02*
X003506Y022704D01*
X003506Y022758D01*
X003506Y022991D02*
X003293Y022991D01*
X003506Y023204D01*
X003506Y023258D01*
X003453Y023311D01*
X003346Y023311D01*
X003293Y023258D01*
X003184Y023258D02*
X003131Y023311D01*
X003024Y023311D01*
X002971Y023258D01*
X002971Y023044D01*
X003024Y022991D01*
X003131Y022991D01*
X003184Y023044D01*
X003615Y023044D02*
X003669Y022991D01*
X003775Y022991D01*
X003829Y023044D01*
X003829Y023098D01*
X003775Y023151D01*
X003722Y023151D01*
X003775Y023151D02*
X003829Y023204D01*
X003829Y023258D01*
X003775Y023311D01*
X003669Y023311D01*
X003615Y023258D01*
X003506Y022491D02*
X003293Y022491D01*
X004344Y024408D02*
X004290Y024462D01*
X004290Y024568D01*
X004344Y024622D01*
X004344Y024731D02*
X004290Y024784D01*
X004290Y024891D01*
X004344Y024944D01*
X004397Y024944D01*
X004450Y024891D01*
X004504Y024944D01*
X004557Y024944D01*
X004611Y024891D01*
X004611Y024784D01*
X004557Y024731D01*
X004557Y024622D02*
X004611Y024568D01*
X004611Y024462D01*
X004557Y024408D01*
X004344Y024408D01*
X004450Y024837D02*
X004450Y024891D01*
X004397Y025053D02*
X004290Y025160D01*
X004611Y025160D01*
X004611Y025266D02*
X004611Y025053D01*
X004649Y026408D02*
X004435Y026408D01*
X004542Y026408D02*
X004542Y026729D01*
X004435Y026622D01*
X004326Y026408D02*
X004113Y026408D01*
X004220Y026408D02*
X004220Y026729D01*
X004113Y026622D01*
X004004Y026675D02*
X004004Y026568D01*
X003951Y026515D01*
X003791Y026515D01*
X003897Y026515D02*
X004004Y026408D01*
X003791Y026408D02*
X003791Y026729D01*
X003951Y026729D01*
X004004Y026675D01*
X003876Y027558D02*
X003663Y027558D01*
X003770Y027558D02*
X003770Y027879D01*
X003663Y027772D01*
X003554Y027879D02*
X003341Y027665D01*
X003394Y027718D02*
X003554Y027558D01*
X003341Y027558D02*
X003341Y027879D01*
X003399Y028858D02*
X003399Y029018D01*
X003345Y029072D01*
X003185Y029072D01*
X003185Y028858D01*
X003076Y028912D02*
X003076Y029018D01*
X003023Y029072D01*
X002916Y029072D01*
X002863Y029018D01*
X002863Y028912D01*
X002916Y028858D01*
X003023Y028858D01*
X003076Y028912D01*
X002754Y028858D02*
X002754Y029179D01*
X002541Y029179D02*
X002541Y028858D01*
X002754Y028858D02*
X002541Y029179D01*
X002248Y029072D02*
X002141Y029072D01*
X002194Y029125D02*
X002194Y028912D01*
X002248Y028858D01*
X002032Y029072D02*
X001979Y029072D01*
X001872Y028965D01*
X001872Y028858D02*
X001872Y029072D01*
X001764Y029018D02*
X001764Y028965D01*
X001550Y028965D01*
X001550Y028912D02*
X001550Y029018D01*
X001603Y029072D01*
X001710Y029072D01*
X001764Y029018D01*
X001710Y028858D02*
X001603Y028858D01*
X001550Y028912D01*
X001441Y029072D02*
X001334Y028858D01*
X001228Y029072D01*
X001119Y029018D02*
X001119Y028858D01*
X001119Y029018D02*
X001066Y029072D01*
X000905Y029072D01*
X000905Y028858D01*
X000797Y028858D02*
X000691Y028858D01*
X000744Y028858D02*
X000744Y029179D01*
X000691Y029179D02*
X000797Y029179D01*
X000747Y030958D02*
X000854Y031172D01*
X000963Y031172D02*
X001070Y031279D01*
X001070Y030958D01*
X001176Y030958D02*
X000963Y030958D01*
X000747Y030958D02*
X000641Y031172D01*
X000641Y031483D02*
X000801Y031483D01*
X000854Y031537D01*
X000854Y031590D01*
X000801Y031643D01*
X000641Y031643D01*
X000641Y031483D02*
X000641Y031804D01*
X000801Y031804D01*
X000854Y031750D01*
X000854Y031697D01*
X000801Y031643D01*
X000963Y031643D02*
X001016Y031697D01*
X001123Y031697D01*
X001176Y031643D01*
X001176Y031590D01*
X000963Y031590D01*
X000963Y031537D02*
X000963Y031643D01*
X000963Y031537D02*
X001016Y031483D01*
X001123Y031483D01*
X001285Y031537D02*
X001339Y031590D01*
X001499Y031590D01*
X001499Y031643D02*
X001499Y031483D01*
X001339Y031483D01*
X001285Y031537D01*
X001339Y031697D02*
X001445Y031697D01*
X001499Y031643D01*
X001607Y031697D02*
X001714Y031697D01*
X001661Y031750D02*
X001661Y031537D01*
X001714Y031483D01*
X001822Y031483D02*
X001822Y031697D01*
X001982Y031697D01*
X002036Y031643D01*
X002036Y031483D01*
X002145Y031537D02*
X002198Y031483D01*
X002305Y031483D01*
X002358Y031537D01*
X002358Y031643D01*
X002305Y031697D01*
X002198Y031697D01*
X002145Y031643D01*
X002145Y031537D01*
X002304Y031279D02*
X002091Y030958D01*
X001660Y030958D02*
X001446Y030958D01*
X001660Y031172D01*
X001660Y031225D01*
X001606Y031279D01*
X001500Y031279D01*
X001446Y031225D01*
X001339Y031012D02*
X001339Y030958D01*
X001285Y030958D01*
X001285Y031012D01*
X001339Y031012D01*
X002520Y031537D02*
X002574Y031483D01*
X002520Y031537D02*
X002520Y031750D01*
X002467Y031697D02*
X002574Y031697D01*
X002682Y031643D02*
X002735Y031697D01*
X002842Y031697D01*
X002895Y031643D01*
X002895Y031590D01*
X002682Y031590D01*
X002682Y031537D02*
X002682Y031643D01*
X002682Y031537D02*
X002735Y031483D01*
X002842Y031483D01*
X002735Y031279D02*
X002949Y030958D01*
X002949Y031279D01*
X003058Y031225D02*
X003058Y031012D01*
X003111Y030958D01*
X003218Y030958D01*
X003271Y031012D01*
X003380Y031065D02*
X003540Y031065D01*
X003593Y031118D01*
X003593Y031225D01*
X003540Y031279D01*
X003380Y031279D01*
X003380Y030958D01*
X003271Y031225D02*
X003218Y031279D01*
X003111Y031279D01*
X003058Y031225D01*
X002735Y031279D02*
X002735Y030958D01*
X003326Y031483D02*
X003326Y031804D01*
X003486Y031804D01*
X003540Y031750D01*
X003540Y031643D01*
X003486Y031590D01*
X003326Y031590D01*
X003648Y031483D02*
X003862Y031483D01*
X003971Y031483D02*
X004184Y031483D01*
X004185Y031279D02*
X004078Y031279D01*
X004024Y031225D01*
X004185Y031279D02*
X004238Y031225D01*
X004238Y031172D01*
X004024Y030958D01*
X004238Y030958D01*
X004347Y031012D02*
X004560Y031225D01*
X004560Y031012D01*
X004507Y030958D01*
X004400Y030958D01*
X004347Y031012D01*
X004347Y031225D01*
X004400Y031279D01*
X004507Y031279D01*
X004560Y031225D01*
X004669Y031172D02*
X004776Y031279D01*
X004776Y030958D01*
X004669Y030958D02*
X004883Y030958D01*
X004991Y031012D02*
X005045Y030958D01*
X005151Y030958D01*
X005205Y031012D01*
X005205Y031065D01*
X005151Y031118D01*
X004991Y031118D01*
X004991Y031012D01*
X004991Y031118D02*
X005098Y031225D01*
X005205Y031279D01*
X003971Y031483D02*
X003971Y031804D01*
X003648Y031804D02*
X003648Y031483D01*
X005441Y029929D02*
X005626Y029929D01*
X005687Y029867D01*
X005687Y029743D01*
X005626Y029682D01*
X005441Y029682D01*
X005441Y029558D02*
X005441Y029929D01*
X005809Y029805D02*
X005871Y029805D01*
X005871Y029558D01*
X005932Y029558D02*
X005809Y029558D01*
X006054Y029620D02*
X006054Y029743D01*
X006116Y029805D01*
X006240Y029805D01*
X006301Y029743D01*
X006301Y029682D01*
X006054Y029682D01*
X006054Y029620D02*
X006116Y029558D01*
X006240Y029558D01*
X006423Y029558D02*
X006670Y029558D01*
X006791Y029620D02*
X006853Y029558D01*
X006976Y029558D01*
X007038Y029620D01*
X007038Y029743D01*
X006976Y029805D01*
X006853Y029805D01*
X006791Y029743D01*
X006791Y029620D01*
X006670Y029805D02*
X006423Y029558D01*
X006423Y029805D02*
X006670Y029805D01*
X007528Y029682D02*
X007713Y029682D01*
X007775Y029743D01*
X007775Y029867D01*
X007713Y029929D01*
X007528Y029929D01*
X007528Y029558D01*
X007896Y029620D02*
X007958Y029558D01*
X008081Y029558D01*
X008143Y029620D01*
X008143Y029743D01*
X008081Y029805D01*
X007958Y029805D01*
X007896Y029743D01*
X007896Y029620D01*
X008264Y029558D02*
X008388Y029558D01*
X008326Y029558D02*
X008326Y029929D01*
X008264Y029929D01*
X005871Y029990D02*
X005871Y029929D01*
X005333Y029125D02*
X005333Y028912D01*
X005387Y028858D01*
X005387Y029072D02*
X005280Y029072D01*
X005172Y029072D02*
X005118Y029072D01*
X005011Y028965D01*
X005011Y028858D02*
X005011Y029072D01*
X004903Y029018D02*
X004903Y028965D01*
X004689Y028965D01*
X004689Y028912D02*
X004689Y029018D01*
X004742Y029072D01*
X004849Y029072D01*
X004903Y029018D01*
X004849Y028858D02*
X004742Y028858D01*
X004689Y028912D01*
X004580Y029072D02*
X004474Y028858D01*
X004367Y029072D01*
X004258Y029018D02*
X004258Y028858D01*
X004258Y029018D02*
X004205Y029072D01*
X004045Y029072D01*
X004045Y028858D01*
X003936Y028858D02*
X003830Y028858D01*
X003883Y028858D02*
X003883Y029072D01*
X003830Y029072D01*
X003883Y029179D02*
X003883Y029232D01*
X003721Y029018D02*
X003507Y029018D01*
X006290Y026496D02*
X006344Y026550D01*
X006397Y026550D01*
X006450Y026496D01*
X006504Y026550D01*
X006557Y026550D01*
X006611Y026496D01*
X006611Y026389D01*
X006557Y026336D01*
X006611Y026227D02*
X006611Y026014D01*
X006611Y026121D02*
X006290Y026121D01*
X006397Y026014D01*
X006344Y025905D02*
X006450Y025905D01*
X006504Y025852D01*
X006504Y025691D01*
X006611Y025691D02*
X006290Y025691D01*
X006290Y025852D01*
X006344Y025905D01*
X006344Y025583D02*
X006450Y025583D01*
X006504Y025529D01*
X006504Y025369D01*
X006611Y025369D02*
X006290Y025369D01*
X006290Y025529D01*
X006344Y025583D01*
X006504Y025476D02*
X006611Y025583D01*
X006344Y026336D02*
X006290Y026389D01*
X006290Y026496D01*
X006450Y026496D02*
X006450Y026443D01*
X008090Y026400D02*
X008090Y026186D01*
X008250Y026186D01*
X008197Y026293D01*
X008197Y026346D01*
X008250Y026400D01*
X008357Y026400D01*
X008411Y026346D01*
X008411Y026239D01*
X008357Y026186D01*
X008411Y026077D02*
X008411Y025864D01*
X008411Y025971D02*
X008090Y025971D01*
X008197Y025864D01*
X008144Y025755D02*
X008090Y025702D01*
X008090Y025541D01*
X008411Y025541D01*
X008304Y025541D02*
X008304Y025702D01*
X008250Y025755D01*
X008144Y025755D01*
X008144Y025433D02*
X008090Y025379D01*
X008090Y025219D01*
X008411Y025219D01*
X008304Y025219D02*
X008304Y025379D01*
X008250Y025433D01*
X008144Y025433D01*
X008304Y025326D02*
X008411Y025433D01*
X011401Y024279D02*
X011401Y023958D01*
X011441Y023879D02*
X011601Y023879D01*
X011654Y023825D01*
X011654Y023718D01*
X011601Y023665D01*
X011441Y023665D01*
X011547Y023665D02*
X011654Y023558D01*
X011763Y023558D02*
X011763Y023879D01*
X011923Y023879D01*
X011976Y023825D01*
X011976Y023718D01*
X011923Y023665D01*
X011763Y023665D01*
X011724Y023958D02*
X011724Y024279D01*
X011884Y024279D01*
X011937Y024225D01*
X011937Y024118D01*
X011884Y024065D01*
X011724Y024065D01*
X011615Y024118D02*
X011562Y024065D01*
X011401Y024065D01*
X011508Y024065D02*
X011615Y023958D01*
X011615Y024118D02*
X011615Y024225D01*
X011562Y024279D01*
X011401Y024279D01*
X011441Y023879D02*
X011441Y023558D01*
X012085Y023558D02*
X012299Y023558D01*
X012192Y023558D02*
X012192Y023879D01*
X012085Y023772D01*
X012046Y023958D02*
X012260Y023958D01*
X012153Y023958D02*
X012153Y024279D01*
X012046Y024172D01*
X012368Y024225D02*
X012422Y024279D01*
X012528Y024279D01*
X012582Y024225D01*
X012582Y024172D01*
X012368Y023958D01*
X012582Y023958D01*
X012568Y023879D02*
X012621Y023825D01*
X012621Y023772D01*
X012568Y023718D01*
X012461Y023718D01*
X012407Y023772D01*
X012407Y023825D01*
X012461Y023879D01*
X012568Y023879D01*
X012568Y023718D02*
X012621Y023665D01*
X012621Y023612D01*
X012568Y023558D01*
X012461Y023558D01*
X012407Y023612D01*
X012407Y023665D01*
X012461Y023718D01*
X012404Y022946D02*
X012297Y022946D01*
X012244Y022893D01*
X012244Y022679D01*
X012297Y022626D01*
X012404Y022626D01*
X012457Y022679D01*
X012566Y022679D02*
X012619Y022626D01*
X012726Y022626D01*
X012780Y022679D01*
X012780Y022732D01*
X012726Y022786D01*
X012673Y022786D01*
X012726Y022786D02*
X012780Y022839D01*
X012780Y022893D01*
X012726Y022946D01*
X012619Y022946D01*
X012566Y022893D01*
X012457Y022893D02*
X012404Y022946D01*
X012888Y022893D02*
X012942Y022946D01*
X013048Y022946D01*
X013102Y022893D01*
X013102Y022839D01*
X013048Y022786D01*
X013102Y022732D01*
X013102Y022679D01*
X013048Y022626D01*
X012942Y022626D01*
X012888Y022679D01*
X012995Y022786D02*
X013048Y022786D01*
X012948Y022446D02*
X012842Y022446D01*
X012788Y022393D01*
X012680Y022393D02*
X012680Y022339D01*
X012626Y022286D01*
X012680Y022232D01*
X012680Y022179D01*
X012626Y022126D01*
X012519Y022126D01*
X012466Y022179D01*
X012357Y022179D02*
X012304Y022126D01*
X012197Y022126D01*
X012144Y022179D01*
X012144Y022393D01*
X012197Y022446D01*
X012304Y022446D01*
X012357Y022393D01*
X012466Y022393D02*
X012519Y022446D01*
X012626Y022446D01*
X012680Y022393D01*
X012626Y022286D02*
X012573Y022286D01*
X012788Y022126D02*
X013002Y022339D01*
X013002Y022393D01*
X012948Y022446D01*
X013002Y022126D02*
X012788Y022126D01*
X013841Y022108D02*
X013841Y022429D01*
X014001Y022429D01*
X014054Y022375D01*
X014054Y022268D01*
X014001Y022215D01*
X013841Y022215D01*
X014163Y022108D02*
X014270Y022108D01*
X014216Y022108D02*
X014216Y022322D01*
X014163Y022322D01*
X014216Y022429D02*
X014216Y022482D01*
X014378Y022268D02*
X014431Y022322D01*
X014538Y022322D01*
X014591Y022268D01*
X014591Y022215D01*
X014378Y022215D01*
X014378Y022162D02*
X014378Y022268D01*
X014378Y022162D02*
X014431Y022108D01*
X014538Y022108D01*
X014700Y022108D02*
X014914Y022322D01*
X014700Y022322D01*
X014700Y022108D02*
X014914Y022108D01*
X015345Y022162D02*
X015345Y022375D01*
X015398Y022429D01*
X015505Y022429D01*
X015558Y022375D01*
X015558Y022268D02*
X015451Y022268D01*
X015558Y022268D02*
X015558Y022162D01*
X015505Y022108D01*
X015398Y022108D01*
X015345Y022162D01*
X015667Y022162D02*
X015720Y022215D01*
X015880Y022215D01*
X015880Y022268D02*
X015880Y022108D01*
X015720Y022108D01*
X015667Y022162D01*
X015720Y022322D02*
X015827Y022322D01*
X015880Y022268D01*
X015989Y022322D02*
X016042Y022322D01*
X016042Y022108D01*
X015989Y022108D02*
X016096Y022108D01*
X016204Y022108D02*
X016204Y022322D01*
X016364Y022322D01*
X016417Y022268D01*
X016417Y022108D01*
X016526Y022108D02*
X016526Y022322D01*
X016633Y022429D01*
X016740Y022322D01*
X016740Y022108D01*
X016848Y022162D02*
X016848Y022268D01*
X016902Y022322D01*
X017062Y022322D01*
X017062Y022429D02*
X017062Y022108D01*
X016902Y022108D01*
X016848Y022162D01*
X016740Y022268D02*
X016526Y022268D01*
X016042Y022429D02*
X016042Y022482D01*
X017171Y022002D02*
X017224Y022002D01*
X017278Y022055D01*
X017278Y022322D01*
X017278Y022429D02*
X017278Y022482D01*
X019608Y020743D02*
X019661Y020796D01*
X019714Y020796D01*
X019768Y020743D01*
X019768Y020636D01*
X019714Y020583D01*
X019661Y020583D01*
X019608Y020636D01*
X019608Y020743D01*
X019768Y020743D02*
X019821Y020796D01*
X019875Y020796D01*
X019928Y020743D01*
X019928Y020636D01*
X019875Y020583D01*
X019821Y020583D01*
X019768Y020636D01*
X019714Y020474D02*
X019661Y020474D01*
X019608Y020421D01*
X019608Y020314D01*
X019661Y020261D01*
X019661Y020152D02*
X019608Y020098D01*
X019608Y019992D01*
X019661Y019938D01*
X019875Y019938D01*
X019928Y019992D01*
X019928Y020098D01*
X019875Y020152D01*
X019928Y020261D02*
X019714Y020474D01*
X019928Y020474D02*
X019928Y020261D01*
X020208Y020233D02*
X020208Y020446D01*
X020261Y020446D01*
X020475Y020233D01*
X020528Y020233D01*
X020528Y020124D02*
X020528Y019911D01*
X020314Y020124D01*
X020261Y020124D01*
X020208Y020071D01*
X020208Y019964D01*
X020261Y019911D01*
X020261Y019802D02*
X020208Y019748D01*
X020208Y019642D01*
X020261Y019588D01*
X020475Y019588D01*
X020528Y019642D01*
X020528Y019748D01*
X020475Y019802D01*
X022540Y019921D02*
X022647Y019814D01*
X022594Y019705D02*
X022700Y019705D01*
X022754Y019652D01*
X022754Y019491D01*
X022861Y019491D02*
X022540Y019491D01*
X022540Y019652D01*
X022594Y019705D01*
X022540Y019921D02*
X022861Y019921D01*
X022861Y020027D02*
X022861Y019814D01*
X022861Y020136D02*
X022807Y020136D01*
X022594Y020350D01*
X022540Y020350D01*
X022540Y020136D01*
X022594Y019383D02*
X022700Y019383D01*
X022754Y019329D01*
X022754Y019169D01*
X022861Y019169D02*
X022540Y019169D01*
X022540Y019329D01*
X022594Y019383D01*
X022754Y019276D02*
X022861Y019383D01*
X023974Y019308D02*
X024187Y019308D01*
X024296Y019308D02*
X024296Y019629D01*
X024456Y019629D01*
X024510Y019575D01*
X024510Y019468D01*
X024456Y019415D01*
X024296Y019415D01*
X024403Y019415D02*
X024510Y019308D01*
X024618Y019308D02*
X024618Y019629D01*
X024778Y019629D01*
X024832Y019575D01*
X024832Y019468D01*
X024778Y019415D01*
X024618Y019415D01*
X024725Y019415D02*
X024832Y019308D01*
X024187Y019629D02*
X023974Y019629D01*
X023974Y019308D01*
X023974Y019468D02*
X024081Y019468D01*
X024347Y023076D02*
X024454Y023076D01*
X024507Y023129D01*
X024616Y023236D02*
X024830Y023236D01*
X024938Y023289D02*
X024938Y023343D01*
X024992Y023396D01*
X025098Y023396D01*
X025152Y023343D01*
X025152Y023289D01*
X025098Y023236D01*
X024992Y023236D01*
X024938Y023289D01*
X024992Y023236D02*
X024938Y023182D01*
X024938Y023129D01*
X024992Y023076D01*
X025098Y023076D01*
X025152Y023129D01*
X025152Y023182D01*
X025098Y023236D01*
X024776Y023396D02*
X024616Y023236D01*
X024507Y023343D02*
X024454Y023396D01*
X024347Y023396D01*
X024294Y023343D01*
X024294Y023129D01*
X024347Y023076D01*
X024776Y023076D02*
X024776Y023396D01*
X024148Y024126D02*
X024202Y024179D01*
X024202Y024393D01*
X024148Y024446D01*
X024042Y024446D01*
X023988Y024393D01*
X023988Y024339D01*
X024042Y024286D01*
X024202Y024286D01*
X024148Y024126D02*
X024042Y024126D01*
X023988Y024179D01*
X023880Y024286D02*
X023666Y024286D01*
X023826Y024446D01*
X023826Y024126D01*
X023557Y024179D02*
X023504Y024126D01*
X023397Y024126D01*
X023344Y024179D01*
X023344Y024393D01*
X023397Y024446D01*
X023504Y024446D01*
X023557Y024393D01*
X022771Y023858D02*
X022557Y023858D01*
X022664Y023858D02*
X022664Y024179D01*
X022557Y024072D01*
X022449Y024072D02*
X022449Y024125D01*
X022395Y024179D01*
X022289Y024179D01*
X022235Y024125D01*
X022126Y024125D02*
X022126Y024018D01*
X022073Y023965D01*
X021913Y023965D01*
X021913Y023858D02*
X021913Y024179D01*
X022073Y024179D01*
X022126Y024125D01*
X022235Y023858D02*
X022449Y024072D01*
X022449Y023858D02*
X022235Y023858D01*
X021804Y023858D02*
X021697Y023965D01*
X021751Y023965D02*
X021591Y023965D01*
X021591Y023858D02*
X021591Y024179D01*
X021751Y024179D01*
X021804Y024125D01*
X021804Y024018D01*
X021751Y023965D01*
X025008Y024892D02*
X025061Y024838D01*
X025275Y024838D01*
X025328Y024892D01*
X025328Y024998D01*
X025275Y025052D01*
X025168Y025161D02*
X025168Y025374D01*
X025168Y025483D02*
X025168Y025643D01*
X025221Y025696D01*
X025275Y025696D01*
X025328Y025643D01*
X025328Y025536D01*
X025275Y025483D01*
X025168Y025483D01*
X025061Y025590D01*
X025008Y025696D01*
X025008Y025321D02*
X025168Y025161D01*
X025061Y025052D02*
X025008Y024998D01*
X025008Y024892D01*
X025008Y025321D02*
X025328Y025321D01*
X026108Y025492D02*
X026161Y025438D01*
X026375Y025438D01*
X026428Y025492D01*
X026428Y025598D01*
X026375Y025652D01*
X026268Y025761D02*
X026268Y025974D01*
X026268Y026083D02*
X026268Y026296D01*
X026428Y026243D02*
X026108Y026243D01*
X026268Y026083D01*
X026428Y025921D02*
X026108Y025921D01*
X026268Y025761D01*
X026161Y025652D02*
X026108Y025598D01*
X026108Y025492D01*
X026590Y026814D02*
X026590Y026974D01*
X026644Y027027D01*
X026857Y027027D01*
X026911Y026974D01*
X026911Y026814D01*
X026590Y026814D01*
X026644Y027136D02*
X026590Y027189D01*
X026590Y027296D01*
X026644Y027350D01*
X026697Y027350D01*
X026911Y027136D01*
X026911Y027350D01*
X025711Y028449D02*
X025711Y028556D01*
X025711Y028502D02*
X025390Y028502D01*
X025390Y028449D02*
X025390Y028556D01*
X025444Y028664D02*
X025657Y028664D01*
X025711Y028717D01*
X025711Y028824D01*
X025657Y028877D01*
X025657Y028986D02*
X025711Y028986D01*
X025657Y028986D02*
X025444Y029200D01*
X025390Y029200D01*
X025390Y028986D01*
X025444Y028877D02*
X025390Y028824D01*
X025390Y028717D01*
X025444Y028664D01*
X025140Y029611D02*
X025193Y029665D01*
X025193Y029772D01*
X025140Y029825D01*
X025033Y029934D02*
X025033Y030147D01*
X025140Y030256D02*
X025193Y030256D01*
X025140Y030256D02*
X024926Y030470D01*
X024873Y030470D01*
X024873Y030256D01*
X024873Y030094D02*
X025033Y029934D01*
X024926Y029825D02*
X024873Y029772D01*
X024873Y029665D01*
X024926Y029611D01*
X025140Y029611D01*
X025193Y030094D02*
X024873Y030094D01*
X025390Y031108D02*
X025497Y031215D01*
X025390Y031322D01*
X025711Y031322D01*
X025657Y031431D02*
X025711Y031484D01*
X025711Y031591D01*
X025657Y031644D01*
X025390Y031644D01*
X025390Y031753D02*
X025711Y031966D01*
X025711Y031753D02*
X025390Y031966D01*
X025390Y031431D02*
X025657Y031431D01*
X025711Y031108D02*
X025390Y031108D01*
X026390Y031408D02*
X026711Y031408D01*
X026711Y031622D01*
X026711Y031731D02*
X026711Y031944D01*
X026550Y031837D02*
X026550Y031731D01*
X026390Y031731D02*
X026711Y031731D01*
X026390Y031731D02*
X026390Y031944D01*
X027390Y031832D02*
X027497Y031725D01*
X027711Y031725D01*
X027550Y031725D02*
X027550Y031939D01*
X027497Y031939D02*
X027711Y031939D01*
X027497Y031939D02*
X027390Y031832D01*
X027390Y031616D02*
X027390Y031403D01*
X027390Y031510D02*
X027711Y031510D01*
X027711Y031294D02*
X027497Y031294D01*
X027390Y031187D01*
X027497Y031081D01*
X027711Y031081D01*
X027657Y030972D02*
X027444Y030972D01*
X027390Y030918D01*
X027390Y030758D01*
X027711Y030758D01*
X027711Y030918D01*
X027657Y030972D01*
X027550Y031081D02*
X027550Y031294D01*
X028440Y031331D02*
X028761Y031331D01*
X028761Y031544D01*
X028761Y031653D02*
X028440Y031653D01*
X028600Y031706D02*
X028761Y031866D01*
X028654Y031653D02*
X028440Y031866D01*
X028494Y031222D02*
X028440Y031168D01*
X028440Y031062D01*
X028494Y031008D01*
X028707Y031008D01*
X028761Y031062D01*
X028761Y031168D01*
X028707Y031222D01*
X029011Y030694D02*
X029011Y030481D01*
X029011Y030587D02*
X028690Y030587D01*
X028797Y030481D01*
X028744Y030372D02*
X028690Y030318D01*
X028690Y030158D01*
X029011Y030158D01*
X029011Y030318D01*
X028957Y030372D01*
X028744Y030372D01*
X029773Y030422D02*
X029773Y030315D01*
X029826Y030261D01*
X030040Y030261D01*
X030093Y030315D01*
X030093Y030422D01*
X030040Y030475D01*
X030093Y030584D02*
X030093Y030797D01*
X030093Y030690D02*
X029773Y030690D01*
X029880Y030584D01*
X029826Y030475D02*
X029773Y030422D01*
X029826Y030906D02*
X029773Y030959D01*
X029773Y031066D01*
X029826Y031120D01*
X030040Y030906D01*
X030093Y030959D01*
X030093Y031066D01*
X030040Y031120D01*
X029826Y031120D01*
X029826Y030906D02*
X030040Y030906D01*
X031590Y031558D02*
X031590Y031718D01*
X031644Y031772D01*
X031750Y031772D01*
X031804Y031718D01*
X031804Y031558D01*
X031911Y031558D02*
X031590Y031558D01*
X031804Y031665D02*
X031911Y031772D01*
X031911Y031881D02*
X031697Y032094D01*
X031644Y032094D01*
X031590Y032041D01*
X031590Y031934D01*
X031644Y031881D01*
X031911Y031881D02*
X031911Y032094D01*
X031911Y032203D02*
X031697Y032416D01*
X031644Y032416D01*
X031590Y032363D01*
X031590Y032256D01*
X031644Y032203D01*
X031911Y032203D02*
X031911Y032416D01*
X031461Y032508D02*
X031461Y032722D01*
X031407Y032831D02*
X031461Y032884D01*
X031461Y032991D01*
X031407Y033044D01*
X031300Y033044D01*
X031247Y032991D01*
X031247Y032884D01*
X031300Y032831D01*
X031407Y032831D01*
X031407Y033153D02*
X031300Y033153D01*
X031247Y033206D01*
X031247Y033366D01*
X031140Y033475D02*
X031461Y033475D01*
X031354Y033475D02*
X031247Y033635D01*
X031300Y033744D02*
X031300Y033850D01*
X031140Y033744D02*
X031140Y033957D01*
X031247Y034066D02*
X031247Y034226D01*
X031300Y034279D01*
X031461Y034279D01*
X031407Y034388D02*
X031354Y034442D01*
X031354Y034602D01*
X031300Y034602D02*
X031461Y034602D01*
X031461Y034442D01*
X031407Y034388D01*
X031247Y034442D02*
X031247Y034548D01*
X031300Y034602D01*
X031247Y034711D02*
X031247Y034871D01*
X031300Y034924D01*
X031407Y034924D01*
X031461Y034871D01*
X031461Y034711D01*
X031140Y034711D01*
X031140Y035033D02*
X031140Y035086D01*
X031461Y035086D01*
X031461Y035033D02*
X031461Y035140D01*
X031407Y035248D02*
X031300Y035248D01*
X031247Y035301D01*
X031247Y035408D01*
X031300Y035461D01*
X031354Y035461D01*
X031354Y035248D01*
X031407Y035248D02*
X031461Y035301D01*
X031461Y035408D01*
X031461Y034066D02*
X031247Y034066D01*
X031461Y033957D02*
X031461Y033744D01*
X031140Y033744D01*
X031461Y033635D02*
X031354Y033475D01*
X031461Y033366D02*
X031461Y033206D01*
X031407Y033153D01*
X031461Y032508D02*
X031140Y032508D01*
X027479Y030461D02*
X027265Y030461D01*
X027265Y030301D01*
X027372Y030354D01*
X027425Y030354D01*
X027479Y030301D01*
X027479Y030194D01*
X027425Y030141D01*
X027319Y030141D01*
X027265Y030194D01*
X027156Y030301D02*
X026943Y030301D01*
X027103Y030461D01*
X027103Y030141D01*
X026834Y030194D02*
X026781Y030141D01*
X026674Y030141D01*
X026621Y030194D01*
X026621Y030408D01*
X026674Y030461D01*
X026781Y030461D01*
X026834Y030408D01*
X028696Y028211D02*
X028643Y028158D01*
X028643Y027944D01*
X028696Y027891D01*
X028803Y027891D01*
X028856Y027944D01*
X028965Y027944D02*
X029019Y027891D01*
X029125Y027891D01*
X029179Y027944D01*
X029179Y028158D01*
X029125Y028211D01*
X029019Y028211D01*
X028965Y028158D01*
X028965Y028104D01*
X029019Y028051D01*
X029179Y028051D01*
X028856Y028158D02*
X028803Y028211D01*
X028696Y028211D01*
X029740Y028174D02*
X029740Y028067D01*
X029794Y028014D01*
X029794Y027905D02*
X029740Y027852D01*
X029740Y027745D01*
X029794Y027691D01*
X030007Y027691D01*
X030061Y027745D01*
X030061Y027852D01*
X030007Y027905D01*
X030061Y028014D02*
X029847Y028227D01*
X029794Y028227D01*
X029740Y028174D01*
X029794Y028336D02*
X029740Y028389D01*
X029740Y028496D01*
X029794Y028550D01*
X030007Y028336D01*
X030061Y028389D01*
X030061Y028496D01*
X030007Y028550D01*
X029794Y028550D01*
X029794Y028336D02*
X030007Y028336D01*
X030061Y028227D02*
X030061Y028014D01*
X030061Y027583D02*
X030061Y027477D01*
X030061Y027530D02*
X029740Y027530D01*
X029740Y027477D02*
X029740Y027583D01*
X030858Y027892D02*
X030911Y027838D01*
X031125Y027838D01*
X031178Y027892D01*
X031178Y027998D01*
X031125Y028052D01*
X031178Y028161D02*
X031178Y028374D01*
X031178Y028267D02*
X030858Y028267D01*
X030964Y028161D01*
X030911Y028052D02*
X030858Y027998D01*
X030858Y027892D01*
X030964Y028483D02*
X030858Y028590D01*
X031178Y028590D01*
X031178Y028696D02*
X031178Y028483D01*
X033411Y026623D02*
X033411Y026302D01*
X033625Y026302D01*
X033733Y026356D02*
X033787Y026302D01*
X033893Y026302D01*
X033947Y026356D01*
X033947Y026409D01*
X033893Y026463D01*
X033840Y026463D01*
X033893Y026463D02*
X033947Y026516D01*
X033947Y026569D01*
X033893Y026623D01*
X033787Y026623D01*
X033733Y026569D01*
X034144Y028058D02*
X034251Y028058D01*
X034304Y028112D01*
X034413Y028058D02*
X034626Y028272D01*
X034626Y028325D01*
X034573Y028379D01*
X034466Y028379D01*
X034413Y028325D01*
X034304Y028325D02*
X034251Y028379D01*
X034144Y028379D01*
X034091Y028325D01*
X034091Y028112D01*
X034144Y028058D01*
X034413Y028058D02*
X034626Y028058D01*
X034735Y028112D02*
X034789Y028058D01*
X034895Y028058D01*
X034949Y028112D01*
X034949Y028218D01*
X034895Y028272D01*
X034842Y028272D01*
X034735Y028218D01*
X034735Y028379D01*
X034949Y028379D01*
X035893Y028308D02*
X035893Y028094D01*
X035946Y028041D01*
X036053Y028041D01*
X036106Y028094D01*
X036215Y028041D02*
X036429Y028254D01*
X036429Y028308D01*
X036375Y028361D01*
X036269Y028361D01*
X036215Y028308D01*
X036106Y028308D02*
X036053Y028361D01*
X035946Y028361D01*
X035893Y028308D01*
X036215Y028041D02*
X036429Y028041D01*
X036525Y027011D02*
X036365Y026851D01*
X036579Y026851D01*
X036525Y026691D02*
X036525Y027011D01*
X036256Y026958D02*
X036203Y027011D01*
X036096Y027011D01*
X036043Y026958D01*
X036043Y026744D01*
X036096Y026691D01*
X036203Y026691D01*
X036256Y026744D01*
X036293Y025873D02*
X036187Y025873D01*
X036133Y025819D01*
X036293Y025873D02*
X036347Y025819D01*
X036347Y025766D01*
X036133Y025552D01*
X036347Y025552D01*
X036025Y025552D02*
X035811Y025552D01*
X035811Y025873D01*
X036758Y025096D02*
X036811Y025096D01*
X037025Y024883D01*
X037078Y024883D01*
X037025Y024774D02*
X037078Y024721D01*
X037078Y024614D01*
X037025Y024561D01*
X036811Y024561D01*
X036758Y024614D01*
X036758Y024721D01*
X036811Y024774D01*
X036758Y024883D02*
X036758Y025096D01*
X037840Y024850D02*
X037840Y024636D01*
X037840Y024743D02*
X038161Y024743D01*
X038161Y024527D02*
X038161Y024314D01*
X037840Y024314D01*
X037840Y024527D01*
X038000Y024421D02*
X038000Y024314D01*
X038054Y024205D02*
X038107Y024205D01*
X038161Y024152D01*
X038161Y024045D01*
X038107Y023991D01*
X038000Y024045D02*
X038000Y024152D01*
X038054Y024205D01*
X037894Y024205D02*
X037840Y024152D01*
X037840Y024045D01*
X037894Y023991D01*
X037947Y023991D01*
X038000Y024045D01*
X038000Y023883D02*
X038054Y023829D01*
X038054Y023669D01*
X038161Y023669D02*
X037840Y023669D01*
X037840Y023829D01*
X037894Y023883D01*
X038000Y023883D01*
X038054Y023776D02*
X038161Y023883D01*
X038458Y024142D02*
X038458Y024248D01*
X038511Y024302D01*
X038564Y024411D02*
X038458Y024517D01*
X038778Y024517D01*
X038778Y024411D02*
X038778Y024624D01*
X038725Y024733D02*
X038778Y024786D01*
X038778Y024893D01*
X038725Y024946D01*
X038671Y024946D01*
X038618Y024893D01*
X038618Y024733D01*
X038725Y024733D01*
X038618Y024733D02*
X038511Y024840D01*
X038458Y024946D01*
X038725Y024302D02*
X038778Y024248D01*
X038778Y024142D01*
X038725Y024088D01*
X038511Y024088D01*
X038458Y024142D01*
X039074Y023329D02*
X039234Y023329D01*
X039287Y023275D01*
X039287Y023168D01*
X039234Y023115D01*
X039074Y023115D01*
X039181Y023115D02*
X039287Y023008D01*
X039396Y023008D02*
X039396Y023329D01*
X039556Y023329D01*
X039610Y023275D01*
X039610Y023168D01*
X039556Y023115D01*
X039396Y023115D01*
X039074Y023008D02*
X039074Y023329D01*
X039718Y023275D02*
X039772Y023329D01*
X039878Y023329D01*
X039932Y023275D01*
X039932Y023222D01*
X039718Y023008D01*
X039932Y023008D01*
X040074Y022915D02*
X040234Y022915D01*
X040287Y022968D01*
X040287Y023075D01*
X040234Y023129D01*
X040074Y023129D01*
X040074Y022808D01*
X040181Y022915D02*
X040287Y022808D01*
X040396Y022808D02*
X040396Y023129D01*
X040556Y023129D01*
X040610Y023075D01*
X040610Y022968D01*
X040556Y022915D01*
X040396Y022915D01*
X040718Y022862D02*
X040932Y023075D01*
X040932Y023129D01*
X040718Y023129D01*
X040718Y022862D02*
X040718Y022808D01*
X041444Y022243D02*
X041497Y022296D01*
X041604Y022296D01*
X041657Y022243D01*
X041766Y022296D02*
X041766Y021976D01*
X041766Y022082D02*
X041926Y022082D01*
X041980Y022136D01*
X041980Y022243D01*
X041926Y022296D01*
X041766Y022296D01*
X041657Y022029D02*
X041604Y021976D01*
X041497Y021976D01*
X041444Y022029D01*
X041444Y022243D01*
X042088Y022243D02*
X042142Y022296D01*
X042248Y022296D01*
X042302Y022243D01*
X042302Y022189D01*
X042248Y022136D01*
X042302Y022082D01*
X042302Y022029D01*
X042248Y021976D01*
X042142Y021976D01*
X042088Y022029D01*
X042195Y022136D02*
X042248Y022136D01*
X043011Y021246D02*
X043225Y021033D01*
X043278Y021086D01*
X043278Y021193D01*
X043225Y021246D01*
X043011Y021246D01*
X042958Y021193D01*
X042958Y021086D01*
X043011Y021033D01*
X043225Y021033D01*
X043278Y020924D02*
X043278Y020711D01*
X043064Y020924D01*
X043011Y020924D01*
X042958Y020871D01*
X042958Y020764D01*
X043011Y020711D01*
X043011Y020602D02*
X042958Y020548D01*
X042958Y020442D01*
X043011Y020388D01*
X043225Y020388D01*
X043278Y020442D01*
X043278Y020548D01*
X043225Y020602D01*
X042778Y020674D02*
X042778Y020461D01*
X042564Y020674D01*
X042511Y020674D01*
X042458Y020621D01*
X042458Y020514D01*
X042511Y020461D01*
X042511Y020352D02*
X042458Y020298D01*
X042458Y020192D01*
X042511Y020138D01*
X042725Y020138D01*
X042778Y020192D01*
X042778Y020298D01*
X042725Y020352D01*
X042778Y020783D02*
X042778Y020996D01*
X042778Y020890D02*
X042458Y020890D01*
X042564Y020783D01*
X043751Y020958D02*
X043751Y021279D01*
X043912Y021279D01*
X043965Y021225D01*
X043965Y021118D01*
X043912Y021065D01*
X043751Y021065D01*
X043858Y021065D02*
X043965Y020958D01*
X044074Y020958D02*
X044074Y021279D01*
X044234Y021279D01*
X044287Y021225D01*
X044287Y021118D01*
X044234Y021065D01*
X044074Y021065D01*
X044396Y020958D02*
X044610Y020958D01*
X044503Y020958D02*
X044503Y021279D01*
X044396Y021172D01*
X044718Y021225D02*
X044772Y021279D01*
X044878Y021279D01*
X044932Y021225D01*
X044718Y021012D01*
X044772Y020958D01*
X044878Y020958D01*
X044932Y021012D01*
X044932Y021225D01*
X044718Y021225D02*
X044718Y021012D01*
X045640Y020732D02*
X045747Y020625D01*
X045640Y020732D02*
X045961Y020732D01*
X045961Y020625D02*
X045961Y020839D01*
X045961Y020516D02*
X045961Y020303D01*
X045961Y020410D02*
X045640Y020410D01*
X045747Y020303D01*
X045694Y020194D02*
X045800Y020194D01*
X045854Y020141D01*
X045854Y019981D01*
X045961Y019981D02*
X045640Y019981D01*
X045640Y020141D01*
X045694Y020194D01*
X045694Y019872D02*
X045800Y019872D01*
X045854Y019818D01*
X045854Y019658D01*
X045961Y019658D02*
X045640Y019658D01*
X045640Y019818D01*
X045694Y019872D01*
X045854Y019765D02*
X045961Y019872D01*
X046608Y019898D02*
X046608Y019792D01*
X046661Y019738D01*
X046875Y019738D01*
X046928Y019792D01*
X046928Y019898D01*
X046875Y019952D01*
X046928Y020061D02*
X046608Y020061D01*
X046608Y020221D01*
X046661Y020274D01*
X046768Y020274D01*
X046821Y020221D01*
X046821Y020061D01*
X046661Y019952D02*
X046608Y019898D01*
X046768Y020383D02*
X046768Y020596D01*
X046928Y020543D02*
X046608Y020543D01*
X046768Y020383D01*
X046991Y021508D02*
X046991Y021829D01*
X047151Y021829D01*
X047204Y021775D01*
X047204Y021668D01*
X047151Y021615D01*
X046991Y021615D01*
X047097Y021615D02*
X047204Y021508D01*
X047313Y021508D02*
X047313Y021829D01*
X047473Y021829D01*
X047526Y021775D01*
X047526Y021668D01*
X047473Y021615D01*
X047313Y021615D01*
X047635Y021508D02*
X047849Y021508D01*
X047742Y021508D02*
X047742Y021829D01*
X047635Y021722D01*
X047957Y021668D02*
X048171Y021668D01*
X048118Y021508D02*
X048118Y021829D01*
X047957Y021668D01*
X046961Y022241D02*
X046640Y022241D01*
X046640Y022402D01*
X046694Y022455D01*
X046800Y022455D01*
X046854Y022402D01*
X046854Y022241D01*
X046854Y022348D02*
X046961Y022455D01*
X046961Y022564D02*
X046640Y022564D01*
X046640Y022724D01*
X046694Y022777D01*
X046800Y022777D01*
X046854Y022724D01*
X046854Y022564D01*
X046907Y022886D02*
X046961Y022939D01*
X046961Y023046D01*
X046907Y023100D01*
X046694Y023100D01*
X046640Y023046D01*
X046640Y022939D01*
X046694Y022886D01*
X046747Y022886D01*
X046800Y022939D01*
X046800Y023100D01*
X047344Y023629D02*
X047397Y023576D01*
X047504Y023576D01*
X047557Y023629D01*
X047666Y023576D02*
X047880Y023576D01*
X047773Y023576D02*
X047773Y023896D01*
X047666Y023789D01*
X047557Y023843D02*
X047504Y023896D01*
X047397Y023896D01*
X047344Y023843D01*
X047344Y023629D01*
X047354Y024126D02*
X047407Y024179D01*
X047354Y024126D02*
X047247Y024126D01*
X047194Y024179D01*
X047194Y024393D01*
X047247Y024446D01*
X047354Y024446D01*
X047407Y024393D01*
X047516Y024339D02*
X047623Y024446D01*
X047623Y024126D01*
X047516Y024126D02*
X047730Y024126D01*
X047838Y024179D02*
X047892Y024126D01*
X047998Y024126D01*
X048052Y024179D01*
X048052Y024393D01*
X047998Y024446D01*
X047892Y024446D01*
X047838Y024393D01*
X047838Y024339D01*
X047892Y024286D01*
X048052Y024286D01*
X048042Y023896D02*
X048148Y023896D01*
X048202Y023843D01*
X048202Y023789D01*
X048148Y023736D01*
X048042Y023736D01*
X047988Y023789D01*
X047988Y023843D01*
X048042Y023896D01*
X048042Y023736D02*
X047988Y023682D01*
X047988Y023629D01*
X048042Y023576D01*
X048148Y023576D01*
X048202Y023629D01*
X048202Y023682D01*
X048148Y023736D01*
X046152Y025229D02*
X046098Y025176D01*
X045992Y025176D01*
X045938Y025229D01*
X046152Y025443D01*
X046152Y025229D01*
X046152Y025443D02*
X046098Y025496D01*
X045992Y025496D01*
X045938Y025443D01*
X045938Y025229D01*
X045830Y025229D02*
X045776Y025176D01*
X045669Y025176D01*
X045616Y025229D01*
X045507Y025229D02*
X045454Y025176D01*
X045347Y025176D01*
X045294Y025229D01*
X045294Y025443D01*
X045347Y025496D01*
X045454Y025496D01*
X045507Y025443D01*
X045616Y025443D02*
X045669Y025496D01*
X045776Y025496D01*
X045830Y025443D01*
X045830Y025389D01*
X045776Y025336D01*
X045830Y025282D01*
X045830Y025229D01*
X045776Y025336D02*
X045723Y025336D01*
X045498Y025096D02*
X045392Y025096D01*
X045338Y025043D01*
X045338Y024989D01*
X045392Y024936D01*
X045552Y024936D01*
X045552Y024829D02*
X045552Y025043D01*
X045498Y025096D01*
X045552Y024829D02*
X045498Y024776D01*
X045392Y024776D01*
X045338Y024829D01*
X045230Y024776D02*
X045016Y024776D01*
X045230Y024989D01*
X045230Y025043D01*
X045176Y025096D01*
X045069Y025096D01*
X045016Y025043D01*
X044907Y025043D02*
X044854Y025096D01*
X044747Y025096D01*
X044694Y025043D01*
X044694Y024829D01*
X044747Y024776D01*
X044854Y024776D01*
X044907Y024829D01*
X044182Y024718D02*
X043968Y024718D01*
X044128Y024879D01*
X044128Y024558D01*
X043860Y024718D02*
X043806Y024665D01*
X043646Y024665D01*
X043646Y024558D02*
X043646Y024879D01*
X043806Y024879D01*
X043860Y024825D01*
X043860Y024718D01*
X043537Y024718D02*
X043484Y024665D01*
X043324Y024665D01*
X043431Y024665D02*
X043537Y024558D01*
X043537Y024718D02*
X043537Y024825D01*
X043484Y024879D01*
X043324Y024879D01*
X043324Y024558D01*
X043149Y024612D02*
X043149Y024665D01*
X043095Y024718D01*
X043042Y024718D01*
X043095Y024718D02*
X043149Y024772D01*
X043149Y024825D01*
X043095Y024879D01*
X042989Y024879D01*
X042935Y024825D01*
X042826Y024825D02*
X042826Y024718D01*
X042773Y024665D01*
X042613Y024665D01*
X042613Y024558D02*
X042613Y024879D01*
X042773Y024879D01*
X042826Y024825D01*
X042935Y024612D02*
X042989Y024558D01*
X043095Y024558D01*
X043149Y024612D01*
X042504Y024558D02*
X042397Y024665D01*
X042451Y024665D02*
X042291Y024665D01*
X042291Y024558D02*
X042291Y024879D01*
X042451Y024879D01*
X042504Y024825D01*
X042504Y024718D01*
X042451Y024665D01*
X042161Y024696D02*
X042161Y024589D01*
X042107Y024536D01*
X042000Y024536D02*
X041947Y024643D01*
X041947Y024696D01*
X042000Y024750D01*
X042107Y024750D01*
X042161Y024696D01*
X042000Y024536D02*
X041840Y024536D01*
X041840Y024750D01*
X041894Y024427D02*
X042000Y024427D01*
X042054Y024374D01*
X042054Y024214D01*
X042161Y024214D02*
X041840Y024214D01*
X041840Y024374D01*
X041894Y024427D01*
X041894Y024105D02*
X042000Y024105D01*
X042054Y024052D01*
X042054Y023891D01*
X042161Y023891D02*
X041840Y023891D01*
X041840Y024052D01*
X041894Y024105D01*
X042054Y023998D02*
X042161Y024105D01*
X040378Y024098D02*
X040325Y024152D01*
X040378Y024098D02*
X040378Y023992D01*
X040325Y023938D01*
X040111Y023938D01*
X040058Y023992D01*
X040058Y024098D01*
X040111Y024152D01*
X040164Y024261D02*
X040058Y024367D01*
X040378Y024367D01*
X040378Y024261D02*
X040378Y024474D01*
X040378Y024583D02*
X040325Y024583D01*
X040111Y024796D01*
X040058Y024796D01*
X040058Y024583D01*
X038228Y026414D02*
X038228Y026521D01*
X038175Y026574D01*
X038175Y026683D02*
X038121Y026683D01*
X038068Y026736D01*
X038068Y026843D01*
X038121Y026896D01*
X038175Y026896D01*
X038228Y026843D01*
X038228Y026736D01*
X038175Y026683D01*
X038068Y026736D02*
X038014Y026683D01*
X037961Y026683D01*
X037908Y026736D01*
X037908Y026843D01*
X037961Y026896D01*
X038014Y026896D01*
X038068Y026843D01*
X037961Y026574D02*
X037908Y026521D01*
X037908Y026414D01*
X037961Y026361D01*
X038175Y026361D01*
X038228Y026414D01*
X040426Y028514D02*
X040639Y028514D01*
X040748Y028674D02*
X040961Y028674D01*
X040908Y028514D02*
X040908Y028834D01*
X040748Y028674D01*
X040426Y028834D02*
X040426Y028514D01*
X040266Y029329D02*
X040266Y029542D01*
X040266Y029651D02*
X040266Y029865D01*
X040266Y029758D02*
X039946Y029758D01*
X040053Y029651D01*
X039946Y029329D02*
X040266Y029329D01*
X040791Y030108D02*
X040791Y030429D01*
X040951Y030429D01*
X041004Y030375D01*
X041004Y030268D01*
X040951Y030215D01*
X040791Y030215D01*
X040897Y030215D02*
X041004Y030108D01*
X041113Y030215D02*
X041220Y030108D01*
X041326Y030215D01*
X041326Y030429D01*
X041435Y030322D02*
X041542Y030429D01*
X041649Y030322D01*
X041649Y030108D01*
X041757Y030108D02*
X041757Y030429D01*
X041918Y030429D01*
X041971Y030375D01*
X041971Y030268D01*
X041918Y030215D01*
X041757Y030215D01*
X041864Y030215D02*
X041971Y030108D01*
X041649Y030268D02*
X041435Y030268D01*
X041435Y030322D02*
X041435Y030108D01*
X041113Y030215D02*
X041113Y030429D01*
X040361Y030368D02*
X040307Y030422D01*
X040361Y030368D02*
X040361Y030262D01*
X040307Y030208D01*
X040094Y030208D01*
X040040Y030262D01*
X040040Y030368D01*
X040094Y030422D01*
X040094Y030531D02*
X040040Y030584D01*
X040040Y030691D01*
X040094Y030744D01*
X040147Y030744D01*
X040361Y030531D01*
X040361Y030744D01*
X040307Y030853D02*
X040361Y030906D01*
X040361Y031013D01*
X040307Y031066D01*
X040254Y031066D01*
X040200Y031013D01*
X040200Y030853D01*
X040307Y030853D01*
X040200Y030853D02*
X040094Y030960D01*
X040040Y031066D01*
X038893Y030444D02*
X038893Y030337D01*
X038840Y030284D01*
X038733Y030284D02*
X038680Y030390D01*
X038680Y030444D01*
X038733Y030497D01*
X038840Y030497D01*
X038893Y030444D01*
X038733Y030284D02*
X038573Y030284D01*
X038573Y030497D01*
X038393Y030494D02*
X038393Y030387D01*
X038340Y030334D01*
X038340Y030225D02*
X038393Y030172D01*
X038393Y030065D01*
X038340Y030011D01*
X038126Y030011D01*
X038073Y030065D01*
X038073Y030172D01*
X038126Y030225D01*
X038126Y030334D02*
X038073Y030387D01*
X038073Y030494D01*
X038126Y030547D01*
X038180Y030547D01*
X038233Y030494D01*
X038287Y030547D01*
X038340Y030547D01*
X038393Y030494D01*
X038233Y030494D02*
X038233Y030440D01*
X038275Y030811D02*
X038328Y030864D01*
X038328Y030971D01*
X038275Y031024D01*
X038328Y031133D02*
X038328Y031346D01*
X038328Y031240D02*
X038008Y031240D01*
X038114Y031133D01*
X038061Y031024D02*
X038008Y030971D01*
X038008Y030864D01*
X038061Y030811D01*
X038275Y030811D01*
X038626Y030175D02*
X038573Y030122D01*
X038573Y030015D01*
X038626Y029961D01*
X038840Y029961D01*
X038893Y030015D01*
X038893Y030122D01*
X038840Y030175D01*
X036776Y031408D02*
X036563Y031408D01*
X036670Y031408D02*
X036670Y031729D01*
X036563Y031622D01*
X036454Y031675D02*
X036454Y031568D01*
X036401Y031515D01*
X036241Y031515D01*
X036347Y031515D02*
X036454Y031408D01*
X036241Y031408D02*
X036241Y031729D01*
X036401Y031729D01*
X036454Y031675D01*
X038008Y032364D02*
X038061Y032311D01*
X038275Y032311D01*
X038328Y032364D01*
X038328Y032471D01*
X038275Y032524D01*
X038275Y032633D02*
X038328Y032686D01*
X038328Y032793D01*
X038275Y032846D01*
X038221Y032846D01*
X038168Y032793D01*
X038168Y032633D01*
X038275Y032633D01*
X038168Y032633D02*
X038061Y032740D01*
X038008Y032846D01*
X038061Y032524D02*
X038008Y032471D01*
X038008Y032364D01*
X042440Y031460D02*
X042547Y031353D01*
X042547Y031244D02*
X042761Y031244D01*
X042761Y031353D02*
X042761Y031566D01*
X042761Y031460D02*
X042440Y031460D01*
X042547Y031244D02*
X042440Y031137D01*
X042547Y031031D01*
X042761Y031031D01*
X042761Y030922D02*
X042654Y030815D01*
X042654Y030868D02*
X042654Y030708D01*
X042761Y030708D02*
X042440Y030708D01*
X042440Y030868D01*
X042494Y030922D01*
X042600Y030922D01*
X042654Y030868D01*
X042600Y031031D02*
X042600Y031244D01*
X043290Y031271D02*
X043611Y031271D01*
X043611Y031486D02*
X043290Y031486D01*
X043290Y031377D02*
X043290Y031164D01*
X043344Y031055D02*
X043450Y031055D01*
X043504Y031002D01*
X043504Y030841D01*
X043611Y030841D02*
X043290Y030841D01*
X043290Y031002D01*
X043344Y031055D01*
X043504Y030948D02*
X043611Y031055D01*
X043450Y031486D02*
X043450Y031700D01*
X043290Y031700D02*
X043611Y031700D01*
X043994Y030466D02*
X043940Y030413D01*
X043940Y030306D01*
X043994Y030253D01*
X044047Y030144D02*
X044261Y030144D01*
X044261Y030253D02*
X044047Y030466D01*
X043994Y030466D01*
X044261Y030466D02*
X044261Y030253D01*
X044100Y030144D02*
X044100Y029931D01*
X044047Y029931D02*
X043940Y030037D01*
X044047Y030144D01*
X044047Y029931D02*
X044261Y029931D01*
X044261Y029822D02*
X044154Y029715D01*
X044154Y029768D02*
X044154Y029608D01*
X044261Y029608D02*
X043940Y029608D01*
X043940Y029768D01*
X043994Y029822D01*
X044100Y029822D01*
X044154Y029768D01*
X044494Y030029D02*
X044547Y029976D01*
X044654Y029976D01*
X044707Y030029D01*
X044816Y029976D02*
X044816Y030189D01*
X044923Y030296D01*
X045030Y030189D01*
X045030Y029976D01*
X045030Y030136D02*
X044816Y030136D01*
X044707Y030243D02*
X044654Y030296D01*
X044547Y030296D01*
X044494Y030243D01*
X044494Y030029D01*
X045138Y030136D02*
X045298Y030296D01*
X045298Y029976D01*
X045352Y030136D02*
X045138Y030136D01*
X044040Y028270D02*
X043987Y028270D01*
X043933Y028216D01*
X043933Y028056D01*
X044040Y028056D01*
X044093Y028109D01*
X044093Y028216D01*
X044040Y028270D01*
X043826Y028163D02*
X043773Y028270D01*
X043826Y028163D02*
X043933Y028056D01*
X043933Y027947D02*
X043933Y027734D01*
X043880Y027734D02*
X043773Y027840D01*
X043880Y027947D01*
X044093Y027947D01*
X044093Y027734D02*
X043880Y027734D01*
X043826Y027625D02*
X043773Y027572D01*
X043773Y027465D01*
X043826Y027411D01*
X044040Y027411D01*
X044093Y027465D01*
X044093Y027572D01*
X044040Y027625D01*
X044444Y027929D02*
X044497Y027876D01*
X044604Y027876D01*
X044657Y027929D01*
X044766Y027876D02*
X044766Y028089D01*
X044873Y028196D01*
X044980Y028089D01*
X044980Y027876D01*
X045088Y027929D02*
X045142Y027876D01*
X045248Y027876D01*
X045302Y027929D01*
X045302Y027982D01*
X045248Y028036D01*
X045195Y028036D01*
X045248Y028036D02*
X045302Y028089D01*
X045302Y028143D01*
X045248Y028196D01*
X045142Y028196D01*
X045088Y028143D01*
X044980Y028036D02*
X044766Y028036D01*
X044657Y028143D02*
X044604Y028196D01*
X044497Y028196D01*
X044444Y028143D01*
X044444Y027929D01*
X044626Y027484D02*
X044626Y027164D01*
X044839Y027164D01*
X044948Y027218D02*
X045001Y027164D01*
X045108Y027164D01*
X045161Y027218D01*
X045161Y027324D01*
X045108Y027378D01*
X045055Y027378D01*
X044948Y027324D01*
X044948Y027484D01*
X045161Y027484D01*
X046190Y027096D02*
X046190Y026989D01*
X046244Y026936D01*
X046457Y026936D01*
X046244Y027150D01*
X046457Y027150D01*
X046511Y027096D01*
X046511Y026989D01*
X046457Y026936D01*
X046457Y026827D02*
X046511Y026774D01*
X046511Y026667D01*
X046457Y026614D01*
X046350Y026614D02*
X046297Y026721D01*
X046297Y026774D01*
X046350Y026827D01*
X046457Y026827D01*
X046350Y026614D02*
X046190Y026614D01*
X046190Y026827D01*
X046190Y027096D02*
X046244Y027150D01*
X046244Y026505D02*
X046190Y026452D01*
X046190Y026345D01*
X046244Y026291D01*
X046457Y026291D01*
X046511Y026345D01*
X046511Y026452D01*
X046457Y026505D01*
X042279Y027194D02*
X042225Y027141D01*
X042119Y027141D01*
X042065Y027194D01*
X042065Y027301D02*
X042172Y027354D01*
X042225Y027354D01*
X042279Y027301D01*
X042279Y027194D01*
X042065Y027301D02*
X042065Y027461D01*
X042279Y027461D01*
X041956Y027354D02*
X041956Y027141D01*
X041956Y027301D02*
X041743Y027301D01*
X041743Y027354D02*
X041850Y027461D01*
X041956Y027354D01*
X041743Y027354D02*
X041743Y027141D01*
X041634Y027194D02*
X041581Y027141D01*
X041474Y027141D01*
X041421Y027194D01*
X041421Y027408D01*
X041474Y027461D01*
X041581Y027461D01*
X041634Y027408D01*
X037293Y023720D02*
X037293Y023506D01*
X037293Y023613D02*
X036973Y023613D01*
X037080Y023506D01*
X037133Y023397D02*
X037133Y023184D01*
X036973Y023344D01*
X037293Y023344D01*
X037240Y023075D02*
X037293Y023022D01*
X037293Y022915D01*
X037240Y022861D01*
X037026Y022861D01*
X036973Y022915D01*
X036973Y023022D01*
X037026Y023075D01*
X036693Y022922D02*
X036640Y022975D01*
X036693Y022922D02*
X036693Y022815D01*
X036640Y022761D01*
X036426Y022761D01*
X036373Y022815D01*
X036373Y022922D01*
X036426Y022975D01*
X036533Y023084D02*
X036533Y023297D01*
X036426Y023406D02*
X036373Y023459D01*
X036373Y023566D01*
X036426Y023620D01*
X036640Y023406D01*
X036693Y023459D01*
X036693Y023566D01*
X036640Y023620D01*
X036426Y023620D01*
X036426Y023406D02*
X036640Y023406D01*
X036693Y023244D02*
X036373Y023244D01*
X036533Y023084D01*
X036118Y022479D02*
X036011Y022479D01*
X035957Y022425D01*
X035957Y022372D01*
X036011Y022318D01*
X036171Y022318D01*
X036171Y022212D02*
X036171Y022425D01*
X036118Y022479D01*
X036171Y022212D02*
X036118Y022158D01*
X036011Y022158D01*
X035957Y022212D01*
X035849Y022158D02*
X035635Y022158D01*
X035742Y022158D02*
X035742Y022479D01*
X035635Y022372D01*
X035526Y022425D02*
X035526Y022318D01*
X035473Y022265D01*
X035313Y022265D01*
X035313Y022158D02*
X035313Y022479D01*
X035473Y022479D01*
X035526Y022425D01*
X035204Y022425D02*
X035204Y022318D01*
X035151Y022265D01*
X034991Y022265D01*
X035097Y022265D02*
X035204Y022158D01*
X034991Y022158D02*
X034991Y022479D01*
X035151Y022479D01*
X035204Y022425D01*
X033675Y020611D02*
X033729Y020558D01*
X033729Y020504D01*
X033675Y020451D01*
X033569Y020451D01*
X033515Y020504D01*
X033515Y020558D01*
X033569Y020611D01*
X033675Y020611D01*
X033675Y020451D02*
X033729Y020398D01*
X033729Y020344D01*
X033675Y020291D01*
X033569Y020291D01*
X033515Y020344D01*
X033515Y020398D01*
X033569Y020451D01*
X033406Y020398D02*
X033406Y020344D01*
X033353Y020291D01*
X033246Y020291D01*
X033193Y020344D01*
X033084Y020344D02*
X033031Y020291D01*
X032924Y020291D01*
X032871Y020344D01*
X032871Y020558D01*
X032924Y020611D01*
X033031Y020611D01*
X033084Y020558D01*
X033193Y020558D02*
X033246Y020611D01*
X033353Y020611D01*
X033406Y020558D01*
X033406Y020504D01*
X033353Y020451D01*
X033406Y020398D01*
X033353Y020451D02*
X033300Y020451D01*
X033175Y019161D02*
X033069Y019161D01*
X033015Y019108D01*
X033015Y019054D01*
X033069Y019001D01*
X033229Y019001D01*
X033229Y018894D02*
X033229Y019108D01*
X033175Y019161D01*
X033229Y018894D02*
X033175Y018841D01*
X033069Y018841D01*
X033015Y018894D01*
X032906Y018894D02*
X032853Y018841D01*
X032746Y018841D01*
X032693Y018894D01*
X032584Y018894D02*
X032531Y018841D01*
X032424Y018841D01*
X032371Y018894D01*
X032371Y019108D01*
X032424Y019161D01*
X032531Y019161D01*
X032584Y019108D01*
X032693Y019108D02*
X032746Y019161D01*
X032853Y019161D01*
X032906Y019108D01*
X032906Y019054D01*
X032853Y019001D01*
X032906Y018948D01*
X032906Y018894D01*
X032853Y019001D02*
X032800Y019001D01*
X031711Y019391D02*
X031390Y019391D01*
X031390Y019552D01*
X031444Y019605D01*
X031550Y019605D01*
X031604Y019552D01*
X031604Y019391D01*
X031604Y019498D02*
X031711Y019605D01*
X031711Y019714D02*
X031390Y019714D01*
X031390Y019874D01*
X031444Y019927D01*
X031550Y019927D01*
X031604Y019874D01*
X031604Y019714D01*
X031657Y020036D02*
X031711Y020089D01*
X031711Y020196D01*
X031657Y020250D01*
X031604Y020250D01*
X031550Y020196D01*
X031550Y020036D01*
X031657Y020036D01*
X031550Y020036D02*
X031444Y020143D01*
X031390Y020250D01*
X030332Y019575D02*
X030332Y019468D01*
X030278Y019415D01*
X030118Y019415D01*
X030118Y019308D02*
X030118Y019629D01*
X030278Y019629D01*
X030332Y019575D01*
X030225Y019415D02*
X030332Y019308D01*
X030010Y019308D02*
X029903Y019415D01*
X029956Y019415D02*
X029796Y019415D01*
X029796Y019308D02*
X029796Y019629D01*
X029956Y019629D01*
X030010Y019575D01*
X030010Y019468D01*
X029956Y019415D01*
X029687Y019362D02*
X029687Y019629D01*
X029474Y019629D02*
X029474Y019362D01*
X029527Y019308D01*
X029634Y019308D01*
X029687Y019362D01*
X029365Y019362D02*
X029312Y019308D01*
X029205Y019308D01*
X029151Y019362D01*
X029151Y019575D01*
X029205Y019629D01*
X029312Y019629D01*
X029365Y019575D01*
X034544Y024708D02*
X034651Y024708D01*
X034704Y024762D01*
X034813Y024708D02*
X035026Y024922D01*
X035026Y024975D01*
X034973Y025029D01*
X034866Y025029D01*
X034813Y024975D01*
X034704Y024975D02*
X034651Y025029D01*
X034544Y025029D01*
X034491Y024975D01*
X034491Y024762D01*
X034544Y024708D01*
X034813Y024708D02*
X035026Y024708D01*
X035135Y024868D02*
X035349Y024868D01*
X035295Y024708D02*
X035295Y025029D01*
X035135Y024868D01*
X037994Y020939D02*
X038207Y020725D01*
X038261Y020779D01*
X038261Y020885D01*
X038207Y020939D01*
X037994Y020939D01*
X037940Y020885D01*
X037940Y020779D01*
X037994Y020725D01*
X038207Y020725D01*
X038261Y020616D02*
X038261Y020403D01*
X038047Y020616D01*
X037994Y020616D01*
X037940Y020563D01*
X037940Y020456D01*
X037994Y020403D01*
X037994Y020294D02*
X038100Y020294D01*
X038154Y020241D01*
X038154Y020081D01*
X038261Y020081D02*
X037940Y020081D01*
X037940Y020241D01*
X037994Y020294D01*
X037994Y019972D02*
X038100Y019972D01*
X038154Y019918D01*
X038154Y019758D01*
X038261Y019758D02*
X037940Y019758D01*
X037940Y019918D01*
X037994Y019972D01*
X038154Y019865D02*
X038261Y019972D01*
X043891Y021958D02*
X043997Y021958D01*
X043944Y021958D02*
X043944Y022279D01*
X043891Y022279D02*
X043997Y022279D01*
X044105Y022225D02*
X044159Y022279D01*
X044266Y022279D01*
X044319Y022225D01*
X044428Y022225D02*
X044481Y022279D01*
X044588Y022279D01*
X044641Y022225D01*
X044641Y022172D01*
X044428Y021958D01*
X044641Y021958D01*
X044319Y022012D02*
X044266Y021958D01*
X044159Y021958D01*
X044105Y022012D01*
X044105Y022225D01*
X045587Y015941D02*
X045640Y015941D01*
X045747Y015941D02*
X046014Y015941D01*
X046067Y015888D01*
X046067Y015835D01*
X045961Y015726D02*
X045961Y015566D01*
X045907Y015512D01*
X045800Y015512D01*
X045747Y015566D01*
X045747Y015726D01*
X045640Y015726D02*
X045961Y015726D01*
X045961Y015403D02*
X045747Y015403D01*
X045640Y015297D01*
X045747Y015190D01*
X045961Y015190D01*
X045961Y015081D02*
X045800Y015081D01*
X045747Y015028D01*
X045747Y014868D01*
X045961Y014868D01*
X045961Y014760D02*
X045961Y014653D01*
X045961Y014706D02*
X045747Y014706D01*
X045747Y014653D01*
X045640Y014706D02*
X045587Y014706D01*
X045800Y014544D02*
X045961Y014544D01*
X045961Y014384D01*
X045907Y014331D01*
X045854Y014384D01*
X045854Y014544D01*
X045800Y014544D02*
X045747Y014491D01*
X045747Y014384D01*
X045694Y014222D02*
X045640Y014168D01*
X045640Y014062D01*
X045694Y014008D01*
X045907Y014008D01*
X045961Y014062D01*
X045961Y014168D01*
X045907Y014222D01*
X045800Y014222D01*
X045800Y014115D01*
X045800Y015190D02*
X045800Y015403D01*
X023561Y027008D02*
X023561Y027115D01*
X023561Y027062D02*
X023240Y027062D01*
X023240Y027115D02*
X023240Y027008D01*
X023294Y027223D02*
X023507Y027223D01*
X023561Y027277D01*
X023561Y027383D01*
X023507Y027437D01*
X023561Y027545D02*
X023561Y027759D01*
X023561Y027652D02*
X023240Y027652D01*
X023347Y027545D01*
X023294Y027437D02*
X023240Y027383D01*
X023240Y027277D01*
X023294Y027223D01*
X023347Y027868D02*
X023240Y027974D01*
X023561Y027974D01*
X023561Y027868D02*
X023561Y028081D01*
X023407Y029191D02*
X023194Y029191D01*
X023140Y029245D01*
X023140Y029352D01*
X023194Y029405D01*
X023300Y029514D02*
X023140Y029674D01*
X023461Y029674D01*
X023461Y029836D02*
X023247Y030050D01*
X023194Y030050D01*
X023140Y029996D01*
X023140Y029889D01*
X023194Y029836D01*
X023300Y029727D02*
X023300Y029514D01*
X023407Y029405D02*
X023461Y029352D01*
X023461Y029245D01*
X023407Y029191D01*
X023461Y029836D02*
X023461Y030050D01*
X017961Y034008D02*
X017961Y034115D01*
X017961Y034062D02*
X017640Y034062D01*
X017640Y034115D02*
X017640Y034008D01*
X017694Y034223D02*
X017907Y034223D01*
X017961Y034277D01*
X017961Y034383D01*
X017907Y034437D01*
X017907Y034545D02*
X017961Y034599D01*
X017961Y034706D01*
X017907Y034759D01*
X017854Y034759D01*
X017800Y034706D01*
X017800Y034545D01*
X017907Y034545D01*
X017800Y034545D02*
X017694Y034652D01*
X017640Y034759D01*
X017694Y034437D02*
X017640Y034383D01*
X017640Y034277D01*
X017694Y034223D01*
X017306Y033340D02*
X017200Y033340D01*
X017146Y033287D01*
X017253Y033180D02*
X017306Y033180D01*
X017360Y033127D01*
X017360Y033073D01*
X017306Y033020D01*
X017200Y033020D01*
X017146Y033073D01*
X017037Y033020D02*
X016824Y033020D01*
X016931Y033020D02*
X016931Y033340D01*
X016824Y033234D01*
X016715Y033287D02*
X016662Y033340D01*
X016555Y033340D01*
X016502Y033287D01*
X016502Y033073D01*
X016555Y033020D01*
X016662Y033020D01*
X016715Y033073D01*
X017306Y033180D02*
X017360Y033234D01*
X017360Y033287D01*
X017306Y033340D01*
X012732Y035215D02*
X012732Y035429D01*
X012518Y035429D02*
X012518Y035215D01*
X012625Y035108D01*
X012732Y035215D01*
X012410Y035162D02*
X012356Y035108D01*
X012249Y035108D01*
X012196Y035162D01*
X012196Y035268D02*
X012303Y035322D01*
X012356Y035322D01*
X012410Y035268D01*
X012410Y035162D01*
X012196Y035268D02*
X012196Y035429D01*
X012410Y035429D01*
X011981Y035429D02*
X011981Y035108D01*
X012087Y035108D02*
X011874Y035108D01*
X011765Y035268D02*
X011551Y035268D01*
X011658Y035162D02*
X011658Y035375D01*
X011874Y035322D02*
X011981Y035429D01*
X011311Y035413D02*
X011311Y035253D01*
X010990Y035253D01*
X010990Y035413D01*
X011044Y035466D01*
X011257Y035466D01*
X011311Y035413D01*
X011311Y035144D02*
X010990Y035144D01*
X010990Y034931D02*
X011311Y035144D01*
X011311Y034931D02*
X010990Y034931D01*
X011044Y034822D02*
X010990Y034768D01*
X010990Y034662D01*
X011044Y034608D01*
X011257Y034608D01*
X011311Y034662D01*
X011311Y034768D01*
X011257Y034822D01*
X011150Y034822D01*
X011150Y034715D01*
X010664Y035108D02*
X010771Y035215D01*
X010771Y035429D01*
X010557Y035429D02*
X010557Y035215D01*
X010664Y035108D01*
X010449Y035162D02*
X010395Y035108D01*
X010289Y035108D01*
X010235Y035162D01*
X010235Y035268D02*
X010342Y035322D01*
X010395Y035322D01*
X010449Y035268D01*
X010449Y035162D01*
X010235Y035268D02*
X010235Y035429D01*
X010449Y035429D01*
X010020Y035429D02*
X010020Y035108D01*
X010126Y035108D02*
X009913Y035108D01*
X009804Y035268D02*
X009591Y035268D01*
X009913Y035322D02*
X010020Y035429D01*
X008510Y034537D02*
X008456Y034590D01*
X008350Y034590D01*
X008296Y034537D01*
X008510Y034537D02*
X008510Y034484D01*
X008296Y034270D01*
X008510Y034270D01*
X008187Y034270D02*
X007974Y034270D01*
X008081Y034270D02*
X008081Y034590D01*
X007974Y034484D01*
X007865Y034537D02*
X007812Y034590D01*
X007705Y034590D01*
X007652Y034537D01*
X007652Y034323D01*
X007705Y034270D01*
X007812Y034270D01*
X007865Y034323D01*
X013940Y029378D02*
X013994Y029431D01*
X014207Y029218D01*
X014261Y029271D01*
X014261Y029378D01*
X014207Y029431D01*
X013994Y029431D01*
X013940Y029378D02*
X013940Y029271D01*
X013994Y029218D01*
X014207Y029218D01*
X014261Y029109D02*
X014261Y028895D01*
X014261Y029002D02*
X013940Y029002D01*
X014047Y028895D01*
X013994Y028787D02*
X013940Y028733D01*
X013940Y028627D01*
X013994Y028573D01*
X014207Y028573D01*
X014261Y028627D01*
X014261Y028733D01*
X014207Y028787D01*
X014261Y028465D02*
X014261Y028358D01*
X014261Y028412D02*
X013940Y028412D01*
X013940Y028465D02*
X013940Y028358D01*
X014344Y027266D02*
X014397Y027266D01*
X014450Y027213D01*
X014504Y027266D01*
X014557Y027266D01*
X014611Y027213D01*
X014611Y027106D01*
X014557Y027053D01*
X014450Y027160D02*
X014450Y027213D01*
X014344Y027266D02*
X014290Y027213D01*
X014290Y027106D01*
X014344Y027053D01*
X014450Y026944D02*
X014450Y026731D01*
X014290Y026891D01*
X014611Y026891D01*
X014557Y026622D02*
X014611Y026568D01*
X014611Y026462D01*
X014557Y026408D01*
X014344Y026408D01*
X014290Y026462D01*
X014290Y026568D01*
X014344Y026622D01*
D13*
X046126Y020443D02*
X046426Y020443D01*
X046276Y020593D01*
X046126Y020443D01*
X046276Y020593D02*
X046276Y018893D01*
D14*
X022326Y030243D02*
X022226Y030243D01*
X022176Y030243D02*
X022026Y030243D01*
X022176Y030243D02*
X022176Y030093D01*
X022176Y030243D02*
X022176Y030393D01*
X014626Y025393D02*
X014476Y025393D01*
X014326Y025393D01*
X014476Y025393D02*
X014476Y025243D01*
X014476Y025393D02*
X014476Y025543D01*
X004376Y029693D02*
X003726Y029693D01*
X003205Y029693D02*
X003207Y029709D01*
X003213Y029725D01*
X003222Y029739D01*
X003234Y029750D01*
X003248Y029758D01*
X003264Y029763D01*
X003280Y029764D01*
X003296Y029761D01*
X003311Y029754D01*
X003325Y029745D01*
X003335Y029732D01*
X003343Y029717D01*
X003347Y029701D01*
X003347Y029685D01*
X003343Y029669D01*
X003335Y029654D01*
X003325Y029641D01*
X003312Y029632D01*
X003296Y029625D01*
X003280Y029622D01*
X003264Y029623D01*
X003248Y029628D01*
X003234Y029636D01*
X003222Y029647D01*
X003213Y029661D01*
X003207Y029677D01*
X003205Y029693D01*
X003176Y030143D02*
X003826Y030143D01*
X004255Y030143D02*
X004257Y030159D01*
X004263Y030175D01*
X004272Y030189D01*
X004284Y030200D01*
X004298Y030208D01*
X004314Y030213D01*
X004330Y030214D01*
X004346Y030211D01*
X004361Y030204D01*
X004375Y030195D01*
X004385Y030182D01*
X004393Y030167D01*
X004397Y030151D01*
X004397Y030135D01*
X004393Y030119D01*
X004385Y030104D01*
X004375Y030091D01*
X004362Y030082D01*
X004346Y030075D01*
X004330Y030072D01*
X004314Y030073D01*
X004298Y030078D01*
X004284Y030086D01*
X004272Y030097D01*
X004263Y030111D01*
X004257Y030127D01*
X004255Y030143D01*
X002126Y030143D02*
X001476Y030143D01*
X001526Y029693D02*
X000876Y029693D01*
X000905Y030143D02*
X000907Y030159D01*
X000913Y030175D01*
X000922Y030189D01*
X000934Y030200D01*
X000948Y030208D01*
X000964Y030213D01*
X000980Y030214D01*
X000996Y030211D01*
X001011Y030204D01*
X001025Y030195D01*
X001035Y030182D01*
X001043Y030167D01*
X001047Y030151D01*
X001047Y030135D01*
X001043Y030119D01*
X001035Y030104D01*
X001025Y030091D01*
X001012Y030082D01*
X000996Y030075D01*
X000980Y030072D01*
X000964Y030073D01*
X000948Y030078D01*
X000934Y030086D01*
X000922Y030097D01*
X000913Y030111D01*
X000907Y030127D01*
X000905Y030143D01*
X001955Y029693D02*
X001957Y029709D01*
X001963Y029725D01*
X001972Y029739D01*
X001984Y029750D01*
X001998Y029758D01*
X002014Y029763D01*
X002030Y029764D01*
X002046Y029761D01*
X002061Y029754D01*
X002075Y029745D01*
X002085Y029732D01*
X002093Y029717D01*
X002097Y029701D01*
X002097Y029685D01*
X002093Y029669D01*
X002085Y029654D01*
X002075Y029641D01*
X002062Y029632D01*
X002046Y029625D01*
X002030Y029622D01*
X002014Y029623D01*
X001998Y029628D01*
X001984Y029636D01*
X001972Y029647D01*
X001963Y029661D01*
X001957Y029677D01*
X001955Y029693D01*
D15*
X006196Y009945D02*
X006196Y005083D01*
X010055Y005083D01*
X010055Y009935D01*
X010645Y009984D02*
X005606Y009984D01*
X005606Y013400D01*
X005261Y013429D02*
X010990Y013429D01*
X010990Y019000D01*
X005261Y019000D01*
X005261Y013429D01*
X010645Y013390D02*
X010645Y009984D01*
X019261Y013429D02*
X024990Y013429D01*
X024990Y019000D01*
X019261Y019000D01*
X019261Y013429D01*
X019606Y013400D02*
X019606Y009984D01*
X024645Y009984D01*
X024645Y013390D01*
X020196Y009945D02*
X020196Y005083D01*
X024055Y005083D01*
X024055Y009935D01*
X029606Y009984D02*
X029606Y013400D01*
X029261Y013429D02*
X034990Y013429D01*
X034990Y019000D01*
X029261Y019000D01*
X029261Y013429D01*
X029606Y009984D02*
X034645Y009984D01*
X034645Y013390D01*
X034055Y009935D02*
X034055Y005083D01*
X030196Y005083D01*
X030196Y009945D01*
X043428Y022448D02*
X043428Y024338D01*
X043624Y024338D01*
X043624Y022448D01*
X043428Y022448D01*
X043624Y022448D02*
X044924Y022448D01*
X044924Y024338D01*
X043624Y024338D01*
X048295Y026663D02*
X048295Y026978D01*
X050165Y026978D01*
X050165Y030009D01*
X048295Y030009D01*
X048295Y030324D01*
X050736Y030324D01*
X050165Y030324D01*
X050736Y030324D02*
X050736Y029281D01*
X051582Y029281D01*
X051878Y029576D01*
X053374Y029576D01*
X053374Y029241D01*
X053836Y029241D01*
X053836Y027745D01*
X053374Y027745D01*
X053374Y027411D01*
X051878Y027411D01*
X051582Y027706D01*
X050736Y027706D01*
X050736Y026663D01*
X050165Y026663D01*
X050736Y026663D02*
X048295Y026663D01*
X039456Y034063D02*
X039141Y034063D01*
X039141Y035933D01*
X036110Y035933D01*
X036110Y034063D01*
X035795Y034063D01*
X035795Y036504D01*
X035795Y035933D01*
X035795Y036504D02*
X036838Y036504D01*
X036838Y037350D01*
X036543Y037645D01*
X036543Y039141D01*
X036878Y039141D01*
X036878Y039604D01*
X038374Y039604D01*
X038374Y039141D01*
X038708Y039141D01*
X038708Y037645D01*
X038413Y037350D01*
X038413Y036504D01*
X039456Y036504D01*
X039456Y035933D01*
X039456Y036504D02*
X039456Y034063D01*
X022940Y029748D02*
X022940Y028539D01*
X022311Y028539D01*
X022311Y029748D01*
X022940Y029748D01*
X022728Y029525D02*
X022507Y029525D01*
X022626Y029419D02*
X022626Y029639D01*
X022331Y030959D02*
X018320Y030959D01*
X018320Y034914D01*
X022331Y034914D01*
X022331Y030959D01*
X022335Y034954D02*
X018316Y034954D01*
X018316Y035116D01*
X018996Y035296D01*
X021656Y035296D01*
X022336Y035116D01*
X022336Y034954D01*
X018316Y034954D01*
X018316Y035116D01*
X018996Y035296D01*
X021656Y035296D01*
X022335Y035116D01*
X022335Y034954D01*
X022336Y035017D02*
X018316Y035017D01*
X018316Y035095D02*
X022336Y035095D01*
X022118Y035174D02*
X018533Y035174D01*
X018830Y035252D02*
X021821Y035252D01*
X013436Y032316D02*
X013436Y032154D01*
X009416Y032154D01*
X013435Y032154D01*
X013435Y032316D01*
X012756Y032496D01*
X013436Y032316D01*
X013436Y032269D02*
X009416Y032269D01*
X009416Y032316D02*
X010096Y032496D01*
X012756Y032496D01*
X010096Y032496D01*
X009416Y032316D01*
X009416Y032154D01*
X009416Y032316D01*
X009535Y032348D02*
X013316Y032348D01*
X013436Y032191D02*
X009416Y032191D01*
X009420Y032114D02*
X013431Y032114D01*
X013431Y028159D01*
X009420Y028159D01*
X009420Y032114D01*
X009832Y032426D02*
X013019Y032426D01*
X013411Y026948D02*
X013411Y025739D01*
X014040Y025739D01*
X014040Y026948D01*
X013411Y026948D01*
X013726Y026068D02*
X013726Y025847D01*
X013623Y025961D02*
X013844Y025961D01*
X009182Y024987D02*
X008985Y024987D01*
X006269Y024987D01*
X006269Y020900D01*
X008985Y020900D01*
X008985Y024987D01*
X009182Y024987D02*
X009182Y020900D01*
X008985Y020900D01*
X004676Y029393D02*
X002976Y029393D01*
X002976Y030393D01*
X004676Y030393D01*
X004676Y029393D01*
X002326Y029393D02*
X000626Y029393D01*
X000626Y030393D01*
X002326Y030393D01*
X002326Y029393D01*
D16*
X005576Y029193D02*
X005576Y027693D01*
X005826Y027443D01*
X006326Y027443D01*
X006576Y027693D01*
X006576Y029193D01*
X006826Y029443D01*
X007326Y029443D01*
X007576Y029193D01*
X007826Y029443D01*
X008326Y029443D01*
X008576Y029193D01*
X008576Y027693D01*
X008326Y027443D01*
X007826Y027443D01*
X007576Y027693D01*
X007576Y029193D01*
X006576Y029193D02*
X006326Y029443D01*
X005826Y029443D01*
X005576Y029193D01*
X006576Y027693D02*
X006826Y027443D01*
X007326Y027443D01*
X007576Y027693D01*
X007164Y026490D02*
X007164Y026297D01*
X006987Y026297D02*
X006987Y026490D01*
X007537Y025940D02*
X007537Y025747D01*
X007714Y025747D02*
X007714Y025940D01*
X004322Y025981D02*
X004129Y025981D01*
X004129Y025805D02*
X004322Y025805D01*
X010629Y023781D02*
X010822Y023781D01*
X010822Y023605D02*
X010629Y023605D01*
X010629Y023281D02*
X010822Y023281D01*
X010822Y023105D02*
X010629Y023105D01*
X013506Y025693D02*
X013946Y025693D01*
X013946Y026993D02*
X013506Y026993D01*
X021416Y023023D02*
X021416Y021163D01*
X022835Y021163D01*
X022835Y023023D01*
X021416Y023023D01*
X022179Y023355D02*
X022372Y023355D01*
X022372Y023531D02*
X022179Y023531D01*
X022214Y019990D02*
X022214Y019797D01*
X022037Y019797D02*
X022037Y019990D01*
X032037Y019990D02*
X032037Y019797D01*
X032214Y019797D02*
X032214Y019990D01*
X034866Y019363D02*
X036285Y019363D01*
X036285Y021223D01*
X034866Y021223D01*
X034866Y019363D01*
X037437Y020197D02*
X037437Y020390D01*
X037614Y020390D02*
X037614Y020197D01*
X035722Y021605D02*
X035529Y021605D01*
X035529Y021781D02*
X035722Y021781D01*
X040079Y023555D02*
X040272Y023555D01*
X040272Y023731D02*
X040079Y023731D01*
X041829Y023731D02*
X042022Y023731D01*
X042022Y023555D02*
X041829Y023555D01*
X041829Y023231D02*
X042022Y023231D01*
X042022Y023055D02*
X041829Y023055D01*
X041485Y025163D02*
X040066Y025163D01*
X040066Y027023D01*
X041485Y027023D01*
X041485Y025163D01*
X042637Y025447D02*
X042637Y025640D01*
X042814Y025640D02*
X042814Y025447D01*
X043579Y025331D02*
X043772Y025331D01*
X043772Y025155D02*
X043579Y025155D01*
X046137Y022990D02*
X046137Y022797D01*
X046314Y022797D02*
X046314Y022990D01*
X046014Y021490D02*
X046014Y021297D01*
X045837Y021297D02*
X045837Y021490D01*
X044972Y021555D02*
X044779Y021555D01*
X044779Y021731D02*
X044972Y021731D01*
X047379Y021181D02*
X047572Y021181D01*
X047572Y021005D02*
X047379Y021005D01*
X038064Y025347D02*
X038064Y025540D01*
X037887Y025540D02*
X037887Y025347D01*
X041529Y029655D02*
X041722Y029655D01*
X041722Y029831D02*
X041529Y029831D01*
X042537Y029947D02*
X042537Y030140D01*
X042714Y030140D02*
X042714Y029947D01*
X043387Y029940D02*
X043387Y029747D01*
X043564Y029747D02*
X043564Y029940D01*
X043937Y028990D02*
X043937Y028797D01*
X044114Y028797D02*
X044114Y028990D01*
X037472Y031805D02*
X037279Y031805D01*
X037279Y031981D02*
X037472Y031981D01*
X032926Y033493D02*
X032926Y033993D01*
X032676Y034243D01*
X032926Y034493D01*
X032926Y034993D01*
X032676Y035243D01*
X032176Y035243D01*
X031926Y034993D01*
X031926Y034493D01*
X032176Y034243D01*
X032676Y034243D01*
X032176Y034243D02*
X031926Y033993D01*
X031926Y033493D01*
X032176Y033243D01*
X032676Y033243D01*
X032926Y033493D01*
X032464Y032040D02*
X032464Y031847D01*
X032287Y031847D02*
X032287Y032040D01*
X030526Y032193D02*
X030526Y035693D01*
X030026Y035693D01*
X030026Y035793D01*
X029526Y035793D01*
X029526Y035693D01*
X027276Y035693D01*
X027276Y035793D01*
X026776Y035793D01*
X026776Y035693D01*
X024526Y035693D01*
X024526Y035793D01*
X024026Y035793D01*
X024026Y035693D01*
X023526Y035693D01*
X023526Y032193D01*
X025226Y032193D01*
X025226Y032243D01*
X025826Y032243D01*
X025826Y032193D01*
X025776Y032393D01*
X025326Y032393D01*
X025326Y032593D01*
X025326Y032693D01*
X024026Y032693D01*
X024026Y035193D01*
X030026Y035193D01*
X030026Y032693D01*
X029726Y032693D01*
X028326Y032693D01*
X028326Y032593D01*
X028326Y032393D01*
X028526Y032393D01*
X029526Y032393D01*
X029726Y032393D01*
X029726Y032593D01*
X029726Y032693D01*
X029526Y032393D02*
X029376Y032193D01*
X027826Y032193D01*
X027826Y032593D01*
X027826Y032693D01*
X028326Y032693D01*
X028526Y032393D02*
X028676Y032193D01*
X030526Y032193D01*
X027826Y032193D02*
X026226Y032193D01*
X026226Y032393D01*
X025776Y032393D01*
X025826Y032193D02*
X026226Y032193D01*
X026226Y032393D02*
X026226Y032593D01*
X026226Y032693D01*
X025326Y032693D01*
X026226Y032693D02*
X026226Y032993D01*
X027826Y032993D01*
X027826Y032693D01*
X029557Y029953D02*
X029557Y029916D01*
X029557Y029953D02*
X030194Y029953D01*
X030194Y029916D01*
X030194Y029953D02*
X030194Y028833D01*
X030194Y028870D01*
X030194Y028833D02*
X029557Y028833D01*
X029557Y028870D01*
X029557Y028833D02*
X029557Y029953D01*
X029557Y029599D02*
X029557Y029562D01*
X029557Y029225D02*
X029557Y029188D01*
X030194Y029188D02*
X030194Y029599D01*
X022846Y029793D02*
X022406Y029793D01*
X022406Y028493D02*
X022846Y028493D01*
X012726Y033543D02*
X012476Y033293D01*
X011976Y033293D01*
X011726Y033543D01*
X011476Y033293D01*
X010976Y033293D01*
X010726Y033543D01*
X010476Y033293D01*
X009976Y033293D01*
X009726Y033543D01*
X009726Y034043D01*
X009976Y034293D01*
X010476Y034293D01*
X010726Y034043D01*
X010976Y034293D01*
X011476Y034293D01*
X011726Y034043D01*
X011976Y034293D01*
X012476Y034293D01*
X012726Y034043D01*
X012726Y033543D01*
X011726Y033543D02*
X011726Y034043D01*
X010726Y034043D02*
X010726Y033543D01*
X004076Y033564D02*
X003686Y033564D01*
X003686Y033622D02*
X004076Y033622D01*
X004076Y033681D02*
X003686Y033681D01*
X003686Y033739D02*
X004076Y033739D01*
X004076Y033798D02*
X003686Y033798D01*
X003686Y033856D02*
X004076Y033856D01*
X004076Y033915D02*
X003686Y033915D01*
X003686Y033973D02*
X004076Y033973D01*
X004076Y034032D02*
X003686Y034032D01*
X003686Y034090D02*
X004076Y034090D01*
X004076Y034149D02*
X003686Y034149D01*
X003686Y034207D02*
X004076Y034207D01*
X004076Y034266D02*
X003686Y034266D01*
X003686Y034324D02*
X004076Y034324D01*
X004076Y034383D02*
X003686Y034383D01*
X003686Y034441D02*
X004076Y034441D01*
X004076Y034500D02*
X003686Y034500D01*
X003686Y034558D02*
X004076Y034558D01*
X004076Y034617D02*
X003686Y034617D01*
X003686Y034643D02*
X003286Y034643D01*
X003276Y034693D01*
X004076Y034693D01*
X000576Y034693D01*
X000576Y034973D01*
X001156Y034973D01*
X001166Y034873D01*
X001206Y034793D01*
X001266Y034733D01*
X001356Y034693D01*
X001486Y034703D01*
X001576Y034753D01*
X001626Y034833D01*
X001706Y034833D01*
X001776Y034863D01*
X001846Y034903D01*
X001916Y034913D01*
X001966Y034873D01*
X002016Y034803D01*
X002056Y034753D01*
X002106Y034703D01*
X002206Y034693D01*
X002286Y034713D01*
X002346Y034833D01*
X002386Y034913D01*
X002436Y035003D01*
X002456Y035043D01*
X002476Y034993D01*
X002496Y034913D01*
X002526Y034853D01*
X002576Y034783D01*
X002626Y034723D01*
X002706Y034683D01*
X002796Y034693D01*
X002866Y034783D01*
X002936Y034883D01*
X002976Y034923D01*
X003006Y034923D01*
X003076Y034893D01*
X003116Y034873D01*
X003196Y034853D01*
X003256Y034843D01*
X003266Y034833D01*
X003306Y034773D01*
X003356Y034733D01*
X003426Y034703D01*
X003486Y034693D01*
X003586Y034713D01*
X003676Y034783D01*
X003716Y034873D01*
X003736Y034983D01*
X004076Y034983D01*
X004076Y034693D01*
X004076Y031943D01*
X003486Y031943D01*
X003486Y032983D01*
X003786Y033283D01*
X003736Y033343D01*
X003706Y033373D01*
X003686Y033413D01*
X003686Y034643D01*
X003612Y034734D02*
X004076Y034734D01*
X004076Y034792D02*
X003680Y034792D01*
X003706Y034851D02*
X004076Y034851D01*
X004076Y034909D02*
X003722Y034909D01*
X003726Y034953D02*
X004076Y034953D01*
X004076Y035443D01*
X000576Y035443D01*
X000576Y034953D01*
X001166Y034933D01*
X001166Y035013D01*
X001226Y035093D01*
X001286Y035153D01*
X001356Y035173D01*
X001436Y035173D01*
X001506Y035163D01*
X001556Y035133D01*
X001596Y035093D01*
X001626Y035043D01*
X001636Y035013D01*
X001676Y035013D01*
X001726Y035033D01*
X001786Y035063D01*
X001836Y035083D01*
X001896Y035103D01*
X001936Y035103D01*
X001986Y035083D01*
X002026Y035053D01*
X002076Y035013D01*
X002116Y034963D01*
X002136Y034923D01*
X002166Y034883D01*
X002206Y034943D01*
X002256Y035043D01*
X002296Y035103D01*
X002336Y035163D01*
X002376Y035213D01*
X002406Y035233D01*
X002456Y035243D01*
X002486Y035233D01*
X002516Y035213D01*
X002556Y035163D01*
X002596Y035103D01*
X002616Y035043D01*
X002636Y035003D01*
X002656Y034953D01*
X002676Y034913D01*
X002696Y034883D01*
X002716Y034863D01*
X002746Y034883D01*
X002786Y034943D01*
X002816Y034993D01*
X002856Y035043D01*
X002906Y035093D01*
X002966Y035103D01*
X003036Y035103D01*
X003096Y035083D01*
X003126Y035063D01*
X003166Y035033D01*
X003206Y035013D01*
X003246Y035013D01*
X003286Y035083D01*
X003346Y035143D01*
X002569Y035143D01*
X002602Y035085D02*
X002897Y035085D01*
X002842Y035026D02*
X002624Y035026D01*
X002650Y034968D02*
X002800Y034968D01*
X002763Y034909D02*
X002678Y034909D01*
X002569Y034792D02*
X002325Y034792D01*
X002296Y034734D02*
X002617Y034734D01*
X002636Y034693D02*
X002636Y034573D01*
X002546Y034603D01*
X002426Y034623D01*
X002316Y034613D01*
X002176Y034573D01*
X002076Y034513D01*
X001956Y034423D01*
X001866Y034333D01*
X001796Y034193D01*
X001766Y034053D01*
X001756Y033923D01*
X001796Y033773D01*
X001836Y033653D01*
X001906Y033543D01*
X002026Y033423D01*
X002106Y033363D01*
X002246Y033293D01*
X002396Y033263D01*
X002536Y033283D01*
X002656Y033313D01*
X002666Y032713D01*
X002686Y032553D01*
X002746Y032403D01*
X002876Y032253D01*
X002876Y031943D01*
X003516Y031943D01*
X003516Y032983D01*
X003456Y033003D01*
X003366Y033103D01*
X003296Y033193D01*
X003276Y033313D01*
X003276Y034693D01*
X002646Y034693D01*
X002646Y034613D01*
X002636Y034643D01*
X003086Y034643D01*
X003086Y032693D01*
X003096Y032643D01*
X003136Y032583D01*
X003186Y032533D01*
X002886Y032233D01*
X002876Y031943D01*
X001716Y031943D01*
X001716Y034693D01*
X002636Y034693D01*
X002636Y034675D02*
X001716Y034675D01*
X001706Y034675D02*
X001426Y034675D01*
X000576Y034675D01*
X000576Y034693D02*
X000576Y031943D01*
X001396Y031943D01*
X001396Y032243D01*
X001096Y032553D01*
X001166Y032643D01*
X001186Y032733D01*
X001206Y032903D01*
X001206Y034643D01*
X001426Y034643D01*
X001426Y034693D01*
X000576Y034693D01*
X000576Y034734D02*
X001265Y034734D01*
X001206Y034792D02*
X000576Y034792D01*
X000576Y034851D02*
X001177Y034851D01*
X001162Y034909D02*
X000576Y034909D01*
X000576Y034968D02*
X001166Y034968D01*
X001156Y034968D02*
X000576Y034968D01*
X000576Y035026D02*
X001175Y035026D01*
X001219Y035085D02*
X000576Y035085D01*
X000576Y035143D02*
X001276Y035143D01*
X001539Y035143D02*
X002322Y035143D01*
X002283Y035085D02*
X001982Y035085D01*
X002059Y035026D02*
X002247Y035026D01*
X002218Y034968D02*
X002112Y034968D01*
X002146Y034909D02*
X002183Y034909D01*
X002354Y034851D02*
X002527Y034851D01*
X002498Y034909D02*
X002384Y034909D01*
X002416Y034968D02*
X002482Y034968D01*
X002462Y035026D02*
X002447Y035026D01*
X002525Y035202D02*
X004076Y035202D01*
X004076Y035260D02*
X000576Y035260D01*
X000576Y035202D02*
X002366Y035202D01*
X001982Y034851D02*
X001747Y034851D01*
X001888Y034909D02*
X001920Y034909D01*
X002024Y034792D02*
X001600Y034792D01*
X001541Y034734D02*
X002075Y034734D01*
X002151Y034558D02*
X001716Y034558D01*
X001706Y034558D02*
X001626Y034558D01*
X001626Y034500D02*
X001706Y034500D01*
X001716Y034500D02*
X002058Y034500D01*
X001980Y034441D02*
X001716Y034441D01*
X001706Y034441D02*
X001626Y034441D01*
X001626Y034383D02*
X001706Y034383D01*
X001716Y034383D02*
X001915Y034383D01*
X001861Y034324D02*
X001716Y034324D01*
X001706Y034324D02*
X001626Y034324D01*
X001626Y034266D02*
X001706Y034266D01*
X001716Y034266D02*
X001832Y034266D01*
X001803Y034207D02*
X001716Y034207D01*
X001706Y034207D02*
X001626Y034207D01*
X001626Y034149D02*
X001706Y034149D01*
X001716Y034149D02*
X001786Y034149D01*
X001774Y034090D02*
X001716Y034090D01*
X001706Y034090D02*
X001626Y034090D01*
X001626Y034032D02*
X001706Y034032D01*
X001716Y034032D02*
X001764Y034032D01*
X001759Y033973D02*
X001716Y033973D01*
X001706Y033973D02*
X001626Y033973D01*
X001626Y033915D02*
X001706Y033915D01*
X001716Y033915D02*
X001758Y033915D01*
X001773Y033856D02*
X001716Y033856D01*
X001706Y033856D02*
X001626Y033856D01*
X001626Y033798D02*
X001706Y033798D01*
X001716Y033798D02*
X001789Y033798D01*
X001807Y033739D02*
X001716Y033739D01*
X001706Y033739D02*
X001626Y033739D01*
X001626Y033681D02*
X001706Y033681D01*
X001716Y033681D02*
X001826Y033681D01*
X001855Y033622D02*
X001716Y033622D01*
X001706Y033622D02*
X001626Y033622D01*
X001626Y033564D02*
X001706Y033564D01*
X001716Y033564D02*
X001892Y033564D01*
X001943Y033505D02*
X001716Y033505D01*
X001706Y033505D02*
X001626Y033505D01*
X001626Y033447D02*
X001706Y033447D01*
X001716Y033447D02*
X002002Y033447D01*
X002072Y033388D02*
X001716Y033388D01*
X001706Y033388D02*
X001626Y033388D01*
X001626Y033330D02*
X001706Y033330D01*
X001716Y033330D02*
X002172Y033330D01*
X002355Y033271D02*
X001716Y033271D01*
X001706Y033271D02*
X001626Y033271D01*
X001626Y033213D02*
X001706Y033213D01*
X001716Y033213D02*
X002657Y033213D01*
X002656Y033271D02*
X002452Y033271D01*
X002658Y033154D02*
X001716Y033154D01*
X001706Y033154D02*
X001626Y033154D01*
X001626Y033096D02*
X001706Y033096D01*
X001716Y033096D02*
X002659Y033096D01*
X002660Y033037D02*
X001716Y033037D01*
X001706Y033037D02*
X001626Y033037D01*
X001626Y032979D02*
X001706Y032979D01*
X001716Y032979D02*
X002661Y032979D01*
X002662Y032920D02*
X001716Y032920D01*
X001706Y032920D02*
X001626Y032920D01*
X001626Y032862D02*
X001706Y032862D01*
X001716Y032862D02*
X002663Y032862D01*
X002664Y032803D02*
X001716Y032803D01*
X001706Y032803D02*
X001624Y032803D01*
X001626Y032823D02*
X001606Y032573D01*
X001556Y032433D01*
X001486Y032333D01*
X001386Y032223D01*
X001386Y031943D01*
X001706Y031943D01*
X001706Y034693D01*
X001426Y034693D01*
X001426Y034643D01*
X001626Y034643D01*
X001626Y032823D01*
X001619Y032745D02*
X001706Y032745D01*
X001716Y032745D02*
X002665Y032745D01*
X002669Y032686D02*
X001716Y032686D01*
X001706Y032686D02*
X001615Y032686D01*
X001610Y032628D02*
X001706Y032628D01*
X001716Y032628D02*
X002676Y032628D01*
X002684Y032569D02*
X001716Y032569D01*
X001706Y032569D02*
X001604Y032569D01*
X001583Y032511D02*
X001706Y032511D01*
X001716Y032511D02*
X002703Y032511D01*
X002726Y032452D02*
X001716Y032452D01*
X001706Y032452D02*
X001562Y032452D01*
X001528Y032394D02*
X001706Y032394D01*
X001716Y032394D02*
X002754Y032394D01*
X002804Y032335D02*
X001716Y032335D01*
X001706Y032335D02*
X001487Y032335D01*
X001434Y032277D02*
X001706Y032277D01*
X001716Y032277D02*
X002855Y032277D01*
X002876Y032218D02*
X001716Y032218D01*
X001706Y032218D02*
X001386Y032218D01*
X001396Y032218D02*
X000576Y032218D01*
X000576Y032160D02*
X001396Y032160D01*
X001386Y032160D02*
X001706Y032160D01*
X001716Y032160D02*
X002876Y032160D01*
X002883Y032160D02*
X003516Y032160D01*
X003486Y032160D02*
X004076Y032160D01*
X004076Y032218D02*
X003486Y032218D01*
X003516Y032218D02*
X002885Y032218D01*
X002929Y032277D02*
X003516Y032277D01*
X003486Y032277D02*
X004076Y032277D01*
X004076Y032335D02*
X003486Y032335D01*
X003516Y032335D02*
X002988Y032335D01*
X003046Y032394D02*
X003516Y032394D01*
X003486Y032394D02*
X004076Y032394D01*
X004076Y032452D02*
X003486Y032452D01*
X003516Y032452D02*
X003105Y032452D01*
X003163Y032511D02*
X003516Y032511D01*
X003486Y032511D02*
X004076Y032511D01*
X004076Y032569D02*
X003486Y032569D01*
X003516Y032569D02*
X003149Y032569D01*
X003106Y032628D02*
X003516Y032628D01*
X003486Y032628D02*
X004076Y032628D01*
X004076Y032686D02*
X003486Y032686D01*
X003516Y032686D02*
X003087Y032686D01*
X003086Y032745D02*
X003516Y032745D01*
X003486Y032745D02*
X004076Y032745D01*
X004076Y032803D02*
X003486Y032803D01*
X003516Y032803D02*
X003086Y032803D01*
X003086Y032862D02*
X003516Y032862D01*
X003486Y032862D02*
X004076Y032862D01*
X004076Y032920D02*
X003486Y032920D01*
X003516Y032920D02*
X003086Y032920D01*
X003086Y032979D02*
X003516Y032979D01*
X003486Y032979D02*
X004076Y032979D01*
X004076Y033037D02*
X003540Y033037D01*
X003598Y033096D02*
X004076Y033096D01*
X004076Y033154D02*
X003657Y033154D01*
X003715Y033213D02*
X004076Y033213D01*
X004076Y033271D02*
X003774Y033271D01*
X003747Y033330D02*
X004076Y033330D01*
X004076Y033388D02*
X003698Y033388D01*
X003686Y033447D02*
X004076Y033447D01*
X004076Y033505D02*
X003686Y033505D01*
X003276Y033505D02*
X003086Y033505D01*
X003086Y033447D02*
X003276Y033447D01*
X003276Y033388D02*
X003086Y033388D01*
X003086Y033330D02*
X003276Y033330D01*
X003283Y033271D02*
X003086Y033271D01*
X003086Y033213D02*
X003292Y033213D01*
X003326Y033154D02*
X003086Y033154D01*
X003086Y033096D02*
X003372Y033096D01*
X003425Y033037D02*
X003086Y033037D01*
X003086Y033564D02*
X003276Y033564D01*
X003276Y033622D02*
X003086Y033622D01*
X003086Y033681D02*
X003276Y033681D01*
X003276Y033739D02*
X003086Y033739D01*
X003086Y033798D02*
X003276Y033798D01*
X003276Y033856D02*
X003086Y033856D01*
X003086Y033915D02*
X003276Y033915D01*
X003276Y033973D02*
X003086Y033973D01*
X003086Y034032D02*
X003276Y034032D01*
X003276Y034090D02*
X003086Y034090D01*
X003086Y034149D02*
X003276Y034149D01*
X003276Y034207D02*
X003086Y034207D01*
X003086Y034266D02*
X003276Y034266D01*
X003276Y034324D02*
X003086Y034324D01*
X003086Y034383D02*
X003276Y034383D01*
X003276Y034441D02*
X003086Y034441D01*
X003086Y034500D02*
X003276Y034500D01*
X003276Y034558D02*
X003086Y034558D01*
X003086Y034617D02*
X003276Y034617D01*
X003276Y034675D02*
X002646Y034675D01*
X002644Y034617D02*
X002646Y034617D01*
X002636Y034617D02*
X002464Y034617D01*
X002355Y034617D02*
X001716Y034617D01*
X001706Y034617D02*
X001626Y034617D01*
X001631Y035026D02*
X001708Y035026D01*
X001601Y035085D02*
X001840Y035085D01*
X001206Y034617D02*
X000576Y034617D01*
X000576Y034558D02*
X001206Y034558D01*
X001206Y034500D02*
X000576Y034500D01*
X000576Y034441D02*
X001206Y034441D01*
X001206Y034383D02*
X000576Y034383D01*
X000576Y034324D02*
X001206Y034324D01*
X001206Y034266D02*
X000576Y034266D01*
X000576Y034207D02*
X001206Y034207D01*
X001206Y034149D02*
X000576Y034149D01*
X000576Y034090D02*
X001206Y034090D01*
X001206Y034032D02*
X000576Y034032D01*
X000576Y033973D02*
X001206Y033973D01*
X001206Y033915D02*
X000576Y033915D01*
X000576Y033856D02*
X001206Y033856D01*
X001206Y033798D02*
X000576Y033798D01*
X000576Y033739D02*
X001206Y033739D01*
X001206Y033681D02*
X000576Y033681D01*
X000576Y033622D02*
X001206Y033622D01*
X001206Y033564D02*
X000576Y033564D01*
X000576Y033505D02*
X001206Y033505D01*
X001206Y033447D02*
X000576Y033447D01*
X000576Y033388D02*
X001206Y033388D01*
X001206Y033330D02*
X000576Y033330D01*
X000576Y033271D02*
X001206Y033271D01*
X001206Y033213D02*
X000576Y033213D01*
X000576Y033154D02*
X001206Y033154D01*
X001206Y033096D02*
X000576Y033096D01*
X000576Y033037D02*
X001206Y033037D01*
X001206Y032979D02*
X000576Y032979D01*
X000576Y032920D02*
X001206Y032920D01*
X001201Y032862D02*
X000576Y032862D01*
X000576Y032803D02*
X001194Y032803D01*
X001187Y032745D02*
X000576Y032745D01*
X000576Y032686D02*
X001175Y032686D01*
X001154Y032628D02*
X000576Y032628D01*
X000576Y032569D02*
X001108Y032569D01*
X001137Y032511D02*
X000576Y032511D01*
X000576Y032452D02*
X001193Y032452D01*
X001250Y032394D02*
X000576Y032394D01*
X000576Y032335D02*
X001306Y032335D01*
X001363Y032277D02*
X000576Y032277D01*
X000576Y032101D02*
X001396Y032101D01*
X001386Y032101D02*
X001706Y032101D01*
X001716Y032101D02*
X002876Y032101D01*
X002881Y032101D02*
X003516Y032101D01*
X003486Y032101D02*
X004076Y032101D01*
X004076Y032043D02*
X003486Y032043D01*
X003516Y032043D02*
X002879Y032043D01*
X002876Y032043D02*
X001716Y032043D01*
X001706Y032043D02*
X001386Y032043D01*
X001396Y032043D02*
X000576Y032043D01*
X000576Y031984D02*
X001396Y031984D01*
X001386Y031984D02*
X001706Y031984D01*
X001716Y031984D02*
X002876Y031984D01*
X002877Y031984D02*
X003516Y031984D01*
X003486Y031984D02*
X004076Y031984D01*
X002127Y033933D02*
X002129Y033965D01*
X002135Y033996D01*
X002144Y034027D01*
X002158Y034056D01*
X002175Y034083D01*
X002195Y034107D01*
X002217Y034130D01*
X002243Y034149D01*
X002271Y034165D01*
X002300Y034177D01*
X002331Y034186D01*
X002362Y034191D01*
X002394Y034192D01*
X002426Y034189D01*
X002457Y034182D01*
X002487Y034172D01*
X002515Y034157D01*
X002542Y034140D01*
X002566Y034119D01*
X002588Y034095D01*
X002606Y034069D01*
X002621Y034041D01*
X002633Y034012D01*
X002641Y033981D01*
X002645Y033949D01*
X002645Y033917D01*
X002641Y033885D01*
X002633Y033854D01*
X002621Y033825D01*
X002606Y033797D01*
X002588Y033771D01*
X002566Y033747D01*
X002542Y033726D01*
X002516Y033709D01*
X002487Y033694D01*
X002457Y033684D01*
X002426Y033677D01*
X002394Y033674D01*
X002362Y033675D01*
X002331Y033680D01*
X002300Y033689D01*
X002271Y033701D01*
X002243Y033717D01*
X002217Y033736D01*
X002195Y033759D01*
X002175Y033783D01*
X002158Y033810D01*
X002144Y033839D01*
X002135Y033870D01*
X002129Y033901D01*
X002127Y033933D01*
X002354Y033943D02*
X002356Y033952D01*
X002361Y033959D01*
X002369Y033964D01*
X002378Y033965D01*
X002387Y033962D01*
X002394Y033956D01*
X002398Y033948D01*
X002398Y033938D01*
X002394Y033930D01*
X002387Y033924D01*
X002378Y033921D01*
X002369Y033922D01*
X002361Y033927D01*
X002356Y033934D01*
X002354Y033943D01*
X002332Y033943D02*
X002334Y033957D01*
X002339Y033970D01*
X002348Y033981D01*
X002359Y033990D01*
X002372Y033995D01*
X002386Y033997D01*
X002400Y033995D01*
X002413Y033990D01*
X002424Y033981D01*
X002433Y033970D01*
X002438Y033957D01*
X002440Y033943D01*
X002438Y033929D01*
X002433Y033916D01*
X002424Y033905D01*
X002413Y033896D01*
X002400Y033891D01*
X002386Y033889D01*
X002372Y033891D01*
X002359Y033896D01*
X002348Y033905D01*
X002339Y033916D01*
X002334Y033929D01*
X002332Y033943D01*
X002177Y033943D02*
X002179Y033971D01*
X002185Y033999D01*
X002194Y034026D01*
X002207Y034052D01*
X002224Y034075D01*
X002243Y034096D01*
X002265Y034114D01*
X002290Y034129D01*
X002316Y034140D01*
X002343Y034148D01*
X002372Y034152D01*
X002400Y034152D01*
X002429Y034148D01*
X002456Y034140D01*
X002482Y034129D01*
X002507Y034114D01*
X002529Y034096D01*
X002548Y034075D01*
X002565Y034052D01*
X002578Y034026D01*
X002587Y033999D01*
X002593Y033971D01*
X002595Y033943D01*
X002593Y033915D01*
X002587Y033887D01*
X002578Y033860D01*
X002565Y033834D01*
X002548Y033811D01*
X002529Y033790D01*
X002507Y033772D01*
X002482Y033757D01*
X002456Y033746D01*
X002429Y033738D01*
X002400Y033734D01*
X002372Y033734D01*
X002343Y033738D01*
X002316Y033746D01*
X002290Y033757D01*
X002265Y033772D01*
X002243Y033790D01*
X002224Y033811D01*
X002207Y033834D01*
X002194Y033860D01*
X002185Y033887D01*
X002179Y033915D01*
X002177Y033943D01*
X002294Y033943D02*
X002296Y033963D01*
X002302Y033982D01*
X002311Y034000D01*
X002324Y034015D01*
X002339Y034028D01*
X002357Y034037D01*
X002376Y034043D01*
X002396Y034045D01*
X002416Y034043D01*
X002435Y034037D01*
X002453Y034028D01*
X002468Y034015D01*
X002481Y034000D01*
X002490Y033982D01*
X002496Y033963D01*
X002498Y033943D01*
X002496Y033923D01*
X002490Y033904D01*
X002481Y033886D01*
X002468Y033871D01*
X002453Y033858D01*
X002435Y033849D01*
X002416Y033843D01*
X002396Y033841D01*
X002376Y033843D01*
X002357Y033849D01*
X002339Y033858D01*
X002324Y033871D01*
X002311Y033886D01*
X002302Y033904D01*
X002296Y033923D01*
X002294Y033943D01*
X002238Y033943D02*
X002240Y033968D01*
X002246Y033992D01*
X002255Y034015D01*
X002268Y034036D01*
X002284Y034055D01*
X002303Y034071D01*
X002324Y034084D01*
X002347Y034093D01*
X002371Y034099D01*
X002396Y034101D01*
X002421Y034099D01*
X002445Y034093D01*
X002468Y034084D01*
X002489Y034071D01*
X002508Y034055D01*
X002524Y034036D01*
X002537Y034015D01*
X002546Y033992D01*
X002552Y033968D01*
X002554Y033943D01*
X002552Y033918D01*
X002546Y033894D01*
X002537Y033871D01*
X002524Y033850D01*
X002508Y033831D01*
X002489Y033815D01*
X002468Y033802D01*
X002445Y033793D01*
X002421Y033787D01*
X002396Y033785D01*
X002371Y033787D01*
X002347Y033793D01*
X002324Y033802D01*
X002303Y033815D01*
X002284Y033831D01*
X002268Y033850D01*
X002255Y033871D01*
X002246Y033894D01*
X002240Y033918D01*
X002238Y033943D01*
X002827Y034734D02*
X003355Y034734D01*
X003293Y034792D02*
X002872Y034792D01*
X002913Y034851D02*
X003210Y034851D01*
X003179Y035026D02*
X003253Y035026D01*
X003287Y035085D02*
X003091Y035085D01*
X003038Y034909D02*
X002962Y034909D01*
X003279Y034675D02*
X004076Y034675D01*
X004076Y034968D02*
X003723Y034968D01*
X003733Y034968D02*
X004076Y034968D01*
X004076Y035026D02*
X003706Y035026D01*
X003716Y035003D02*
X003726Y034953D01*
X003716Y035003D02*
X003696Y035053D01*
X003666Y035093D01*
X003626Y035133D01*
X003576Y035163D01*
X003516Y035183D01*
X003456Y035183D01*
X003406Y035173D01*
X003346Y035143D01*
X003609Y035143D02*
X004076Y035143D01*
X004076Y035085D02*
X003672Y035085D01*
X004076Y035319D02*
X000576Y035319D01*
X000576Y035377D02*
X004076Y035377D01*
X004076Y035436D02*
X000576Y035436D01*
X001916Y020073D02*
X003335Y020073D01*
X003335Y018213D01*
X001916Y018213D01*
X001916Y020073D01*
X004537Y018740D02*
X004537Y018547D01*
X004714Y018547D02*
X004714Y018740D01*
X003172Y017731D02*
X002979Y017731D01*
X002979Y017555D02*
X003172Y017555D01*
X003026Y015943D02*
X003526Y015943D01*
X003776Y015693D01*
X003776Y015193D01*
X003526Y014943D01*
X003026Y014943D01*
X002776Y015193D01*
X002526Y014943D01*
X002026Y014943D01*
X001776Y015193D01*
X001776Y015693D01*
X002026Y015943D01*
X002526Y015943D01*
X002776Y015693D01*
X003026Y015943D01*
X002776Y015693D02*
X002776Y015193D01*
D17*
X002915Y017645D03*
X003235Y017645D03*
X010567Y023191D03*
X010887Y023191D03*
X010885Y023695D03*
X010565Y023695D03*
X004387Y025891D03*
X004067Y025891D03*
X022117Y023441D03*
X022437Y023441D03*
X035467Y021691D03*
X035787Y021691D03*
X040015Y023645D03*
X040335Y023645D03*
X041767Y023641D03*
X042087Y023641D03*
X042085Y023145D03*
X041765Y023145D03*
X043515Y025245D03*
X043835Y025245D03*
X044717Y021641D03*
X045037Y021641D03*
X047317Y021091D03*
X047637Y021091D03*
X041787Y029741D03*
X041467Y029741D03*
X037537Y031891D03*
X037217Y031891D03*
D18*
X032374Y031782D03*
X032374Y032102D03*
X037974Y025602D03*
X037974Y025282D03*
X042728Y025384D03*
X042728Y025704D03*
X046224Y023052D03*
X046224Y022732D03*
X045928Y021554D03*
X045928Y021234D03*
X037528Y020454D03*
X037528Y020134D03*
X032124Y020052D03*
X032124Y019732D03*
X022124Y019732D03*
X022124Y020052D03*
X007624Y025682D03*
X007624Y026002D03*
X007074Y026232D03*
X007074Y026552D03*
X004624Y018802D03*
X004624Y018482D03*
X042628Y029884D03*
X042628Y030204D03*
X043474Y030002D03*
X043474Y029682D03*
X044024Y029052D03*
X044024Y028732D03*
D19*
X044658Y028572D02*
X044993Y028572D01*
X044993Y028415D02*
X044658Y028415D01*
X044658Y029215D02*
X044993Y029215D01*
X044993Y029372D02*
X044658Y029372D01*
X043504Y028261D02*
X043504Y027926D01*
X043347Y027926D02*
X043347Y028261D01*
X042093Y027772D02*
X041758Y027772D01*
X041758Y027615D02*
X042093Y027615D01*
X042858Y026872D02*
X043193Y026872D01*
X043193Y026715D02*
X042858Y026715D01*
X042993Y026472D02*
X042658Y026472D01*
X042658Y026315D02*
X042993Y026315D01*
X043958Y025822D02*
X044293Y025822D01*
X044293Y025665D02*
X043958Y025665D01*
X044258Y026165D02*
X044593Y026165D01*
X044593Y026322D02*
X044258Y026322D01*
X044240Y026656D02*
X044811Y026656D01*
X044811Y026931D02*
X044240Y026931D01*
X045366Y026533D02*
X045366Y026243D01*
X045885Y026243D02*
X045885Y026543D01*
X046158Y024322D02*
X046493Y024322D01*
X046493Y024165D02*
X046158Y024165D01*
X046058Y023722D02*
X046393Y023722D01*
X046393Y023565D02*
X046058Y023565D01*
X046447Y021561D02*
X046447Y021226D01*
X046604Y021226D02*
X046604Y021561D01*
X043154Y021776D02*
X043154Y022111D01*
X042997Y022111D02*
X042997Y021776D01*
X042654Y021811D02*
X042654Y021476D01*
X042497Y021476D02*
X042497Y021811D01*
X042093Y022565D02*
X041758Y022565D01*
X041758Y022722D02*
X042093Y022722D01*
X039604Y024426D02*
X039604Y024761D01*
X039447Y024761D02*
X039447Y024426D01*
X039154Y024426D02*
X039154Y024761D01*
X038997Y024761D02*
X038997Y024426D01*
X037104Y025926D02*
X037104Y026261D01*
X036947Y026261D02*
X036947Y025926D01*
X036411Y026156D02*
X035840Y026156D01*
X035840Y026431D02*
X036411Y026431D01*
X036258Y027215D02*
X036593Y027215D01*
X036593Y027372D02*
X036258Y027372D01*
X036508Y027615D02*
X036843Y027615D01*
X036843Y027772D02*
X036508Y027772D01*
X037547Y027061D02*
X037547Y026726D01*
X037704Y026726D02*
X037704Y027061D01*
X039886Y027138D02*
X039990Y027138D01*
X039938Y027138D02*
X039938Y027449D01*
X039886Y027449D02*
X039990Y027449D01*
X040101Y027397D02*
X040153Y027449D01*
X040256Y027449D01*
X040308Y027397D01*
X040423Y027345D02*
X040527Y027449D01*
X040527Y027138D01*
X040630Y027138D02*
X040423Y027138D01*
X040308Y027190D02*
X040256Y027138D01*
X040153Y027138D01*
X040101Y027190D01*
X040101Y027397D01*
X040340Y027956D02*
X040911Y027956D01*
X040911Y028231D02*
X040340Y028231D01*
X039663Y029308D02*
X039663Y029879D01*
X039388Y029879D02*
X039388Y029308D01*
X038854Y029276D02*
X038854Y029611D01*
X038697Y029611D02*
X038697Y029276D01*
X038454Y029276D02*
X038454Y029611D01*
X038297Y029611D02*
X038297Y029276D01*
X037704Y030976D02*
X037704Y031311D01*
X037547Y031311D02*
X037547Y030976D01*
X039266Y030943D02*
X039266Y031243D01*
X039785Y031243D02*
X039785Y030953D01*
X037704Y032476D02*
X037704Y032811D01*
X037547Y032811D02*
X037547Y032476D01*
X034806Y033365D02*
X034345Y033365D01*
X034345Y033595D01*
X034422Y033672D01*
X034575Y033672D01*
X034652Y033595D01*
X034652Y033365D01*
X034652Y033518D02*
X034806Y033672D01*
X034806Y033825D02*
X034345Y033825D01*
X034345Y034132D01*
X034345Y034286D02*
X034345Y034593D01*
X034345Y034746D02*
X034345Y034899D01*
X034345Y034823D02*
X034806Y034823D01*
X034806Y034899D02*
X034806Y034746D01*
X034806Y035053D02*
X034345Y035053D01*
X034806Y035360D01*
X034345Y035360D01*
X034575Y034439D02*
X034575Y034286D01*
X034345Y034286D02*
X034806Y034286D01*
X034806Y034132D02*
X034806Y033825D01*
X034575Y033825D02*
X034575Y033979D01*
X030554Y030611D02*
X030554Y030276D01*
X030397Y030276D02*
X030397Y030611D01*
X028583Y030276D02*
X028583Y029811D01*
X028268Y029811D01*
X028268Y030276D01*
X028583Y030276D01*
X028004Y030161D02*
X028004Y029826D01*
X027847Y029826D02*
X027847Y030161D01*
X028908Y028622D02*
X029243Y028622D01*
X029243Y028465D02*
X028908Y028465D01*
X030397Y028511D02*
X030397Y028176D01*
X030554Y028176D02*
X030554Y028511D01*
X026483Y027226D02*
X026483Y026761D01*
X026168Y026761D01*
X026168Y027226D01*
X026483Y027226D01*
X025904Y026561D02*
X025904Y026226D01*
X025747Y026226D02*
X025747Y026561D01*
X024704Y025861D02*
X024704Y025526D01*
X024547Y025526D02*
X024547Y025861D01*
X023843Y023872D02*
X023508Y023872D01*
X023508Y023715D02*
X023843Y023715D01*
X023793Y023372D02*
X023458Y023372D01*
X023458Y023215D02*
X023793Y023215D01*
X022978Y020999D02*
X023030Y020947D01*
X023030Y020895D01*
X022978Y020843D01*
X022875Y020843D01*
X022823Y020895D01*
X022823Y020947D01*
X022875Y020999D01*
X022978Y020999D01*
X022978Y020843D02*
X023030Y020792D01*
X023030Y020740D01*
X022978Y020688D01*
X022875Y020688D01*
X022823Y020740D01*
X022823Y020792D01*
X022875Y020843D01*
X022708Y020740D02*
X022656Y020688D01*
X022553Y020688D01*
X022501Y020740D01*
X022501Y020947D01*
X022553Y020999D01*
X022656Y020999D01*
X022708Y020947D01*
X022390Y020999D02*
X022286Y020999D01*
X022338Y020999D02*
X022338Y020688D01*
X022286Y020688D02*
X022390Y020688D01*
X020404Y021326D02*
X020404Y021661D01*
X020247Y021661D02*
X020247Y021326D01*
X019904Y021326D02*
X019904Y021661D01*
X019747Y021661D02*
X019747Y021326D01*
X016356Y017710D02*
X016356Y017403D01*
X016049Y017710D01*
X015972Y017710D01*
X015895Y017633D01*
X015895Y017480D01*
X015972Y017403D01*
X015895Y017249D02*
X015895Y016943D01*
X015895Y017096D02*
X016356Y017096D01*
X016356Y016789D02*
X016202Y016636D01*
X016202Y016712D02*
X016202Y016482D01*
X016356Y016482D02*
X015895Y016482D01*
X015895Y016712D01*
X015972Y016789D01*
X016125Y016789D01*
X016202Y016712D01*
X010893Y022115D02*
X010558Y022115D01*
X010558Y022272D02*
X010893Y022272D01*
X010893Y022615D02*
X010558Y022615D01*
X010558Y022772D02*
X010893Y022772D01*
X007928Y023713D02*
X007928Y024024D01*
X007773Y023868D01*
X007980Y023868D01*
X007658Y023765D02*
X007606Y023713D01*
X007503Y023713D01*
X007451Y023765D01*
X007451Y023972D01*
X007503Y024024D01*
X007606Y024024D01*
X007658Y023972D01*
X007340Y024024D02*
X007236Y024024D01*
X007288Y024024D02*
X007288Y023713D01*
X007236Y023713D02*
X007340Y023713D01*
X004943Y023222D02*
X004608Y023222D01*
X004608Y023065D02*
X004943Y023065D01*
X004943Y022772D02*
X004608Y022772D01*
X004608Y022615D02*
X004943Y022615D01*
X003954Y024626D02*
X003954Y024961D01*
X003797Y024961D02*
X003797Y024626D01*
X001956Y027253D02*
X001956Y027560D01*
X001956Y027406D02*
X001495Y027406D01*
X001649Y027253D01*
X005311Y031685D02*
X006217Y030779D01*
X006532Y030779D01*
X006217Y030779D02*
X005311Y031685D01*
X005311Y034007D01*
X006532Y034007D01*
X006587Y033883D02*
X007270Y033883D01*
X007181Y033909D02*
X006670Y033909D01*
X006296Y033791D01*
X005922Y033555D01*
X005666Y033279D01*
X008166Y033279D01*
X008185Y033279D01*
X007910Y033574D01*
X007516Y033811D01*
X007181Y033909D01*
X007319Y034007D02*
X008540Y034007D01*
X008540Y031685D01*
X007634Y030779D01*
X007319Y030779D01*
X007634Y030779D02*
X006217Y030779D01*
X005311Y031685D02*
X005311Y034007D01*
X008540Y034007D01*
X008540Y031685D01*
X007634Y030779D01*
X005371Y032393D02*
X005373Y032472D01*
X005379Y032550D01*
X005389Y032628D01*
X005403Y032706D01*
X005421Y032783D01*
X005442Y032859D01*
X005468Y032933D01*
X005497Y033006D01*
X005530Y033078D01*
X005566Y033148D01*
X005606Y033216D01*
X005650Y033281D01*
X005696Y033345D01*
X005746Y033406D01*
X005799Y033464D01*
X005855Y033520D01*
X005913Y033573D01*
X005974Y033623D01*
X006038Y033669D01*
X006103Y033713D01*
X006171Y033753D01*
X006241Y033789D01*
X006313Y033822D01*
X006386Y033851D01*
X006460Y033877D01*
X006536Y033898D01*
X006613Y033916D01*
X006691Y033930D01*
X006769Y033940D01*
X006847Y033946D01*
X006926Y033948D01*
X007005Y033946D01*
X007083Y033940D01*
X007161Y033930D01*
X007239Y033916D01*
X007316Y033898D01*
X007392Y033877D01*
X007466Y033851D01*
X007539Y033822D01*
X007611Y033789D01*
X007681Y033753D01*
X007749Y033713D01*
X007814Y033669D01*
X007878Y033623D01*
X007939Y033573D01*
X007997Y033520D01*
X008053Y033464D01*
X008106Y033406D01*
X008156Y033345D01*
X008202Y033281D01*
X008246Y033216D01*
X008286Y033148D01*
X008322Y033078D01*
X008355Y033006D01*
X008384Y032933D01*
X008410Y032859D01*
X008431Y032783D01*
X008449Y032706D01*
X008463Y032628D01*
X008473Y032550D01*
X008479Y032472D01*
X008481Y032393D01*
X008479Y032314D01*
X008473Y032236D01*
X008463Y032158D01*
X008449Y032080D01*
X008431Y032003D01*
X008410Y031927D01*
X008384Y031853D01*
X008355Y031780D01*
X008322Y031708D01*
X008286Y031638D01*
X008246Y031570D01*
X008202Y031505D01*
X008156Y031441D01*
X008106Y031380D01*
X008053Y031322D01*
X007997Y031266D01*
X007939Y031213D01*
X007878Y031163D01*
X007814Y031117D01*
X007749Y031073D01*
X007681Y031033D01*
X007611Y030997D01*
X007539Y030964D01*
X007466Y030935D01*
X007392Y030909D01*
X007316Y030888D01*
X007239Y030870D01*
X007161Y030856D01*
X007083Y030846D01*
X007005Y030840D01*
X006926Y030838D01*
X006847Y030840D01*
X006769Y030846D01*
X006691Y030856D01*
X006613Y030870D01*
X006536Y030888D01*
X006460Y030909D01*
X006386Y030935D01*
X006313Y030964D01*
X006241Y030997D01*
X006171Y031033D01*
X006103Y031073D01*
X006038Y031117D01*
X005974Y031163D01*
X005913Y031213D01*
X005855Y031266D01*
X005799Y031322D01*
X005746Y031380D01*
X005696Y031441D01*
X005650Y031505D01*
X005606Y031570D01*
X005566Y031638D01*
X005530Y031708D01*
X005497Y031780D01*
X005468Y031853D01*
X005442Y031927D01*
X005421Y032003D01*
X005403Y032080D01*
X005389Y032158D01*
X005379Y032236D01*
X005373Y032314D01*
X005371Y032393D01*
X005646Y033259D02*
X008205Y033259D01*
X008161Y033305D02*
X005690Y033305D01*
X005726Y033344D02*
X008125Y033344D01*
X008089Y033382D02*
X005762Y033382D01*
X005797Y033421D02*
X008053Y033421D01*
X008017Y033459D02*
X005833Y033459D01*
X005869Y033498D02*
X007981Y033498D01*
X007945Y033536D02*
X005905Y033536D01*
X005954Y033575D02*
X007909Y033575D01*
X007845Y033613D02*
X006015Y033613D01*
X006076Y033652D02*
X007781Y033652D01*
X007716Y033690D02*
X006137Y033690D01*
X006198Y033729D02*
X007652Y033729D01*
X007588Y033767D02*
X006259Y033767D01*
X006343Y033806D02*
X007524Y033806D01*
X007401Y033844D02*
X006465Y033844D01*
X006572Y033909D02*
X006495Y033889D01*
X006420Y033866D01*
X006346Y033838D01*
X006274Y033807D01*
X006203Y033772D01*
X006134Y033734D01*
X006068Y033692D01*
X006003Y033647D01*
X005941Y033599D01*
X005881Y033547D01*
X005824Y033493D01*
X005770Y033436D01*
X005718Y033376D01*
X005670Y033314D01*
X005625Y033249D01*
X005584Y033182D01*
X005546Y033113D01*
X005511Y033042D01*
X005480Y032970D01*
X005452Y032896D01*
X005429Y032821D01*
X005409Y032745D01*
X005393Y032667D01*
X005381Y032589D01*
X005373Y032511D01*
X005369Y032432D01*
X005369Y032354D01*
X005373Y032275D01*
X005381Y032197D01*
X005393Y032119D01*
X005409Y032041D01*
X005429Y031965D01*
X005452Y031890D01*
X005480Y031816D01*
X005511Y031744D01*
X005546Y031673D01*
X005584Y031604D01*
X005625Y031537D01*
X005670Y031472D01*
X005718Y031410D01*
X005770Y031350D01*
X005824Y031293D01*
X005881Y031239D01*
X005941Y031187D01*
X006003Y031139D01*
X006068Y031094D01*
X006134Y031052D01*
X006203Y031014D01*
X006274Y030979D01*
X006346Y030948D01*
X006420Y030920D01*
X006495Y030897D01*
X006572Y030877D01*
X007280Y030877D02*
X007357Y030897D01*
X007432Y030920D01*
X007506Y030948D01*
X007578Y030979D01*
X007649Y031014D01*
X007718Y031052D01*
X007784Y031094D01*
X007849Y031139D01*
X007911Y031187D01*
X007971Y031239D01*
X008028Y031293D01*
X008082Y031350D01*
X008134Y031410D01*
X008182Y031472D01*
X008227Y031537D01*
X008268Y031604D01*
X008306Y031673D01*
X008341Y031744D01*
X008372Y031816D01*
X008400Y031890D01*
X008423Y031965D01*
X008443Y032041D01*
X008459Y032119D01*
X008471Y032197D01*
X008479Y032275D01*
X008483Y032354D01*
X008483Y032432D01*
X008479Y032511D01*
X008471Y032589D01*
X008459Y032667D01*
X008443Y032745D01*
X008423Y032821D01*
X008400Y032896D01*
X008372Y032970D01*
X008341Y033042D01*
X008306Y033113D01*
X008268Y033182D01*
X008227Y033249D01*
X008182Y033314D01*
X008134Y033376D01*
X008082Y033436D01*
X008028Y033493D01*
X007971Y033547D01*
X007911Y033599D01*
X007849Y033647D01*
X007784Y033692D01*
X007718Y033734D01*
X007649Y033772D01*
X007578Y033807D01*
X007506Y033838D01*
X007432Y033866D01*
X007357Y033889D01*
X007280Y033909D01*
X014211Y032857D02*
X014211Y030535D01*
X015117Y029629D01*
X015432Y029629D01*
X015117Y029629D02*
X014211Y030535D01*
X014211Y032857D01*
X015432Y032857D01*
X015471Y032728D02*
X016187Y032728D01*
X016081Y032759D02*
X015570Y032759D01*
X015196Y032641D01*
X014822Y032405D01*
X014566Y032129D01*
X017066Y032129D01*
X017085Y032129D01*
X016810Y032424D01*
X016416Y032661D01*
X016081Y032759D01*
X016219Y032857D02*
X017440Y032857D01*
X017440Y030535D01*
X016534Y029629D01*
X016219Y029629D01*
X016534Y029629D02*
X015117Y029629D01*
X016534Y029629D02*
X017440Y030535D01*
X017440Y032857D01*
X014211Y032857D01*
X014764Y032343D02*
X016886Y032343D01*
X016922Y032304D02*
X014729Y032304D01*
X014693Y032266D02*
X016958Y032266D01*
X016994Y032227D02*
X014657Y032227D01*
X014621Y032189D02*
X017030Y032189D01*
X017066Y032150D02*
X014586Y032150D01*
X014546Y032109D02*
X017105Y032109D01*
X016850Y032381D02*
X014800Y032381D01*
X014846Y032420D02*
X016814Y032420D01*
X016753Y032458D02*
X014907Y032458D01*
X014968Y032497D02*
X016689Y032497D01*
X016625Y032535D02*
X015029Y032535D01*
X015090Y032574D02*
X016561Y032574D01*
X016496Y032612D02*
X015151Y032612D01*
X015227Y032651D02*
X016432Y032651D01*
X016318Y032689D02*
X015349Y032689D01*
X014271Y031243D02*
X014273Y031322D01*
X014279Y031400D01*
X014289Y031478D01*
X014303Y031556D01*
X014321Y031633D01*
X014342Y031709D01*
X014368Y031783D01*
X014397Y031856D01*
X014430Y031928D01*
X014466Y031998D01*
X014506Y032066D01*
X014550Y032131D01*
X014596Y032195D01*
X014646Y032256D01*
X014699Y032314D01*
X014755Y032370D01*
X014813Y032423D01*
X014874Y032473D01*
X014938Y032519D01*
X015003Y032563D01*
X015071Y032603D01*
X015141Y032639D01*
X015213Y032672D01*
X015286Y032701D01*
X015360Y032727D01*
X015436Y032748D01*
X015513Y032766D01*
X015591Y032780D01*
X015669Y032790D01*
X015747Y032796D01*
X015826Y032798D01*
X015905Y032796D01*
X015983Y032790D01*
X016061Y032780D01*
X016139Y032766D01*
X016216Y032748D01*
X016292Y032727D01*
X016366Y032701D01*
X016439Y032672D01*
X016511Y032639D01*
X016581Y032603D01*
X016649Y032563D01*
X016714Y032519D01*
X016778Y032473D01*
X016839Y032423D01*
X016897Y032370D01*
X016953Y032314D01*
X017006Y032256D01*
X017056Y032195D01*
X017102Y032131D01*
X017146Y032066D01*
X017186Y031998D01*
X017222Y031928D01*
X017255Y031856D01*
X017284Y031783D01*
X017310Y031709D01*
X017331Y031633D01*
X017349Y031556D01*
X017363Y031478D01*
X017373Y031400D01*
X017379Y031322D01*
X017381Y031243D01*
X017379Y031164D01*
X017373Y031086D01*
X017363Y031008D01*
X017349Y030930D01*
X017331Y030853D01*
X017310Y030777D01*
X017284Y030703D01*
X017255Y030630D01*
X017222Y030558D01*
X017186Y030488D01*
X017146Y030420D01*
X017102Y030355D01*
X017056Y030291D01*
X017006Y030230D01*
X016953Y030172D01*
X016897Y030116D01*
X016839Y030063D01*
X016778Y030013D01*
X016714Y029967D01*
X016649Y029923D01*
X016581Y029883D01*
X016511Y029847D01*
X016439Y029814D01*
X016366Y029785D01*
X016292Y029759D01*
X016216Y029738D01*
X016139Y029720D01*
X016061Y029706D01*
X015983Y029696D01*
X015905Y029690D01*
X015826Y029688D01*
X015747Y029690D01*
X015669Y029696D01*
X015591Y029706D01*
X015513Y029720D01*
X015436Y029738D01*
X015360Y029759D01*
X015286Y029785D01*
X015213Y029814D01*
X015141Y029847D01*
X015071Y029883D01*
X015003Y029923D01*
X014938Y029967D01*
X014874Y030013D01*
X014813Y030063D01*
X014755Y030116D01*
X014699Y030172D01*
X014646Y030230D01*
X014596Y030291D01*
X014550Y030355D01*
X014506Y030420D01*
X014466Y030488D01*
X014430Y030558D01*
X014397Y030630D01*
X014368Y030703D01*
X014342Y030777D01*
X014321Y030853D01*
X014303Y030930D01*
X014289Y031008D01*
X014279Y031086D01*
X014273Y031164D01*
X014271Y031243D01*
X015472Y032759D02*
X015395Y032739D01*
X015320Y032716D01*
X015246Y032688D01*
X015174Y032657D01*
X015103Y032622D01*
X015034Y032584D01*
X014968Y032542D01*
X014903Y032497D01*
X014841Y032449D01*
X014781Y032397D01*
X014724Y032343D01*
X014670Y032286D01*
X014618Y032226D01*
X014570Y032164D01*
X014525Y032099D01*
X014484Y032032D01*
X014446Y031963D01*
X014411Y031892D01*
X014380Y031820D01*
X014352Y031746D01*
X014329Y031671D01*
X014309Y031595D01*
X014293Y031517D01*
X014281Y031439D01*
X014273Y031361D01*
X014269Y031282D01*
X014269Y031204D01*
X014273Y031125D01*
X014281Y031047D01*
X014293Y030969D01*
X014309Y030891D01*
X014329Y030815D01*
X014352Y030740D01*
X014380Y030666D01*
X014411Y030594D01*
X014446Y030523D01*
X014484Y030454D01*
X014525Y030387D01*
X014570Y030322D01*
X014618Y030260D01*
X014670Y030200D01*
X014724Y030143D01*
X014781Y030089D01*
X014841Y030037D01*
X014903Y029989D01*
X014968Y029944D01*
X015034Y029902D01*
X015103Y029864D01*
X015174Y029829D01*
X015246Y029798D01*
X015320Y029770D01*
X015395Y029747D01*
X015472Y029727D01*
X016180Y029727D02*
X016257Y029747D01*
X016332Y029770D01*
X016406Y029798D01*
X016478Y029829D01*
X016549Y029864D01*
X016618Y029902D01*
X016684Y029944D01*
X016749Y029989D01*
X016811Y030037D01*
X016871Y030089D01*
X016928Y030143D01*
X016982Y030200D01*
X017034Y030260D01*
X017082Y030322D01*
X017127Y030387D01*
X017168Y030454D01*
X017206Y030523D01*
X017241Y030594D01*
X017272Y030666D01*
X017300Y030740D01*
X017323Y030815D01*
X017343Y030891D01*
X017359Y030969D01*
X017371Y031047D01*
X017379Y031125D01*
X017383Y031204D01*
X017383Y031282D01*
X017379Y031361D01*
X017371Y031439D01*
X017359Y031517D01*
X017343Y031595D01*
X017323Y031671D01*
X017300Y031746D01*
X017272Y031820D01*
X017241Y031892D01*
X017206Y031963D01*
X017168Y032032D01*
X017127Y032099D01*
X017082Y032164D01*
X017034Y032226D01*
X016982Y032286D01*
X016928Y032343D01*
X016871Y032397D01*
X016811Y032449D01*
X016749Y032497D01*
X016684Y032542D01*
X016618Y032584D01*
X016549Y032622D01*
X016478Y032657D01*
X016406Y032688D01*
X016332Y032716D01*
X016257Y032739D01*
X016180Y032759D01*
X025447Y030161D02*
X025447Y029826D01*
X025604Y029826D02*
X025604Y030161D01*
X034576Y027853D02*
X034876Y027853D01*
X034876Y027333D02*
X034585Y027333D01*
X034840Y027031D02*
X035411Y027031D01*
X035411Y026756D02*
X034840Y026756D01*
X034766Y026033D02*
X034766Y025743D01*
X035285Y025743D02*
X035285Y026043D01*
X036497Y021911D02*
X036497Y021576D01*
X036654Y021576D02*
X036654Y021911D01*
X036947Y022061D02*
X036947Y021726D01*
X037104Y021726D02*
X037104Y022061D01*
X035990Y021047D02*
X035938Y021099D01*
X035834Y021099D01*
X035783Y021047D01*
X035667Y021047D02*
X035616Y021099D01*
X035512Y021099D01*
X035460Y021047D01*
X035460Y020840D01*
X035512Y020788D01*
X035616Y020788D01*
X035667Y020840D01*
X035783Y020840D02*
X035834Y020788D01*
X035938Y020788D01*
X035990Y020840D01*
X035990Y020892D01*
X035938Y020943D01*
X035886Y020943D01*
X035938Y020943D02*
X035990Y020995D01*
X035990Y021047D01*
X035349Y021099D02*
X035246Y021099D01*
X035297Y021099D02*
X035297Y020788D01*
X035246Y020788D02*
X035349Y020788D01*
X033643Y020072D02*
X033308Y020072D01*
X033308Y019915D02*
X033643Y019915D01*
X033643Y019572D02*
X033308Y019572D01*
X033308Y019415D02*
X033643Y019415D01*
X040346Y017074D02*
X040346Y016613D01*
X040346Y016767D02*
X040576Y016767D01*
X040653Y016844D01*
X040653Y016997D01*
X040576Y017074D01*
X040346Y017074D01*
X040499Y016767D02*
X040653Y016613D01*
X040959Y016613D02*
X040959Y017074D01*
X040806Y017074D02*
X041113Y017074D01*
X041266Y016920D02*
X041420Y017074D01*
X041420Y016613D01*
X041573Y016613D02*
X041266Y016613D01*
X046796Y031363D02*
X047026Y031363D01*
X047103Y031440D01*
X047103Y031517D01*
X047026Y031594D01*
X046796Y031594D01*
X046796Y031824D02*
X046796Y031363D01*
X047026Y031594D02*
X047103Y031670D01*
X047103Y031747D01*
X047026Y031824D01*
X046796Y031824D01*
X047256Y031824D02*
X047256Y031363D01*
X047563Y031363D01*
X047716Y031363D02*
X047716Y031670D01*
X047870Y031824D01*
X048023Y031670D01*
X048023Y031363D01*
X048023Y031594D02*
X047716Y031594D01*
X047563Y031824D02*
X047256Y031824D01*
X047256Y031594D02*
X047409Y031594D01*
X048177Y031824D02*
X048484Y031824D01*
X048330Y031824D02*
X048330Y031363D01*
X048637Y031287D02*
X048944Y031287D01*
X049098Y031363D02*
X049251Y031363D01*
X049174Y031363D02*
X049174Y031824D01*
X049098Y031824D02*
X049251Y031824D01*
X049404Y031824D02*
X049711Y031363D01*
X049711Y031824D01*
X049404Y031824D02*
X049404Y031363D01*
X004893Y020022D02*
X004558Y020022D01*
X004558Y019865D02*
X004893Y019865D01*
X004893Y019522D02*
X004558Y019522D01*
X004558Y019365D02*
X004893Y019365D01*
X001890Y020440D02*
X001838Y020388D01*
X001734Y020388D01*
X001683Y020440D01*
X001683Y020543D02*
X001786Y020595D01*
X001838Y020595D01*
X001890Y020543D01*
X001890Y020440D01*
X001683Y020543D02*
X001683Y020699D01*
X001890Y020699D01*
X001567Y020647D02*
X001516Y020699D01*
X001412Y020699D01*
X001360Y020647D01*
X001360Y020440D01*
X001412Y020388D01*
X001516Y020388D01*
X001567Y020440D01*
X001249Y020388D02*
X001146Y020388D01*
X001197Y020388D02*
X001197Y020699D01*
X001146Y020699D02*
X001249Y020699D01*
X001297Y017861D02*
X001297Y017526D01*
X001454Y017526D02*
X001454Y017861D01*
X000954Y017761D02*
X000954Y017426D01*
X000797Y017426D02*
X000797Y017761D01*
D20*
X004583Y019443D03*
X004868Y019443D03*
X004868Y019943D03*
X004583Y019943D03*
X004633Y022693D03*
X004918Y022693D03*
X004918Y023143D03*
X004633Y023143D03*
X010583Y022693D03*
X010868Y022693D03*
X010868Y022193D03*
X010583Y022193D03*
X023483Y023293D03*
X023768Y023293D03*
X023818Y023793D03*
X023533Y023793D03*
X028933Y028543D03*
X029218Y028543D03*
X036283Y027293D03*
X036568Y027293D03*
X036533Y027693D03*
X036818Y027693D03*
X041783Y027693D03*
X042068Y027693D03*
X042883Y026793D03*
X043168Y026793D03*
X042968Y026393D03*
X042683Y026393D03*
X043983Y025743D03*
X044268Y025743D03*
X044283Y026243D03*
X044568Y026243D03*
X044683Y028493D03*
X044968Y028493D03*
X044968Y029293D03*
X044683Y029293D03*
X046183Y024243D03*
X046468Y024243D03*
X046368Y023643D03*
X046083Y023643D03*
X042068Y022643D03*
X041783Y022643D03*
X033618Y019993D03*
X033333Y019993D03*
X033333Y019493D03*
X033618Y019493D03*
D21*
X043172Y022643D03*
X043172Y023143D03*
X043172Y023643D03*
X043172Y024143D03*
X045180Y024143D03*
X045180Y023643D03*
X045180Y023143D03*
X045180Y022643D03*
D22*
X046526Y021536D03*
X046526Y021251D03*
X043076Y021801D03*
X043076Y022086D03*
X042576Y021786D03*
X042576Y021501D03*
X039526Y024451D03*
X039526Y024736D03*
X039076Y024736D03*
X039076Y024451D03*
X037026Y025951D03*
X037026Y026236D03*
X037626Y026751D03*
X037626Y027036D03*
X038376Y029301D03*
X038376Y029586D03*
X038776Y029586D03*
X038776Y029301D03*
X037626Y031001D03*
X037626Y031286D03*
X037626Y032501D03*
X037626Y032786D03*
X043426Y028236D03*
X043426Y027951D03*
X037026Y022036D03*
X037026Y021751D03*
X036576Y021886D03*
X036576Y021601D03*
X030476Y028201D03*
X030476Y028486D03*
X030476Y030301D03*
X030476Y030586D03*
X027926Y030136D03*
X027926Y029851D03*
X025526Y029851D03*
X025526Y030136D03*
X025826Y026536D03*
X025826Y026251D03*
X024626Y025836D03*
X024626Y025551D03*
X020326Y021636D03*
X020326Y021351D03*
X019826Y021351D03*
X019826Y021636D03*
X003876Y024651D03*
X003876Y024936D03*
X001376Y017836D03*
X001376Y017551D03*
X000876Y017451D03*
X000876Y017736D03*
D23*
X001076Y020993D02*
X003076Y020993D01*
X003076Y028593D01*
X001076Y028593D01*
X001076Y020993D01*
X013626Y021693D02*
X013626Y013393D01*
X016626Y013393D01*
X016626Y021693D01*
X013626Y021693D01*
X023746Y026903D02*
X023746Y027873D01*
X025506Y027873D01*
X025506Y026903D01*
X023746Y026903D01*
X025846Y028513D02*
X027606Y028513D01*
X027606Y029483D01*
X025846Y029483D01*
X025846Y028513D01*
X026976Y032368D02*
X026901Y032443D01*
X026901Y032518D01*
X026976Y032593D01*
X027126Y032593D01*
X027201Y032518D01*
X027201Y032443D01*
X027126Y032368D01*
X026976Y032368D01*
X026976Y032593D02*
X026901Y032669D01*
X026901Y032744D01*
X026976Y032819D01*
X027126Y032819D01*
X027201Y032744D01*
X027201Y032669D01*
X027126Y032593D01*
X024851Y033218D02*
X024551Y033218D01*
X024701Y033218D02*
X024701Y033669D01*
X024551Y033519D01*
X024551Y034218D02*
X024851Y034519D01*
X024851Y034594D01*
X024776Y034669D01*
X024626Y034669D01*
X024551Y034594D01*
X024551Y034218D02*
X024851Y034218D01*
X038264Y027693D02*
X038266Y027714D01*
X038272Y027733D01*
X038281Y027752D01*
X038293Y027768D01*
X038309Y027782D01*
X038326Y027793D01*
X038345Y027801D01*
X038366Y027805D01*
X038386Y027805D01*
X038407Y027801D01*
X038426Y027793D01*
X038443Y027782D01*
X038459Y027768D01*
X038471Y027752D01*
X038480Y027733D01*
X038486Y027714D01*
X038488Y027693D01*
X038486Y027672D01*
X038480Y027653D01*
X038471Y027634D01*
X038459Y027618D01*
X038443Y027604D01*
X038426Y027593D01*
X038407Y027585D01*
X038386Y027581D01*
X038366Y027581D01*
X038345Y027585D01*
X038326Y027593D01*
X038309Y027604D01*
X038293Y027618D01*
X038281Y027634D01*
X038272Y027653D01*
X038266Y027672D01*
X038264Y027693D01*
X041826Y028093D02*
X041828Y028113D01*
X041834Y028131D01*
X041843Y028149D01*
X041855Y028164D01*
X041870Y028176D01*
X041888Y028185D01*
X041906Y028191D01*
X041926Y028193D01*
X041946Y028191D01*
X041964Y028185D01*
X041982Y028176D01*
X041997Y028164D01*
X042009Y028149D01*
X042018Y028131D01*
X042024Y028113D01*
X042026Y028093D01*
X042024Y028073D01*
X042018Y028055D01*
X042009Y028037D01*
X041997Y028022D01*
X041982Y028010D01*
X041964Y028001D01*
X041946Y027995D01*
X041926Y027993D01*
X041906Y027995D01*
X041888Y028001D01*
X041870Y028010D01*
X041855Y028022D01*
X041843Y028037D01*
X041834Y028055D01*
X041828Y028073D01*
X041826Y028093D01*
X040901Y032268D02*
X040901Y035518D01*
X040951Y035518D02*
X044151Y035518D01*
X044151Y032268D01*
X040901Y032268D01*
X040951Y032318D02*
X040951Y035518D01*
X041001Y035468D02*
X044101Y035468D01*
X044101Y032318D01*
X040951Y032318D01*
X041001Y032368D02*
X041001Y035468D01*
X041051Y035418D02*
X044051Y035418D01*
X044051Y032368D01*
X041001Y032368D01*
X041051Y032418D02*
X041051Y035418D01*
X041101Y035368D02*
X044001Y035368D01*
X044001Y032418D01*
X041051Y032418D01*
X041101Y032468D02*
X041101Y035368D01*
X041151Y035318D02*
X043951Y035318D01*
X043951Y032468D01*
X041101Y032468D01*
X041151Y032518D02*
X041151Y035318D01*
X041201Y035268D02*
X043901Y035268D01*
X043901Y032518D01*
X041151Y032518D01*
X041201Y032568D02*
X041201Y035268D01*
X041251Y035218D02*
X043851Y035218D01*
X043851Y032568D01*
X041201Y032568D01*
X041251Y032618D02*
X041251Y035218D01*
X041301Y035168D02*
X043801Y035168D01*
X043801Y032618D01*
X041251Y032618D01*
X041401Y032768D02*
X041851Y032768D01*
X041851Y033218D01*
X041451Y033218D01*
X041451Y032818D01*
X041801Y032818D01*
X041801Y033168D01*
X041501Y033168D01*
X041401Y033218D02*
X041401Y032768D01*
X042001Y032668D02*
X042001Y033368D01*
X041301Y033368D01*
X041301Y033418D01*
X041351Y033418D02*
X041601Y033418D01*
X041601Y033518D01*
X041651Y033518D01*
X041651Y033418D01*
X042101Y033418D01*
X042101Y033618D01*
X042201Y033618D01*
X042201Y033768D01*
X042051Y033768D01*
X042051Y033668D01*
X042001Y033668D01*
X042001Y033768D01*
X041901Y033768D01*
X041901Y033818D01*
X042001Y033818D01*
X042001Y033968D01*
X041901Y033968D01*
X041901Y034018D01*
X042101Y034018D01*
X042101Y034318D01*
X042301Y034318D01*
X042301Y034418D01*
X042401Y034418D01*
X042401Y034618D01*
X042501Y034618D01*
X042501Y034718D01*
X042701Y034718D01*
X042701Y034868D01*
X042601Y034868D01*
X042601Y034918D01*
X042801Y034918D01*
X042801Y035018D01*
X042901Y035018D01*
X042901Y035118D01*
X043051Y035118D01*
X043051Y034418D01*
X043751Y034418D01*
X043751Y034368D01*
X043651Y034368D01*
X043651Y034018D01*
X043751Y034018D01*
X043751Y033968D01*
X043651Y033968D01*
X043651Y033818D01*
X043751Y033818D01*
X043751Y033768D01*
X043651Y033768D01*
X043651Y033618D01*
X043751Y033618D01*
X043751Y033268D01*
X043701Y033268D01*
X043701Y033468D01*
X043601Y033468D01*
X043601Y033568D01*
X043451Y033568D01*
X043451Y033368D01*
X043401Y033368D01*
X043401Y033568D01*
X043301Y033568D01*
X043301Y033668D01*
X043151Y033668D01*
X043151Y033568D01*
X043001Y033568D01*
X043001Y033668D01*
X042851Y033668D01*
X042851Y033568D01*
X042751Y033568D01*
X042751Y033468D01*
X042651Y033468D01*
X042651Y033368D01*
X042601Y033368D01*
X042601Y033468D01*
X042401Y033468D01*
X042401Y033518D01*
X042501Y033518D01*
X042501Y033668D01*
X042401Y033668D01*
X042401Y033718D01*
X042501Y033718D01*
X042501Y034018D01*
X042551Y034018D01*
X042551Y033918D01*
X042651Y033918D01*
X042651Y033868D01*
X042551Y033868D01*
X042551Y033518D01*
X042701Y033518D01*
X042701Y033618D01*
X042801Y033618D01*
X042801Y033718D01*
X042901Y033718D01*
X042901Y033918D01*
X042951Y033918D01*
X042951Y033718D01*
X043101Y033718D01*
X043101Y033818D01*
X043251Y033818D01*
X043251Y033718D01*
X043351Y033718D01*
X043351Y033618D01*
X043501Y033618D01*
X043501Y033718D01*
X043601Y033718D01*
X043601Y034068D01*
X043451Y034068D01*
X043451Y033968D01*
X043401Y033968D01*
X043401Y034068D01*
X043251Y034068D01*
X043251Y033968D01*
X043201Y033968D01*
X043201Y034118D01*
X043401Y034118D01*
X043401Y034218D01*
X043451Y034218D01*
X043451Y034118D01*
X043601Y034118D01*
X043601Y034368D01*
X043351Y034368D01*
X043351Y034268D01*
X043301Y034268D01*
X043301Y034368D01*
X043001Y034368D01*
X043001Y034668D01*
X042551Y034668D01*
X042551Y034568D01*
X042451Y034568D01*
X042451Y034168D01*
X042351Y034168D01*
X042351Y033868D01*
X042301Y033868D01*
X042301Y034268D01*
X042151Y034268D01*
X042151Y033818D01*
X042251Y033818D01*
X042251Y033618D01*
X042351Y033618D01*
X042351Y033568D01*
X042151Y033568D01*
X042151Y033418D01*
X042251Y033418D01*
X042251Y033268D01*
X042201Y033268D01*
X042201Y033368D01*
X042051Y033368D01*
X042051Y033218D01*
X042151Y033218D01*
X042151Y033118D01*
X042401Y033118D01*
X042401Y033318D01*
X042451Y033318D01*
X042451Y033218D01*
X042551Y033218D01*
X042551Y033168D01*
X042451Y033168D01*
X042451Y033068D01*
X042351Y033068D01*
X042351Y032818D01*
X042451Y032818D01*
X042451Y032668D01*
X042201Y032668D01*
X042201Y032718D01*
X042301Y032718D01*
X042301Y032868D01*
X042051Y032868D01*
X042051Y032668D01*
X042001Y032668D01*
X042051Y032918D02*
X042301Y032918D01*
X042301Y033068D01*
X042101Y033068D01*
X042101Y033168D01*
X042051Y033168D02*
X042051Y032918D01*
X042201Y032968D02*
X042201Y033018D01*
X042251Y033018D02*
X042251Y032968D01*
X042201Y032968D01*
X042351Y032768D02*
X042351Y032718D01*
X042401Y032718D01*
X042401Y032768D01*
X042601Y032768D02*
X042651Y032768D01*
X042651Y032968D01*
X042801Y032968D01*
X042801Y032768D01*
X042851Y032768D01*
X042851Y033018D01*
X042551Y033018D01*
X042501Y033018D02*
X042501Y032968D01*
X042601Y032968D01*
X042601Y032768D01*
X042701Y032718D02*
X042701Y032668D01*
X042751Y032668D01*
X042751Y032718D01*
X043001Y032768D02*
X043051Y032768D01*
X043051Y032818D01*
X043001Y032818D02*
X043001Y032768D01*
X043001Y032968D02*
X043201Y032968D01*
X043201Y032868D01*
X043351Y032868D01*
X043351Y032918D01*
X043251Y032918D01*
X043251Y033018D01*
X043051Y033018D01*
X043001Y033018D02*
X043001Y032968D01*
X043001Y033168D02*
X043251Y033168D01*
X043251Y033418D01*
X043051Y033418D01*
X043051Y033218D01*
X043201Y033218D01*
X043201Y033368D01*
X043101Y033368D01*
X043001Y033418D02*
X043001Y033168D01*
X042751Y033168D02*
X042751Y033318D01*
X042701Y033318D02*
X042701Y033168D01*
X042751Y033168D01*
X042801Y033368D02*
X042851Y033368D01*
X042851Y033418D01*
X042801Y033418D02*
X042801Y033368D01*
X043051Y033618D02*
X043101Y033618D01*
X043101Y033668D01*
X043051Y033668D02*
X043051Y033618D01*
X043151Y033718D02*
X043201Y033718D01*
X043201Y033768D01*
X043151Y033768D02*
X043151Y033718D01*
X043051Y033968D02*
X043051Y034168D01*
X043151Y034168D01*
X043151Y034218D01*
X043051Y034218D01*
X043001Y034218D02*
X043001Y033968D01*
X043051Y033968D01*
X042851Y033968D02*
X042851Y034018D01*
X042751Y034018D01*
X042751Y034368D01*
X042851Y034368D01*
X042851Y034518D01*
X042801Y034518D01*
X042801Y034418D01*
X042651Y034418D01*
X042651Y034518D01*
X042601Y034518D02*
X042601Y034168D01*
X042701Y034168D01*
X042701Y033968D01*
X042851Y033968D01*
X042751Y033818D02*
X042751Y033768D01*
X042701Y033768D01*
X042701Y033818D01*
X042701Y034218D02*
X042701Y034368D01*
X042651Y034368D02*
X042651Y034218D01*
X042701Y034218D01*
X042901Y034268D02*
X042951Y034268D01*
X042951Y034318D01*
X042901Y034318D02*
X042901Y034268D01*
X043201Y034568D02*
X043651Y034568D01*
X043651Y035018D01*
X043251Y035018D01*
X043251Y034618D01*
X043601Y034618D01*
X043601Y034968D01*
X043301Y034968D01*
X043201Y035018D02*
X043201Y034568D01*
X043001Y034718D02*
X043001Y035068D01*
X042951Y035068D01*
X042951Y034968D01*
X042851Y034968D01*
X042851Y034868D01*
X042801Y034868D01*
X042751Y034868D02*
X042751Y034718D01*
X043001Y034718D01*
X042751Y035068D02*
X042551Y035068D01*
X042551Y034968D01*
X042501Y034968D01*
X042501Y035068D01*
X042351Y035068D01*
X042351Y034818D01*
X042451Y034818D01*
X042451Y034768D01*
X042301Y034768D01*
X042301Y034868D01*
X042201Y034868D01*
X042201Y034918D01*
X042251Y034918D02*
X042301Y034918D01*
X042301Y035118D01*
X042751Y035118D01*
X042751Y035068D01*
X042151Y035018D02*
X042151Y034968D01*
X042051Y034968D01*
X042051Y034718D01*
X042251Y034718D01*
X042251Y034468D01*
X042201Y034468D01*
X042201Y034668D01*
X042051Y034668D01*
X042051Y034368D01*
X041851Y034368D01*
X041851Y034268D01*
X041701Y034268D01*
X041701Y034368D01*
X041551Y034368D01*
X041551Y034218D01*
X041651Y034218D01*
X041651Y034068D01*
X041551Y034068D01*
X041551Y033968D01*
X041451Y033968D01*
X041451Y033618D01*
X041551Y033618D01*
X041551Y033568D01*
X041401Y033568D01*
X041401Y033768D01*
X041301Y033768D01*
X041301Y033918D01*
X041401Y033918D01*
X041401Y034018D01*
X041501Y034018D01*
X041501Y034168D01*
X041301Y034168D01*
X041301Y034218D01*
X041501Y034218D01*
X041501Y034368D01*
X041301Y034368D01*
X041301Y034418D01*
X041351Y034418D02*
X042001Y034418D01*
X042001Y035118D01*
X042051Y035118D01*
X042051Y035018D01*
X042151Y035018D01*
X041851Y035018D02*
X041451Y035018D01*
X041451Y034618D01*
X041801Y034618D01*
X041801Y034968D01*
X041501Y034968D01*
X041401Y035018D02*
X041401Y034568D01*
X041851Y034568D01*
X041851Y035018D01*
X041801Y034368D02*
X041801Y034318D01*
X041751Y034318D01*
X041751Y034368D01*
X041901Y034218D02*
X041901Y034168D01*
X041951Y034168D01*
X041951Y034218D01*
X042051Y033968D02*
X042051Y033818D01*
X042101Y033818D01*
X042101Y033968D01*
X041851Y033918D02*
X041751Y033918D01*
X041701Y033918D02*
X041701Y033868D01*
X041851Y033868D01*
X041851Y033918D01*
X041651Y033818D02*
X041651Y033768D01*
X041601Y033768D01*
X041601Y033818D01*
X041401Y033818D02*
X041401Y033868D01*
X041401Y033818D02*
X041351Y033818D01*
X041351Y033868D01*
X041551Y034118D02*
X041601Y034118D01*
X041601Y034168D01*
X041551Y034168D02*
X041551Y034118D01*
X041801Y033618D02*
X041801Y033568D01*
X041951Y033568D01*
X041951Y033618D01*
X041851Y033618D01*
X042351Y034218D02*
X042401Y034218D01*
X042401Y034368D01*
X042351Y034368D02*
X042351Y034218D01*
X043551Y033668D02*
X043551Y033618D01*
X043601Y033618D01*
X043601Y033668D01*
X043651Y033568D02*
X043651Y033518D01*
X043701Y033518D01*
X043701Y033568D01*
X043651Y033218D02*
X043451Y033218D01*
X043401Y033218D02*
X043401Y033168D01*
X043651Y033168D01*
X043651Y033218D01*
X043651Y033018D02*
X043551Y033018D01*
X043501Y033018D02*
X043501Y032968D01*
X043651Y032968D01*
X043651Y033018D01*
X043651Y032818D02*
X043601Y032818D01*
X043601Y032718D01*
X043551Y032718D01*
X043501Y032718D02*
X043501Y032668D01*
X043651Y032668D01*
X043651Y032818D01*
X043351Y032718D02*
X043251Y032718D01*
X043201Y032718D02*
X043201Y032668D01*
X043351Y032668D01*
X043351Y032718D01*
X045376Y020893D02*
X038876Y020893D01*
X038876Y013393D01*
X041626Y013393D01*
X041626Y005893D01*
X042626Y005893D01*
X042626Y013393D01*
X041626Y013393D01*
X042626Y013393D02*
X045376Y013393D01*
X045376Y020893D01*
D24*
X037626Y035101D03*
D25*
X049333Y028493D03*
D26*
X030338Y029019D03*
X030338Y029767D03*
X029413Y029767D03*
X029413Y029393D03*
X029413Y029019D03*
D27*
X028526Y033443D03*
X028526Y034443D03*
X027526Y034443D03*
X026526Y034443D03*
X026526Y033443D03*
X027526Y033443D03*
X025526Y033443D03*
X025526Y034443D03*
X032426Y034743D03*
X032426Y033743D03*
X012226Y033793D03*
X011226Y033793D03*
X010226Y033793D03*
X008076Y028943D03*
X007076Y028943D03*
X007076Y027943D03*
X008076Y027943D03*
X006076Y027943D03*
X006076Y028943D03*
X003276Y015443D03*
X002276Y015443D03*
D28*
X014251Y031243D02*
X014253Y031322D01*
X014259Y031401D01*
X014269Y031480D01*
X014283Y031558D01*
X014300Y031635D01*
X014322Y031711D01*
X014347Y031786D01*
X014377Y031859D01*
X014409Y031931D01*
X014446Y032002D01*
X014486Y032070D01*
X014529Y032136D01*
X014575Y032200D01*
X014625Y032262D01*
X014678Y032321D01*
X014733Y032377D01*
X014792Y032431D01*
X014853Y032481D01*
X014916Y032529D01*
X014982Y032573D01*
X015050Y032614D01*
X015120Y032651D01*
X015191Y032685D01*
X015265Y032715D01*
X015339Y032741D01*
X015415Y032763D01*
X015492Y032782D01*
X015570Y032797D01*
X015648Y032808D01*
X015727Y032815D01*
X015806Y032818D01*
X015885Y032817D01*
X015964Y032812D01*
X016043Y032803D01*
X016121Y032790D01*
X016198Y032773D01*
X016275Y032753D01*
X016350Y032728D01*
X016424Y032700D01*
X016497Y032668D01*
X016567Y032633D01*
X016636Y032594D01*
X016703Y032551D01*
X016768Y032505D01*
X016830Y032457D01*
X016890Y032405D01*
X016947Y032350D01*
X017001Y032292D01*
X017052Y032232D01*
X017100Y032169D01*
X017145Y032104D01*
X017187Y032036D01*
X017225Y031967D01*
X017259Y031896D01*
X017290Y031823D01*
X017318Y031748D01*
X017341Y031673D01*
X017361Y031596D01*
X017377Y031519D01*
X017389Y031440D01*
X017397Y031362D01*
X017401Y031283D01*
X017401Y031203D01*
X017397Y031124D01*
X017389Y031046D01*
X017377Y030967D01*
X017361Y030890D01*
X017341Y030813D01*
X017318Y030738D01*
X017290Y030663D01*
X017259Y030590D01*
X017225Y030519D01*
X017187Y030450D01*
X017145Y030382D01*
X017100Y030317D01*
X017052Y030254D01*
X017001Y030194D01*
X016947Y030136D01*
X016890Y030081D01*
X016830Y030029D01*
X016768Y029981D01*
X016703Y029935D01*
X016636Y029892D01*
X016567Y029853D01*
X016497Y029818D01*
X016424Y029786D01*
X016350Y029758D01*
X016275Y029733D01*
X016198Y029713D01*
X016121Y029696D01*
X016043Y029683D01*
X015964Y029674D01*
X015885Y029669D01*
X015806Y029668D01*
X015727Y029671D01*
X015648Y029678D01*
X015570Y029689D01*
X015492Y029704D01*
X015415Y029723D01*
X015339Y029745D01*
X015265Y029771D01*
X015191Y029801D01*
X015120Y029835D01*
X015050Y029872D01*
X014982Y029913D01*
X014916Y029957D01*
X014853Y030005D01*
X014792Y030055D01*
X014733Y030109D01*
X014678Y030165D01*
X014625Y030224D01*
X014575Y030286D01*
X014529Y030350D01*
X014486Y030416D01*
X014446Y030484D01*
X014409Y030555D01*
X014377Y030627D01*
X014347Y030700D01*
X014322Y030775D01*
X014300Y030851D01*
X014283Y030928D01*
X014269Y031006D01*
X014259Y031085D01*
X014253Y031164D01*
X014251Y031243D01*
X005351Y032393D02*
X005353Y032472D01*
X005359Y032551D01*
X005369Y032630D01*
X005383Y032708D01*
X005400Y032785D01*
X005422Y032861D01*
X005447Y032936D01*
X005477Y033009D01*
X005509Y033081D01*
X005546Y033152D01*
X005586Y033220D01*
X005629Y033286D01*
X005675Y033350D01*
X005725Y033412D01*
X005778Y033471D01*
X005833Y033527D01*
X005892Y033581D01*
X005953Y033631D01*
X006016Y033679D01*
X006082Y033723D01*
X006150Y033764D01*
X006220Y033801D01*
X006291Y033835D01*
X006365Y033865D01*
X006439Y033891D01*
X006515Y033913D01*
X006592Y033932D01*
X006670Y033947D01*
X006748Y033958D01*
X006827Y033965D01*
X006906Y033968D01*
X006985Y033967D01*
X007064Y033962D01*
X007143Y033953D01*
X007221Y033940D01*
X007298Y033923D01*
X007375Y033903D01*
X007450Y033878D01*
X007524Y033850D01*
X007597Y033818D01*
X007667Y033783D01*
X007736Y033744D01*
X007803Y033701D01*
X007868Y033655D01*
X007930Y033607D01*
X007990Y033555D01*
X008047Y033500D01*
X008101Y033442D01*
X008152Y033382D01*
X008200Y033319D01*
X008245Y033254D01*
X008287Y033186D01*
X008325Y033117D01*
X008359Y033046D01*
X008390Y032973D01*
X008418Y032898D01*
X008441Y032823D01*
X008461Y032746D01*
X008477Y032669D01*
X008489Y032590D01*
X008497Y032512D01*
X008501Y032433D01*
X008501Y032353D01*
X008497Y032274D01*
X008489Y032196D01*
X008477Y032117D01*
X008461Y032040D01*
X008441Y031963D01*
X008418Y031888D01*
X008390Y031813D01*
X008359Y031740D01*
X008325Y031669D01*
X008287Y031600D01*
X008245Y031532D01*
X008200Y031467D01*
X008152Y031404D01*
X008101Y031344D01*
X008047Y031286D01*
X007990Y031231D01*
X007930Y031179D01*
X007868Y031131D01*
X007803Y031085D01*
X007736Y031042D01*
X007667Y031003D01*
X007597Y030968D01*
X007524Y030936D01*
X007450Y030908D01*
X007375Y030883D01*
X007298Y030863D01*
X007221Y030846D01*
X007143Y030833D01*
X007064Y030824D01*
X006985Y030819D01*
X006906Y030818D01*
X006827Y030821D01*
X006748Y030828D01*
X006670Y030839D01*
X006592Y030854D01*
X006515Y030873D01*
X006439Y030895D01*
X006365Y030921D01*
X006291Y030951D01*
X006220Y030985D01*
X006150Y031022D01*
X006082Y031063D01*
X006016Y031107D01*
X005953Y031155D01*
X005892Y031205D01*
X005833Y031259D01*
X005778Y031315D01*
X005725Y031374D01*
X005675Y031436D01*
X005629Y031500D01*
X005586Y031566D01*
X005546Y031634D01*
X005509Y031705D01*
X005477Y031777D01*
X005447Y031850D01*
X005422Y031925D01*
X005400Y032001D01*
X005383Y032078D01*
X005369Y032156D01*
X005359Y032235D01*
X005353Y032314D01*
X005351Y032393D01*
D29*
X006926Y030671D03*
X006926Y034116D03*
X015826Y032966D03*
X015826Y029521D03*
D30*
X035026Y026176D03*
X035026Y025606D03*
X039525Y030811D03*
X039525Y031381D03*
X045626Y026676D03*
X045626Y026106D03*
D31*
X035013Y027594D03*
X034443Y027594D03*
D32*
X039846Y026843D03*
X039846Y026343D03*
X039846Y025843D03*
X039846Y025343D03*
X041706Y025343D03*
X041706Y025843D03*
X041706Y026343D03*
X041706Y026843D03*
X036506Y021043D03*
X036506Y020543D03*
X036506Y020043D03*
X036506Y019543D03*
X034646Y019543D03*
X034646Y020043D03*
X034646Y020543D03*
X034646Y021043D03*
X023056Y021343D03*
X023056Y021843D03*
X023056Y022343D03*
X023056Y022843D03*
X021196Y022843D03*
X021196Y022343D03*
X021196Y021843D03*
X021196Y021343D03*
X003556Y019893D03*
X003556Y019393D03*
X003556Y018893D03*
X003556Y018393D03*
X001696Y018393D03*
X001696Y018893D03*
X001696Y019393D03*
X001696Y019893D03*
D33*
X008126Y006868D03*
X022126Y006868D03*
X032126Y006868D03*
D34*
X009521Y021193D03*
X009521Y021693D03*
X009521Y022193D03*
X009521Y022693D03*
X009521Y023193D03*
X009521Y023693D03*
X009521Y024193D03*
X009521Y024693D03*
X005930Y024693D03*
X005930Y024193D03*
X005930Y023693D03*
X005930Y023193D03*
X005930Y022693D03*
X005930Y022193D03*
X005930Y021693D03*
X005930Y021193D03*
D35*
X010426Y027118D03*
X011426Y027118D03*
X012426Y027118D03*
X019326Y029918D03*
X020326Y029918D03*
X021326Y029918D03*
D36*
X021326Y030663D03*
X020326Y030663D03*
X019326Y030663D03*
X012426Y027863D03*
X011426Y027863D03*
X010426Y027863D03*
D37*
X024316Y027903D02*
X024316Y027913D01*
X024316Y028013D01*
X024486Y028183D01*
X024766Y028183D01*
X024936Y028013D01*
X024936Y027903D01*
X024316Y027903D01*
X024316Y028013D01*
X024486Y028183D01*
X024766Y028183D01*
X024936Y028013D01*
X024936Y027903D01*
X024316Y027903D01*
X024316Y027962D02*
X024936Y027962D01*
X024910Y028039D02*
X024341Y028039D01*
X024418Y028116D02*
X024833Y028116D01*
X026416Y028373D02*
X026416Y028483D01*
X027036Y028483D01*
X027036Y028473D01*
X027036Y028373D01*
X026866Y028203D01*
X026586Y028203D01*
X026416Y028373D01*
X026416Y028483D01*
X027036Y028483D01*
X027036Y028373D01*
X026866Y028203D01*
X026586Y028203D01*
X026416Y028373D01*
X026442Y028347D02*
X027010Y028347D01*
X027036Y028425D02*
X026416Y028425D01*
X026519Y028270D02*
X026932Y028270D01*
D38*
X027316Y029658D03*
X026136Y029658D03*
X025216Y026728D03*
X024036Y026728D03*
D39*
X024626Y026728D03*
X026726Y029658D03*
D40*
X034880Y026893D03*
X035372Y026893D03*
X035880Y026293D03*
X036372Y026293D03*
X040380Y028093D03*
X040872Y028093D03*
X044280Y026793D03*
X044772Y026793D03*
D41*
X039526Y029347D03*
X039526Y029839D03*
D42*
X028426Y029789D03*
X028426Y030297D03*
X026326Y027247D03*
X026326Y026739D03*
D43*
X026326Y027169D03*
X028426Y029868D03*
D44*
X025270Y035978D02*
X024850Y035978D01*
X025060Y035978D02*
X025060Y036609D01*
X024850Y036399D01*
X024625Y036504D02*
X024520Y036609D01*
X024205Y036609D01*
X024205Y035978D01*
X024205Y036188D02*
X024520Y036188D01*
X024625Y036294D01*
X024625Y036504D01*
X023981Y036609D02*
X023771Y036609D01*
X023876Y036609D02*
X023876Y036083D01*
X023771Y035978D01*
X023666Y035978D01*
X023561Y036083D01*
M02*
