G75*
%MOIN*%
%OFA0B0*%
%FSLAX24Y24*%
%IPPOS*%
%LPD*%
%AMOC8*
5,1,8,0,0,1.08239X$1,22.5*
%
%ADD10R,0.0276X0.0354*%
%ADD11R,0.0354X0.0276*%
%ADD12R,0.0364X0.0291*%
%ADD13R,0.0866X0.0236*%
%ADD14R,0.0291X0.0364*%
%ADD15R,0.0276X0.0118*%
%ADD16R,0.0118X0.0276*%
%ADD17R,0.0827X0.0827*%
%ADD18R,0.0450X0.2000*%
%ADD19R,0.0900X0.2000*%
%ADD20R,0.2000X0.0450*%
%ADD21R,0.2000X0.0900*%
%ADD22R,0.0472X0.0217*%
%ADD23R,0.0630X0.1575*%
%ADD24R,0.0591X0.0512*%
%ADD25R,0.0512X0.0591*%
%ADD26R,0.0870X0.0240*%
%ADD27R,0.0420X0.0850*%
%ADD28R,0.4252X0.4098*%
%ADD29R,0.0315X0.0551*%
%ADD30R,0.0709X0.0866*%
%ADD31R,0.0118X0.0197*%
%ADD32R,0.0197X0.0118*%
%ADD33R,0.0591X0.0591*%
%ADD34R,0.0413X0.0425*%
%ADD35R,0.0425X0.0413*%
%ADD36R,0.0472X0.0787*%
%ADD37R,0.0197X0.0276*%
D10*
X002820Y017643D03*
X003331Y017643D03*
X010470Y023193D03*
X010470Y023693D03*
X010981Y023693D03*
X010981Y023193D03*
X004481Y025893D03*
X003970Y025893D03*
X022020Y023443D03*
X022531Y023443D03*
X035370Y021693D03*
X035881Y021693D03*
X039920Y023643D03*
X040431Y023643D03*
X041670Y023643D03*
X041670Y023143D03*
X042181Y023143D03*
X042181Y023643D03*
X043420Y025243D03*
X043931Y025243D03*
X044620Y021643D03*
X045131Y021643D03*
X047220Y021093D03*
X047731Y021093D03*
X041881Y029743D03*
X041370Y029743D03*
X037631Y031893D03*
X037120Y031893D03*
D11*
X032376Y031687D03*
X032376Y032199D03*
X037976Y025699D03*
X037976Y025187D03*
X042726Y025287D03*
X042726Y025799D03*
X046226Y023149D03*
X046226Y022637D03*
X045926Y021649D03*
X045926Y021137D03*
X037526Y020549D03*
X037526Y020037D03*
X032126Y020149D03*
X032126Y019637D03*
X022126Y019637D03*
X022126Y020149D03*
X007626Y025587D03*
X007626Y026099D03*
X007076Y026137D03*
X007076Y026649D03*
X004626Y018899D03*
X004626Y018387D03*
X042626Y029787D03*
X042626Y030299D03*
X043476Y030099D03*
X043476Y029587D03*
X044026Y029149D03*
X044026Y028637D03*
D12*
X044589Y028493D03*
X045062Y028493D03*
X045062Y029293D03*
X044589Y029293D03*
X042162Y027693D03*
X041689Y027693D03*
X042789Y026793D03*
X042589Y026393D03*
X043062Y026393D03*
X043262Y026793D03*
X044189Y026243D03*
X044662Y026243D03*
X044362Y025743D03*
X043889Y025743D03*
X046089Y024243D03*
X046562Y024243D03*
X046462Y023643D03*
X045989Y023643D03*
X042162Y022643D03*
X041689Y022643D03*
X036662Y027293D03*
X036439Y027693D03*
X036189Y027293D03*
X036912Y027693D03*
X029312Y028543D03*
X028839Y028543D03*
X023912Y023793D03*
X023439Y023793D03*
X023389Y023293D03*
X023862Y023293D03*
X033239Y019993D03*
X033712Y019993D03*
X033712Y019493D03*
X033239Y019493D03*
X010962Y022193D03*
X010489Y022193D03*
X010489Y022693D03*
X010962Y022693D03*
X005012Y022693D03*
X005012Y023143D03*
X004539Y023143D03*
X004539Y022693D03*
X004489Y019943D03*
X004962Y019943D03*
X004962Y019443D03*
X004489Y019443D03*
D13*
X005915Y021193D03*
X005915Y021693D03*
X005915Y022193D03*
X005915Y022693D03*
X005915Y023193D03*
X005915Y023693D03*
X005915Y024193D03*
X005915Y024693D03*
X009537Y024693D03*
X009537Y024193D03*
X009537Y023693D03*
X009537Y023193D03*
X009537Y022693D03*
X009537Y022193D03*
X009537Y021693D03*
X009537Y021193D03*
X043152Y022643D03*
X043152Y023143D03*
X043152Y023643D03*
X043152Y024143D03*
X045199Y024143D03*
X045199Y023643D03*
X045199Y023143D03*
X045199Y022643D03*
D14*
X000876Y017357D03*
X000876Y017830D03*
X001376Y017930D03*
X001376Y017457D03*
X003876Y024557D03*
X003876Y025030D03*
X019826Y021730D03*
X019826Y021257D03*
X020326Y021257D03*
X020326Y021730D03*
X024626Y025457D03*
X024626Y025930D03*
X025826Y026157D03*
X025826Y026630D03*
X025526Y029757D03*
X025526Y030230D03*
X027926Y030230D03*
X027926Y029757D03*
X030476Y030207D03*
X030476Y030680D03*
X030476Y028580D03*
X030476Y028107D03*
X037026Y026330D03*
X037026Y025857D03*
X037626Y026657D03*
X037626Y027130D03*
X038376Y029207D03*
X038776Y029207D03*
X038776Y029680D03*
X038376Y029680D03*
X037626Y030907D03*
X037626Y031380D03*
X037626Y032407D03*
X037626Y032880D03*
X043426Y028330D03*
X043426Y027857D03*
X039526Y024830D03*
X039076Y024830D03*
X039076Y024357D03*
X039526Y024357D03*
X037026Y022130D03*
X037026Y021657D03*
X036576Y021507D03*
X036576Y021980D03*
X042576Y021880D03*
X043076Y021707D03*
X043076Y022180D03*
X042576Y021407D03*
X046526Y021630D03*
X046526Y021157D03*
D15*
X038295Y028000D03*
X038295Y028196D03*
X038295Y028393D03*
X038295Y028590D03*
X038295Y028787D03*
X036956Y028787D03*
X036956Y028590D03*
X036956Y028393D03*
X036956Y028196D03*
X036956Y028000D03*
D16*
X037232Y027724D03*
X037429Y027724D03*
X037626Y027724D03*
X037822Y027724D03*
X038019Y027724D03*
X038019Y029063D03*
X037822Y029063D03*
X037626Y029063D03*
X037429Y029063D03*
X037232Y029063D03*
D17*
X037626Y028393D03*
D18*
X037626Y034883D03*
D19*
X039366Y034883D03*
X035886Y034883D03*
D20*
X049116Y028493D03*
D21*
X049116Y026753D03*
X049116Y030233D03*
D22*
X030387Y029767D03*
X030387Y029019D03*
X029364Y029019D03*
X029364Y029393D03*
X029364Y029767D03*
D23*
X015826Y029846D03*
X015826Y032641D03*
X006926Y033791D03*
X006926Y030996D03*
D24*
X035026Y026267D03*
X035026Y025519D03*
X039526Y030719D03*
X039526Y031467D03*
X045626Y026767D03*
X045626Y026019D03*
D25*
X035100Y027593D03*
X034352Y027593D03*
D26*
X039746Y026843D03*
X039746Y026343D03*
X039746Y025843D03*
X039746Y025343D03*
X041806Y025343D03*
X041806Y025843D03*
X041806Y026343D03*
X041806Y026843D03*
X036606Y021043D03*
X036606Y020543D03*
X036606Y020043D03*
X036606Y019543D03*
X034546Y019543D03*
X034546Y020043D03*
X034546Y020543D03*
X034546Y021043D03*
X023156Y021343D03*
X023156Y021843D03*
X023156Y022343D03*
X023156Y022843D03*
X021096Y022843D03*
X021096Y022343D03*
X021096Y021843D03*
X021096Y021343D03*
X003656Y019893D03*
X003656Y019393D03*
X003656Y018893D03*
X003656Y018393D03*
X001596Y018393D03*
X001596Y018893D03*
X001596Y019393D03*
X001596Y019893D03*
D27*
X010426Y027013D03*
X011426Y027013D03*
X012426Y027013D03*
X019326Y029813D03*
X020326Y029813D03*
X021326Y029813D03*
D28*
X020326Y033093D03*
X011426Y030293D03*
D29*
X024035Y026614D03*
X024626Y026614D03*
X025216Y026614D03*
X026135Y029773D03*
X026726Y029773D03*
X027316Y029773D03*
D30*
X026726Y028560D03*
D31*
X042230Y028181D03*
X042427Y028181D03*
X042624Y028181D03*
X042821Y028181D03*
X042821Y029205D03*
X042624Y029205D03*
X042427Y029205D03*
X042230Y029205D03*
D32*
X042014Y028989D03*
X042014Y028792D03*
X042014Y028595D03*
X042014Y028398D03*
X043037Y028398D03*
X043037Y028595D03*
X043037Y028792D03*
X043037Y028989D03*
D33*
X042526Y028693D03*
D34*
X040970Y028093D03*
X040281Y028093D03*
X044181Y026793D03*
X044870Y026793D03*
X036470Y026293D03*
X035781Y026293D03*
X035470Y026893D03*
X034781Y026893D03*
D35*
X039526Y029249D03*
X039526Y029938D03*
D36*
X022626Y029694D03*
X022626Y028592D03*
X013726Y026894D03*
X013726Y025792D03*
D37*
X026326Y026718D03*
X026326Y027230D03*
X028426Y029807D03*
X028426Y030319D03*
M02*
