%
M48
M72
T01C0.0080
T02C0.0276
T03C0.0315
T04C0.0354
T05C0.0360
T06C0.0400
T07C0.0787
%
T01
X7326Y14793
X9376Y14793
X9276Y16893
X7776Y17143
X6676Y19443
X6676Y20543
X7426Y21193
X8076Y21193
X7976Y22043
X7326Y22243
X7926Y22693
X8676Y22093
X10226Y21193
X10326Y21593
X11126Y21693
X8726Y23743
X10576Y24443
X12276Y25143
X12676Y25643
X12426Y26193
X13676Y25143
X12976Y24793
X14376Y25943
X16276Y24943
X18176Y25543
X20176Y24243
X19826Y22793
X18576Y21943
X19376Y21243
X20376Y20843
X17726Y20793
X17776Y19543
X16026Y20893
X15176Y20843
X12176Y18943
X11976Y18043
X14476Y18243
X12776Y16243
X12276Y14993
X17676Y17143
X17876Y15693
X20276Y18143
X21676Y16943
X23776Y17643
X26426Y17393
X27476Y16243
X25876Y15793
X27876Y18943
X27676Y19743
X26076Y19543
X26176Y21043
X24476Y21643
X23876Y22343
X23976Y22843
X24476Y23643
X25776Y22743
X27776Y24443
X27176Y25243
X26826Y25893
X25776Y25643
X24576Y25043
X24176Y25343
X23476Y26543
X22976Y26243
X22376Y26443
X20276Y27643
X21026Y28393
X21026Y28993
X21726Y28993
X21726Y28393
X23176Y28343
X23276Y28843
X23876Y28343
X24376Y28943
X25076Y29143
X25976Y29143
X25876Y28243
X27376Y29243
X27926Y29193
X28776Y28943
X30476Y27643
X30776Y26543
X31876Y26043
X33776Y26893
X34426Y26293
X34476Y25643
X34076Y25343
X35876Y25243
X36376Y25243
X37076Y25343
X37476Y25743
X37476Y26243
X38376Y27243
X38726Y27693
X38776Y28193
X39276Y27643
X39626Y28093
X40376Y29143
X40976Y29143
X41476Y29143
X40976Y29743
X41876Y30843
X41176Y31143
X41376Y31743
X40176Y31443
X40176Y32343
X39826Y32943
X39676Y33643
X40076Y34043
X40076Y34543
X40076Y35043
X38676Y35043
X38676Y34543
X38676Y34043
X39076Y33643
X37976Y33443
X37276Y33443
X36576Y34043
X36576Y34543
X36576Y35043
X35176Y35043
X35176Y34543
X35176Y34043
X35576Y33643
X36176Y33643
X37076Y32443
X36676Y32043
X35726Y31293
X35626Y30593
X35526Y29893
X34776Y29543
X33876Y29643
X33026Y30093
X33576Y31293
X30976Y30743
X31226Y29093
X32876Y28343
X33826Y27993
X33826Y27493
X35376Y28293
X35626Y27893
X35976Y27693
X35726Y27343
X37376Y28193
X37826Y28193
X37826Y28643
X37376Y28643
X36926Y29193
X37976Y29693
X38276Y30143
X38776Y30143
X38826Y30793
X38876Y31443
X39276Y32143
X43026Y30293
X43526Y30493
X44076Y31043
X45176Y30743
X45276Y31743
X46376Y30943
X46776Y30143
X46476Y29443
X46676Y28843
X47176Y28843
X47676Y28843
X47676Y28143
X47176Y28143
X46676Y28143
X46176Y28143
X45676Y28143
X45676Y28843
X46176Y28843
X45526Y29343
X45076Y29743
X42676Y28843
X42376Y28543
X42726Y27643
X42726Y27193
X43276Y27243
X43576Y26343
X44876Y25643
X45076Y26143
X46276Y25943
X46126Y24793
X46676Y24643
X47026Y24293
X46976Y23643
X47776Y22643
X48476Y22543
X49276Y22443
X48776Y23543
X48776Y24643
X48776Y26043
X49276Y26043
X48276Y26043
X47876Y26443
X47876Y27043
X48276Y27443
X48776Y27443
X49276Y27443
X49276Y29543
X48776Y29543
X48276Y29543
X47876Y29943
X47876Y30543
X48276Y30943
X48776Y30943
X49276Y30943
X48176Y32143
X48976Y32943
X47776Y34143
X46576Y32843
X45176Y32843
X41176Y27593
X41026Y25793
X39876Y24343
X39076Y23943
X39426Y23643
X40576Y24243
X41176Y23643
X41276Y23143
X41176Y22643
X40476Y22393
X39776Y22643
X38476Y21643
X39426Y21443
X40476Y21343
X41026Y20693
X42076Y21343
X43476Y21743
X44126Y21643
X44426Y22993
X43926Y23793
X41576Y24243
X38926Y25793
X35976Y24043
X36476Y22443
X36976Y22543
X37476Y22143
X37876Y22743
X39726Y19893
X39626Y18893
X40976Y18243
X39476Y17543
X37876Y18243
X37576Y16943
X37476Y15543
X35976Y15743
X36076Y16843
X35676Y17793
X36076Y18743
X37526Y19493
X34276Y21943
X33576Y23243
X31676Y21043
X32726Y19943
X32726Y19393
X33826Y19093
X30676Y17693
X30076Y18643
X32576Y16443
X36276Y14343
X39376Y16243
X42976Y16743
X44976Y18593
X46176Y17243
X47676Y17243
X49026Y16543
X48576Y14943
X46826Y14893
X44226Y14743
X43026Y19693
X45426Y21093
X47676Y20643
X48276Y21243
X49176Y20943
X48076Y19543
X45626Y27393
X33976Y34843
X33576Y35193
X33326Y33443
X27976Y30743
X25976Y30493
X23776Y30843
X22876Y31543
X22876Y32643
X22876Y33943
X20476Y30643
X19776Y30643
X19826Y30043
X18476Y30443
X17876Y31143
X16876Y30743
X16576Y31843
X16476Y32543
X17776Y32543
X17676Y33543
X17276Y34043
X16576Y33543
X15776Y33843
X15176Y33243
X14776Y33943
X13276Y33043
X11676Y32943
X9276Y32843
X7676Y32943
X7076Y32143
X7676Y31543
X7776Y30643
X7576Y30243
X8676Y29943
X8676Y30943
X6276Y30943
X5976Y30343
X6176Y31843
X6476Y32643
X6276Y33543
X5876Y34343
X5076Y35043
X7176Y35243
X7876Y34943
X8576Y35143
X9276Y34643
X10176Y34843
X15376Y31443
X15676Y27743
X18276Y27743
X11876Y27743
X10976Y27043
X11276Y26143
X10276Y25843
X7576Y26943
X6476Y27043
X5226Y25893
X5576Y25143
X5276Y23743
X3726Y23593
X4076Y22543
X4476Y22243
X5176Y22243
X3326Y21793
X2576Y20743
X2476Y19393
X826Y18393
X1776Y17343
X1276Y16943
X876Y16843
X3976Y17643
X4076Y16543
X4476Y15643
X5376Y19443
X5376Y19943
X4526Y20493
X776Y23043
X1376Y24943
X2976Y26443
X1176Y26743
X826Y28393
X3576Y28743
X4376Y28543
X8876Y28443
X6876Y23693
X23676Y19743
X28076Y21143
X30076Y21143
X28376Y27243
T02
X2076Y26793
X2076Y27793
X2076Y25793
X2076Y23793
X2076Y22793
X2076Y21793
T03
X15626Y14693
X14626Y16693
X15626Y19693
T04
X22126Y18293
X23126Y18293
X32126Y18293
X33126Y18293
X9126Y18293
X8126Y18293
T05
X25526Y33443
X26526Y33443
X27526Y33443
X28526Y33443
X28526Y34443
X27526Y34443
X26526Y34443
X25526Y34443
T06
X32426Y34743
X32426Y33743
X41126Y19393
X43126Y18393
X41126Y15393
X12226Y33793
X11226Y33793
X10226Y33793
X8076Y28943
X7076Y28943
X7076Y27943
X8076Y27943
X6076Y27943
X6076Y28943
X3276Y15443
X2276Y15443
T07
X6126Y16293
X10126Y16293
X20126Y16293
X24126Y16293
X30126Y16293
X34126Y16293
M30
