G75*
G70*
%OFA0B0*%
%FSLAX24Y24*%
%IPPOS*%
%LPD*%
%AMOC8*
5,1,8,0,0,1.08239X$1,22.5*
%
%ADD10C,0.0000*%
%ADD11C,0.0080*%
%ADD12C,0.0030*%
%ADD13C,0.0060*%
%ADD14R,0.0118X0.0236*%
%ADD15C,0.0040*%
%ADD16R,0.0108X0.0197*%
%ADD17R,0.0197X0.0108*%
D10*
X000121Y008451D02*
X000121Y030951D01*
X050121Y030951D01*
X050121Y008451D01*
X000121Y008451D01*
X005727Y011351D02*
X005729Y011390D01*
X005735Y011429D01*
X005745Y011467D01*
X005758Y011504D01*
X005775Y011539D01*
X005795Y011573D01*
X005819Y011604D01*
X005846Y011633D01*
X005875Y011659D01*
X005907Y011682D01*
X005941Y011702D01*
X005977Y011718D01*
X006014Y011730D01*
X006053Y011739D01*
X006092Y011744D01*
X006131Y011745D01*
X006170Y011742D01*
X006209Y011735D01*
X006246Y011724D01*
X006283Y011710D01*
X006318Y011692D01*
X006351Y011671D01*
X006382Y011646D01*
X006410Y011619D01*
X006435Y011589D01*
X006457Y011556D01*
X006476Y011522D01*
X006491Y011486D01*
X006503Y011448D01*
X006511Y011410D01*
X006515Y011371D01*
X006515Y011331D01*
X006511Y011292D01*
X006503Y011254D01*
X006491Y011216D01*
X006476Y011180D01*
X006457Y011146D01*
X006435Y011113D01*
X006410Y011083D01*
X006382Y011056D01*
X006351Y011031D01*
X006318Y011010D01*
X006283Y010992D01*
X006246Y010978D01*
X006209Y010967D01*
X006170Y010960D01*
X006131Y010957D01*
X006092Y010958D01*
X006053Y010963D01*
X006014Y010972D01*
X005977Y010984D01*
X005941Y011000D01*
X005907Y011020D01*
X005875Y011043D01*
X005846Y011069D01*
X005819Y011098D01*
X005795Y011129D01*
X005775Y011163D01*
X005758Y011198D01*
X005745Y011235D01*
X005735Y011273D01*
X005729Y011312D01*
X005727Y011351D01*
X009727Y011351D02*
X009729Y011390D01*
X009735Y011429D01*
X009745Y011467D01*
X009758Y011504D01*
X009775Y011539D01*
X009795Y011573D01*
X009819Y011604D01*
X009846Y011633D01*
X009875Y011659D01*
X009907Y011682D01*
X009941Y011702D01*
X009977Y011718D01*
X010014Y011730D01*
X010053Y011739D01*
X010092Y011744D01*
X010131Y011745D01*
X010170Y011742D01*
X010209Y011735D01*
X010246Y011724D01*
X010283Y011710D01*
X010318Y011692D01*
X010351Y011671D01*
X010382Y011646D01*
X010410Y011619D01*
X010435Y011589D01*
X010457Y011556D01*
X010476Y011522D01*
X010491Y011486D01*
X010503Y011448D01*
X010511Y011410D01*
X010515Y011371D01*
X010515Y011331D01*
X010511Y011292D01*
X010503Y011254D01*
X010491Y011216D01*
X010476Y011180D01*
X010457Y011146D01*
X010435Y011113D01*
X010410Y011083D01*
X010382Y011056D01*
X010351Y011031D01*
X010318Y011010D01*
X010283Y010992D01*
X010246Y010978D01*
X010209Y010967D01*
X010170Y010960D01*
X010131Y010957D01*
X010092Y010958D01*
X010053Y010963D01*
X010014Y010972D01*
X009977Y010984D01*
X009941Y011000D01*
X009907Y011020D01*
X009875Y011043D01*
X009846Y011069D01*
X009819Y011098D01*
X009795Y011129D01*
X009775Y011163D01*
X009758Y011198D01*
X009745Y011235D01*
X009735Y011273D01*
X009729Y011312D01*
X009727Y011351D01*
X019727Y011351D02*
X019729Y011390D01*
X019735Y011429D01*
X019745Y011467D01*
X019758Y011504D01*
X019775Y011539D01*
X019795Y011573D01*
X019819Y011604D01*
X019846Y011633D01*
X019875Y011659D01*
X019907Y011682D01*
X019941Y011702D01*
X019977Y011718D01*
X020014Y011730D01*
X020053Y011739D01*
X020092Y011744D01*
X020131Y011745D01*
X020170Y011742D01*
X020209Y011735D01*
X020246Y011724D01*
X020283Y011710D01*
X020318Y011692D01*
X020351Y011671D01*
X020382Y011646D01*
X020410Y011619D01*
X020435Y011589D01*
X020457Y011556D01*
X020476Y011522D01*
X020491Y011486D01*
X020503Y011448D01*
X020511Y011410D01*
X020515Y011371D01*
X020515Y011331D01*
X020511Y011292D01*
X020503Y011254D01*
X020491Y011216D01*
X020476Y011180D01*
X020457Y011146D01*
X020435Y011113D01*
X020410Y011083D01*
X020382Y011056D01*
X020351Y011031D01*
X020318Y011010D01*
X020283Y010992D01*
X020246Y010978D01*
X020209Y010967D01*
X020170Y010960D01*
X020131Y010957D01*
X020092Y010958D01*
X020053Y010963D01*
X020014Y010972D01*
X019977Y010984D01*
X019941Y011000D01*
X019907Y011020D01*
X019875Y011043D01*
X019846Y011069D01*
X019819Y011098D01*
X019795Y011129D01*
X019775Y011163D01*
X019758Y011198D01*
X019745Y011235D01*
X019735Y011273D01*
X019729Y011312D01*
X019727Y011351D01*
X023727Y011351D02*
X023729Y011390D01*
X023735Y011429D01*
X023745Y011467D01*
X023758Y011504D01*
X023775Y011539D01*
X023795Y011573D01*
X023819Y011604D01*
X023846Y011633D01*
X023875Y011659D01*
X023907Y011682D01*
X023941Y011702D01*
X023977Y011718D01*
X024014Y011730D01*
X024053Y011739D01*
X024092Y011744D01*
X024131Y011745D01*
X024170Y011742D01*
X024209Y011735D01*
X024246Y011724D01*
X024283Y011710D01*
X024318Y011692D01*
X024351Y011671D01*
X024382Y011646D01*
X024410Y011619D01*
X024435Y011589D01*
X024457Y011556D01*
X024476Y011522D01*
X024491Y011486D01*
X024503Y011448D01*
X024511Y011410D01*
X024515Y011371D01*
X024515Y011331D01*
X024511Y011292D01*
X024503Y011254D01*
X024491Y011216D01*
X024476Y011180D01*
X024457Y011146D01*
X024435Y011113D01*
X024410Y011083D01*
X024382Y011056D01*
X024351Y011031D01*
X024318Y011010D01*
X024283Y010992D01*
X024246Y010978D01*
X024209Y010967D01*
X024170Y010960D01*
X024131Y010957D01*
X024092Y010958D01*
X024053Y010963D01*
X024014Y010972D01*
X023977Y010984D01*
X023941Y011000D01*
X023907Y011020D01*
X023875Y011043D01*
X023846Y011069D01*
X023819Y011098D01*
X023795Y011129D01*
X023775Y011163D01*
X023758Y011198D01*
X023745Y011235D01*
X023735Y011273D01*
X023729Y011312D01*
X023727Y011351D01*
X029727Y011351D02*
X029729Y011390D01*
X029735Y011429D01*
X029745Y011467D01*
X029758Y011504D01*
X029775Y011539D01*
X029795Y011573D01*
X029819Y011604D01*
X029846Y011633D01*
X029875Y011659D01*
X029907Y011682D01*
X029941Y011702D01*
X029977Y011718D01*
X030014Y011730D01*
X030053Y011739D01*
X030092Y011744D01*
X030131Y011745D01*
X030170Y011742D01*
X030209Y011735D01*
X030246Y011724D01*
X030283Y011710D01*
X030318Y011692D01*
X030351Y011671D01*
X030382Y011646D01*
X030410Y011619D01*
X030435Y011589D01*
X030457Y011556D01*
X030476Y011522D01*
X030491Y011486D01*
X030503Y011448D01*
X030511Y011410D01*
X030515Y011371D01*
X030515Y011331D01*
X030511Y011292D01*
X030503Y011254D01*
X030491Y011216D01*
X030476Y011180D01*
X030457Y011146D01*
X030435Y011113D01*
X030410Y011083D01*
X030382Y011056D01*
X030351Y011031D01*
X030318Y011010D01*
X030283Y010992D01*
X030246Y010978D01*
X030209Y010967D01*
X030170Y010960D01*
X030131Y010957D01*
X030092Y010958D01*
X030053Y010963D01*
X030014Y010972D01*
X029977Y010984D01*
X029941Y011000D01*
X029907Y011020D01*
X029875Y011043D01*
X029846Y011069D01*
X029819Y011098D01*
X029795Y011129D01*
X029775Y011163D01*
X029758Y011198D01*
X029745Y011235D01*
X029735Y011273D01*
X029729Y011312D01*
X029727Y011351D01*
X033727Y011351D02*
X033729Y011390D01*
X033735Y011429D01*
X033745Y011467D01*
X033758Y011504D01*
X033775Y011539D01*
X033795Y011573D01*
X033819Y011604D01*
X033846Y011633D01*
X033875Y011659D01*
X033907Y011682D01*
X033941Y011702D01*
X033977Y011718D01*
X034014Y011730D01*
X034053Y011739D01*
X034092Y011744D01*
X034131Y011745D01*
X034170Y011742D01*
X034209Y011735D01*
X034246Y011724D01*
X034283Y011710D01*
X034318Y011692D01*
X034351Y011671D01*
X034382Y011646D01*
X034410Y011619D01*
X034435Y011589D01*
X034457Y011556D01*
X034476Y011522D01*
X034491Y011486D01*
X034503Y011448D01*
X034511Y011410D01*
X034515Y011371D01*
X034515Y011331D01*
X034511Y011292D01*
X034503Y011254D01*
X034491Y011216D01*
X034476Y011180D01*
X034457Y011146D01*
X034435Y011113D01*
X034410Y011083D01*
X034382Y011056D01*
X034351Y011031D01*
X034318Y011010D01*
X034283Y010992D01*
X034246Y010978D01*
X034209Y010967D01*
X034170Y010960D01*
X034131Y010957D01*
X034092Y010958D01*
X034053Y010963D01*
X034014Y010972D01*
X033977Y010984D01*
X033941Y011000D01*
X033907Y011020D01*
X033875Y011043D01*
X033846Y011069D01*
X033819Y011098D01*
X033795Y011129D01*
X033775Y011163D01*
X033758Y011198D01*
X033745Y011235D01*
X033735Y011273D01*
X033729Y011312D01*
X033727Y011351D01*
X050121Y021351D02*
X050121Y025751D01*
X039821Y030951D02*
X035421Y030951D01*
D11*
X035371Y023051D02*
X035371Y019901D01*
X040721Y019901D01*
X040721Y023051D01*
X035371Y023051D01*
D12*
X036853Y021527D02*
X036853Y021313D01*
X036853Y021420D02*
X037173Y021420D01*
X037067Y021313D01*
X037120Y021205D02*
X037013Y021205D01*
X036960Y021151D01*
X036960Y020991D01*
X036853Y020991D02*
X037173Y020991D01*
X037173Y021151D01*
X037120Y021205D01*
X037120Y020882D02*
X037173Y020829D01*
X037173Y020722D01*
X037120Y020669D01*
X036907Y020669D01*
X036853Y020722D01*
X036853Y020829D01*
X036907Y020882D01*
X037095Y020379D02*
X037149Y020379D01*
X037255Y020272D01*
X037255Y020166D02*
X037255Y020379D01*
X037364Y020326D02*
X037364Y020272D01*
X037578Y020272D01*
X037578Y020219D02*
X037578Y020326D01*
X037524Y020379D01*
X037418Y020379D01*
X037364Y020326D01*
X037418Y020166D02*
X037524Y020166D01*
X037578Y020219D01*
X037686Y020166D02*
X037739Y020219D01*
X037739Y020433D01*
X037686Y020379D02*
X037793Y020379D01*
X037954Y020486D02*
X037954Y020166D01*
X038007Y020166D02*
X037901Y020166D01*
X038115Y020166D02*
X038222Y020166D01*
X038169Y020166D02*
X038169Y020379D01*
X038222Y020379D01*
X038169Y020486D02*
X038169Y020539D01*
X038007Y020486D02*
X037954Y020486D01*
X038331Y020486D02*
X038544Y020486D01*
X038544Y020166D01*
X038544Y020326D02*
X038438Y020326D01*
X038976Y020326D02*
X038976Y020219D01*
X039029Y020166D01*
X039189Y020166D01*
X039189Y020059D02*
X039189Y020379D01*
X039029Y020379D01*
X038976Y020326D01*
X039298Y020326D02*
X039351Y020379D01*
X039458Y020379D01*
X039511Y020326D01*
X039511Y020219D01*
X039458Y020166D01*
X039351Y020166D01*
X039298Y020219D01*
X039298Y020326D01*
X039620Y020326D02*
X039673Y020379D01*
X039780Y020379D01*
X039834Y020326D01*
X039834Y020219D01*
X039780Y020166D01*
X039673Y020166D01*
X039620Y020219D01*
X039620Y020326D01*
X039942Y020166D02*
X040156Y020166D01*
X040156Y020486D01*
X040059Y021016D02*
X040166Y021122D01*
X040113Y021122D02*
X040273Y021122D01*
X040273Y021016D02*
X040273Y021336D01*
X040113Y021336D01*
X040059Y021283D01*
X040059Y021176D01*
X040113Y021122D01*
X039950Y021122D02*
X039790Y021122D01*
X039737Y021176D01*
X039737Y021283D01*
X039790Y021336D01*
X039950Y021336D01*
X039950Y021016D01*
X039628Y021016D02*
X039415Y021016D01*
X039521Y021016D02*
X039521Y021336D01*
X039628Y021229D01*
X039558Y021683D02*
X039345Y021896D01*
X039345Y021950D01*
X039398Y022003D01*
X039505Y022003D01*
X039558Y021950D01*
X039667Y021950D02*
X039667Y021843D01*
X039720Y021790D01*
X039880Y021790D01*
X039880Y021683D02*
X039880Y022003D01*
X039720Y022003D01*
X039667Y021950D01*
X039558Y021683D02*
X039345Y021683D01*
X039989Y021736D02*
X040043Y021683D01*
X040149Y021683D01*
X040203Y021736D01*
X040203Y021950D01*
X040149Y022003D01*
X040043Y022003D01*
X039989Y021950D01*
X044965Y018483D02*
X044965Y018429D01*
X045018Y018376D01*
X045125Y018376D01*
X045178Y018429D01*
X045178Y018483D01*
X045125Y018536D01*
X045018Y018536D01*
X044965Y018483D01*
X045018Y018376D02*
X044965Y018322D01*
X044965Y018269D01*
X045018Y018216D01*
X045125Y018216D01*
X045178Y018269D01*
X045178Y018322D01*
X045125Y018376D01*
X045287Y018376D02*
X045340Y018322D01*
X045500Y018322D01*
X045500Y018216D02*
X045500Y018536D01*
X045340Y018536D01*
X045287Y018483D01*
X045287Y018376D01*
X045609Y018376D02*
X045609Y018483D01*
X045663Y018536D01*
X045823Y018536D01*
X045823Y018216D01*
X045823Y018322D02*
X045663Y018322D01*
X045609Y018376D01*
X045716Y018322D02*
X045609Y018216D01*
X045080Y017789D02*
X045080Y017736D01*
X045080Y017629D02*
X045080Y017416D01*
X045027Y017416D02*
X045134Y017416D01*
X045134Y017629D02*
X045080Y017629D01*
X044919Y017629D02*
X044705Y017416D01*
X044596Y017469D02*
X044596Y017576D01*
X044543Y017629D01*
X044436Y017629D01*
X044383Y017576D01*
X044383Y017522D01*
X044596Y017522D01*
X044596Y017469D02*
X044543Y017416D01*
X044436Y017416D01*
X044274Y017469D02*
X044274Y017576D01*
X044221Y017629D01*
X044061Y017629D01*
X044061Y017736D02*
X044061Y017416D01*
X044221Y017416D01*
X044274Y017469D01*
X044705Y017629D02*
X044919Y017416D01*
X045242Y017736D02*
X045456Y017736D01*
X045456Y017416D01*
X045456Y017576D02*
X045349Y017576D01*
X043630Y017683D02*
X043630Y017469D01*
X043576Y017416D01*
X043470Y017416D01*
X043416Y017469D01*
X043416Y017576D01*
X043523Y017576D01*
X043630Y017683D02*
X043576Y017736D01*
X043470Y017736D01*
X043416Y017683D01*
X043254Y017629D02*
X043147Y017629D01*
X043094Y017576D01*
X043094Y017416D01*
X043254Y017416D01*
X043307Y017469D01*
X043254Y017522D01*
X043094Y017522D01*
X042985Y017416D02*
X042878Y017416D01*
X042932Y017416D02*
X042932Y017629D01*
X042985Y017629D01*
X042932Y017736D02*
X042932Y017789D01*
X042770Y017629D02*
X042610Y017629D01*
X042557Y017576D01*
X042557Y017416D01*
X042770Y017416D02*
X042770Y017629D01*
X010656Y015186D02*
X010549Y015186D01*
X010602Y015186D02*
X010602Y014866D01*
X010549Y014866D02*
X010656Y014866D01*
X010441Y014866D02*
X010441Y015079D01*
X010281Y015079D01*
X010228Y015026D01*
X010228Y014866D01*
X010065Y014919D02*
X010012Y014866D01*
X010065Y014919D02*
X010065Y015133D01*
X010012Y015079D02*
X010119Y015079D01*
X009904Y015026D02*
X009851Y015079D01*
X009744Y015079D01*
X009690Y015026D01*
X009690Y014972D01*
X009904Y014972D01*
X009904Y014919D02*
X009904Y015026D01*
X009904Y014919D02*
X009851Y014866D01*
X009744Y014866D01*
X009582Y014919D02*
X009582Y015026D01*
X009528Y015079D01*
X009368Y015079D01*
X009368Y014812D01*
X009421Y014759D01*
X009475Y014759D01*
X009528Y014866D02*
X009368Y014866D01*
X009259Y014866D02*
X009259Y015079D01*
X009153Y015079D02*
X009259Y014972D01*
X009153Y015079D02*
X009099Y015079D01*
X008937Y015079D02*
X008831Y015079D01*
X008777Y015026D01*
X008777Y014866D01*
X008937Y014866D01*
X008991Y014919D01*
X008937Y014972D01*
X008777Y014972D01*
X008669Y015079D02*
X008562Y015079D01*
X008615Y015133D02*
X008615Y014919D01*
X008562Y014866D01*
X008454Y014919D02*
X008400Y014866D01*
X008294Y014866D01*
X008240Y014919D01*
X008240Y015026D01*
X008294Y015079D01*
X008400Y015079D01*
X008454Y015026D01*
X008454Y014919D01*
X008131Y014866D02*
X008131Y015079D01*
X008025Y015079D02*
X008131Y014972D01*
X008025Y015079D02*
X007971Y015079D01*
X007541Y015186D02*
X007327Y015186D01*
X007434Y015186D02*
X007434Y014866D01*
X007218Y014866D02*
X007112Y014866D01*
X007165Y014866D02*
X007165Y015079D01*
X007218Y015079D01*
X007165Y015186D02*
X007165Y015239D01*
X007003Y015079D02*
X007003Y014866D01*
X006897Y014866D02*
X006897Y015026D01*
X006843Y015079D01*
X006790Y015026D01*
X006790Y014866D01*
X006681Y014919D02*
X006681Y015026D01*
X006628Y015079D01*
X006521Y015079D01*
X006468Y015026D01*
X006468Y014972D01*
X006681Y014972D01*
X006681Y014919D02*
X006628Y014866D01*
X006521Y014866D01*
X006897Y015026D02*
X006950Y015079D01*
X007003Y015079D01*
X006037Y015133D02*
X006037Y014919D01*
X005983Y014866D01*
X005876Y014866D01*
X005823Y014919D01*
X005714Y014919D02*
X005661Y014866D01*
X005554Y014866D01*
X005501Y014919D01*
X005501Y015026D01*
X005554Y015079D01*
X005661Y015079D01*
X005714Y015026D01*
X005714Y014919D01*
X005823Y015133D02*
X005876Y015186D01*
X005983Y015186D01*
X006037Y015133D01*
X005392Y015079D02*
X005392Y014866D01*
X005392Y015079D02*
X005232Y015079D01*
X005179Y015026D01*
X005179Y014866D01*
X005070Y014866D02*
X004910Y014866D01*
X004856Y014919D01*
X004910Y014972D01*
X005016Y014972D01*
X005070Y015026D01*
X005016Y015079D01*
X004856Y015079D01*
X004747Y015079D02*
X004641Y015079D01*
X004694Y015133D02*
X004694Y014919D01*
X004641Y014866D01*
X008645Y015586D02*
X008698Y015533D01*
X008805Y015533D01*
X008858Y015586D01*
X008858Y015693D02*
X008751Y015746D01*
X008698Y015746D01*
X008645Y015693D01*
X008645Y015586D01*
X008858Y015693D02*
X008858Y015853D01*
X008645Y015853D01*
X008967Y015800D02*
X008967Y015693D01*
X009020Y015640D01*
X009180Y015640D01*
X009180Y015533D02*
X009180Y015853D01*
X009020Y015853D01*
X008967Y015800D01*
X009289Y015800D02*
X009343Y015853D01*
X009449Y015853D01*
X009503Y015800D01*
X009503Y015586D01*
X009449Y015533D01*
X009343Y015533D01*
X009289Y015586D01*
X009582Y014919D02*
X009528Y014866D01*
D13*
X038574Y021162D02*
X038767Y021162D01*
X038767Y021339D02*
X038574Y021339D01*
X044074Y018539D02*
X044267Y018539D01*
X044267Y018362D02*
X044074Y018362D01*
D14*
X044012Y018453D03*
X044332Y018453D03*
X038832Y021253D03*
X038512Y021253D03*
D15*
X038000Y021218D02*
X038000Y020883D01*
X037842Y020883D02*
X037842Y021218D01*
X038504Y021772D02*
X038838Y021772D01*
X038838Y021929D02*
X038504Y021929D01*
X007938Y015779D02*
X007604Y015779D01*
X007604Y015622D02*
X007938Y015622D01*
D16*
X007914Y015701D03*
X007628Y015701D03*
X038528Y021851D03*
X038814Y021851D03*
D17*
X037921Y021193D03*
X037921Y020908D03*
M02*
