%
M48
M72
T01C0.0080
T02C0.0276
T03C0.0315
T04C0.0354
T05C0.0400
T06C0.0787
%
T01
X7321Y9851
X9371Y9851
X12271Y10051
X12771Y11301
X11971Y13101
X12171Y14001
X14471Y13301
X17671Y12201
X17871Y10751
X20271Y13201
X21671Y12001
X23771Y12701
X26421Y12451
X27471Y11301
X25871Y10851
X30071Y13701
X30671Y12751
X32571Y11501
X35671Y12851
X36071Y11901
X35971Y10801
X37471Y10601
X36271Y9401
X39371Y11301
X37571Y12001
X37871Y13301
X37521Y14551
X36071Y13801
X33821Y14151
X32721Y14451
X32721Y15001
X31671Y16101
X30071Y16201
X28071Y16201
X27671Y14801
X27871Y14001
X26071Y14601
X26171Y16101
X24471Y16701
X23871Y17401
X23971Y17901
X24471Y18701
X25771Y17801
X27771Y19501
X27171Y20301
X26821Y20951
X25771Y20701
X24571Y20101
X24171Y20401
X22971Y21301
X23471Y21601
X22371Y21501
X20271Y22701
X21021Y23451
X21021Y24051
X21721Y24051
X21721Y23451
X23171Y23401
X23271Y23901
X23871Y23401
X24371Y24001
X25071Y24201
X25971Y24201
X27371Y24301
X27921Y24251
X28771Y24001
X30471Y22701
X30771Y21601
X31871Y21101
X33771Y21951
X33821Y22551
X33821Y23051
X32871Y23401
X33871Y24701
X34771Y24601
X35521Y24951
X35621Y25651
X35721Y26351
X36671Y27101
X37071Y27501
X37271Y28501
X37971Y28501
X38671Y29101
X39071Y28701
X39671Y28701
X40071Y29101
X40071Y29601
X40071Y30101
X38671Y30101
X38671Y29601
X36571Y29601
X36571Y30101
X35171Y30101
X35171Y29601
X35171Y29101
X35571Y28701
X36171Y28701
X36571Y29101
X34271Y30001
X33571Y30251
X32921Y29051
X33321Y28501
X31171Y30051
X30171Y29951
X29121Y30201
X28871Y29501
X28571Y29001
X28171Y28551
X27971Y30101
X25871Y30201
X24871Y30301
X22871Y29001
X22871Y27701
X22871Y26601
X23771Y25901
X25971Y25551
X27971Y25801
X30971Y25801
X33021Y25151
X33571Y26351
X31221Y24151
X28371Y22301
X25871Y23301
X20471Y25701
X19771Y25701
X19821Y25101
X18471Y25501
X17871Y26201
X16871Y25801
X16571Y26901
X16471Y27601
X17771Y27601
X17671Y28601
X17271Y29101
X16571Y28601
X15771Y28901
X15171Y28301
X14771Y29001
X13271Y28101
X11671Y28001
X9271Y27901
X7671Y28001
X7071Y27201
X6471Y27701
X6171Y26901
X6271Y26001
X5971Y25401
X7571Y25301
X7771Y25701
X8671Y26001
X7671Y26601
X8671Y25001
X8871Y23501
X7571Y22001
X6471Y22101
X5221Y20951
X5571Y20201
X5271Y18801
X3721Y18651
X4071Y17601
X4471Y17301
X5171Y17301
X3321Y16851
X2571Y15801
X2471Y14451
X821Y13451
X1771Y12401
X1271Y12001
X871Y11901
X3971Y12701
X4071Y11601
X4471Y10701
X7771Y12201
X9271Y11951
X6671Y14501
X6671Y15601
X7421Y16251
X8071Y16251
X7971Y17101
X7321Y17301
X7921Y17751
X8671Y17151
X10321Y16651
X10221Y16251
X11121Y16751
X8721Y18801
X10571Y19501
X12271Y20201
X12671Y20701
X12421Y21251
X11271Y21201
X10271Y20901
X10971Y22101
X11871Y22801
X14371Y21001
X13671Y20201
X12971Y19851
X16271Y20001
X18171Y20601
X20171Y19301
X19821Y17851
X18571Y17001
X19371Y16301
X20371Y15901
X17721Y15851
X16021Y15951
X15171Y15901
X17771Y14601
X23671Y14801
X33571Y18301
X34271Y17001
X36471Y17501
X36971Y17601
X37471Y17201
X37871Y17801
X39071Y19001
X39421Y18701
X39871Y19401
X40571Y19301
X41171Y18701
X41271Y18201
X41171Y17701
X40471Y17451
X39771Y17701
X39421Y16501
X40471Y16401
X41021Y15751
X42071Y16401
X43471Y16801
X44121Y16701
X45421Y16151
X47671Y15701
X48271Y16301
X49171Y16001
X48071Y14601
X47671Y12301
X49021Y11601
X48571Y10001
X46821Y9951
X44221Y9801
X42971Y11801
X40971Y13301
X39621Y13951
X39721Y14951
X38471Y16701
X35971Y19101
X35871Y20301
X36371Y20301
X37071Y20401
X37471Y20801
X37471Y21301
X38371Y22301
X38721Y22751
X38771Y23251
X39271Y22701
X39621Y23151
X40371Y24201
X40971Y24201
X41471Y24201
X40971Y24801
X41871Y25901
X41171Y26201
X40171Y26501
X39271Y27201
X38871Y26501
X38821Y25851
X38771Y25201
X38271Y25201
X37971Y24751
X36921Y24251
X37371Y23701
X37821Y23701
X37821Y23251
X37371Y23251
X35971Y22751
X35621Y22951
X35721Y22401
X35371Y23351
X34421Y21351
X34471Y20701
X34071Y20401
X38921Y20851
X41021Y20851
X41571Y19301
X43921Y18851
X44421Y18051
X46971Y18701
X47021Y19351
X46671Y19701
X46121Y19851
X46971Y20801
X47771Y20301
X48271Y21101
X48771Y21101
X49271Y21101
X47871Y21501
X47871Y22101
X48271Y22501
X48771Y22501
X49271Y22501
X47671Y23201
X47171Y23201
X46671Y23201
X46171Y23201
X45671Y23201
X45671Y23901
X46171Y23901
X46671Y23901
X47171Y23901
X47671Y23901
X48271Y24601
X48771Y24601
X49271Y24601
X47871Y25001
X47871Y25601
X48271Y26001
X48771Y26001
X49271Y26001
X46571Y27201
X45271Y26801
X43871Y27401
X42771Y27201
X41671Y27501
X40671Y27601
X39821Y28001
X42271Y29101
X43471Y30201
X44271Y29501
X45271Y28301
X47771Y29201
X48971Y28001
X45771Y25901
X45071Y24801
X45521Y24401
X43521Y25551
X43021Y25351
X42671Y23901
X42371Y23601
X42721Y22701
X43271Y22301
X42721Y22251
X43571Y21401
X44871Y20701
X45071Y21201
X46271Y21001
X45621Y22451
X48771Y19701
X47771Y17701
X49271Y17501
X44971Y13651
X46171Y12301
X43021Y14751
X39471Y12601
X41171Y22651
X18271Y22801
X15671Y22801
X15371Y26501
X10171Y29901
X9271Y29701
X8571Y30201
X7871Y30001
X7171Y30301
X5871Y29401
X6271Y28601
X5071Y30101
X3571Y23801
X4371Y23601
X2971Y21501
X1171Y21801
X1371Y20001
X771Y18101
X621Y17151
X4521Y15551
X5371Y15001
X5371Y14501
X6871Y18751
T02
X2071Y18851
X2071Y17851
X2071Y16851
X2071Y20851
X2071Y21851
X2071Y22851
T03
X15621Y14751
X14621Y11751
X15621Y9751
T04
X22121Y13351
X23121Y13351
X32121Y13351
X33121Y13351
X9121Y13351
X8121Y13351
T05
X3271Y10501
X2271Y10501
X6071Y23001
X6071Y24001
X7071Y24001
X8071Y24001
X8071Y23001
X7071Y23001
X10221Y28851
X11221Y28851
X12221Y28851
X24171Y29051
X25171Y29051
X26171Y29051
X27171Y29051
X29671Y29051
X30671Y29051
X41121Y14451
X43121Y13451
X41121Y10451
T06
X34121Y11351
X30121Y11351
X24121Y11351
X20121Y11351
X10121Y11351
X6121Y11351
M30
